0
SECTION
2
HEADER
9
$INSUNITS
70
4
9
$ACADVER
1
AC1014
9
$HANDSEED
5
FFFF
0
ENDSEC
0
SECTION
2
TABLES
0
TABLE
2
VPORT
5
8
100
AcDbSymbolTable
0
ENDTAB
0
TABLE
2
LTYPE
5
5
100
AcDbSymbolTable
0
LTYPE
5
14
100
AcDbSymbolTableRecord
100
AcDbLinetypeTableRecord
2
BYBLOCK
70
0
0
LTYPE
5
15
100
AcDbSymbolTableRecord
100
AcDbLinetypeTableRecord
2
BYLAYER
70
0
0
ENDTAB
0
TABLE
2
LAYER
5
2
100
AcDbSymbolTable
70
2
0
LAYER
5
50
100
AcDbSymbolTableRecord
100
AcDbLayerTableRecord
2
0
70
0
6
CONTINUOUS
0
ENDTAB
0
TABLE
2
STYLE
5
3
100
AcDbSymbolTable
70
1
0
STYLE
5
11
100
AcDbSymbolTableRecord
100
AcDbTextStyleTableRecord
2
STANDARD
70
0
0
ENDTAB
0
TABLE
2
VIEW
5
6
100
AcDbSymbolTable
70
0
0
ENDTAB
0
TABLE
2
UCS
5
7
100
AcDbSymbolTable
70
0
0
ENDTAB
0
TABLE
2
APPID
5
9
100
AcDbSymbolTable
70
2
0
APPID
5
12
100
AcDbSymbolTableRecord
100
AcDbRegAppTableRecord
2
ACAD
70
0
0
ENDTAB
0
TABLE
2
DIMSTYLE
5
A
100
AcDbSymbolTable
70
1
0
ENDTAB
0
TABLE
2
BLOCK_RECORD
5
1
100
AcDbSymbolTable
70
1
0
BLOCK_RECORD
5
1F
100
AcDbSymbolTableRecord
100
AcDbBlockTableRecord
2
*MODEL_SPACE
0
BLOCK_RECORD
5
1B
100
AcDbSymbolTableRecord
100
AcDbBlockTableRecord
2
*PAPER_SPACE
0
ENDTAB
0
ENDSEC
0
SECTION
2
BLOCKS
0
BLOCK
5
20
100
AcDbEntity
100
AcDbBlockBegin
2
*MODEL_SPACE
0
ENDBLK
5
21
100
AcDbEntity
100
AcDbBlockEnd
0
BLOCK
5
1C
100
AcDbEntity
100
AcDbBlockBegin
2
*PAPER_SPACE
0
ENDBLK
5
1D
100
AcDbEntity
100
AcDbBlockEnd
0
ENDSEC
0
SECTION
2
ENTITIES
0
LWPOLYLINE
5
100
100
AcDbEntity
8
0
100
AcDbPolyline
90
58
70
1
43
0.0
10
47
20
52.645087021228427
10
50
20
52.645087021228427
10
50.000000521540649
20
63.000000044703484
10
20.000001043081287
20
63
10
20.000001043081287
20
60
10
10.00000104308128
20
60
10
10.00000104308128
20
63
10
1.0430812791284438e-06
20
63
10
1.0430812791284438e-06
20
60
10
-9.99999895691872
20
60
10
-9.99999895691872
20
63
10
-19.99999895691872
20
63
10
-19.99999895691872
20
60
10
-29.99999895691872
20
60
10
-29.99999895691872
20
63
10
-39.999998956918724
20
63
10
-39.999998956918724
20
60
10
-49.999999999999993
20
60
10
-49.999999999999993
20
52.534023950758495
10
-46.999999999999993
20
52.534023950758495
10
-46.999999999999993
20
42.534023950758495
10
-49.999999999999993
20
42.534023950758495
10
-49.999999999999993
20
36.034023950758495
10
-46.999999999999993
20
36.034023950758495
10
-46.999999999999993
20
26.034023950758495
10
-49.999999999999993
20
26.034023950758495
10
-49.999999999999993
20
19.534023950758495
10
-46.999999999999993
20
19.534023950758495
10
-46.999999999999993
20
9.5340239507584954
10
-49.999999999999993
20
9.5340239507584954
10
-49.999999999999993
20
3.0000000000000004
10
-34.999999999999986
20
3.0000000000000004
10
-34.999999999999986
20
0
10
-24.999999999999986
20
0
10
-24.999999999999986
20
3.0000000447034836
10
-15.000000223517407
20
3.0000000447034836
10
-15.000000223517407
20
0
10
-5.0000000745057953
20
0
10
-5.0000000745057935
20
3.0000000447034836
10
5.0000000745058184
20
3.0000000447034836
10
5.0000000745058184
20
0
10
15.000000223517432
20
0
10
15.000000223517429
20
3.0000000447034836
10
25.000000372529044
20
3.0000000447034836
10
25.000000372529044
20
0
10
35.000000521540656
20
0
10
35.000000521540656
20
3.0000000447034836
10
50.000000521540649
20
3.0000000447034836
10
50
20
12.645087021228427
10
47
20
12.645087021228427
10
47
20
22.645087021228427
10
50
20
22.645087021228427
10
50
20
27.645087021228427
10
47
20
27.645087021228427
10
47
20
37.645087021228427
10
50
20
37.645087021228427
10
50
20
42.645087021228427
10
47
20
42.645087021228427
0
ENDSEC
0
SECTION
2
OBJECTS
0
DICTIONARY
5
C
100
AcDbDictionary
3
ACAD_GROUP
350
D
3
ACAD_MLINESTYLE
350
17
0
DICTIONARY
5
D
100
AcDbDictionary
0
DICTIONARY
5
1A
330
C
100
AcDbDictionary
0
DICTIONARY
5
17
100
AcDbDictionary
0
ENDSEC
0
EOF
