0
SECTION
2
HEADER
9
$INSUNITS
70
4
0
ENDSEC
0
SECTION
2
TABLES
0
TABLE
2
LTYPE
0
LTYPE
72
65
70
64
2
CONTINUOUS
3
______
73
0
40
0
0
ENDTAB
0
TABLE
2
LAYER
0
ENDTAB
0
ENDSEC
0
SECTION
2
ENTITIES
0
LINE
8
front_outsideCutPath
10
0
20
63
11
0
21
56.4375
0
LINE
8
front_outsideCutPath
10
0
20
56.4375
11
3
21
56.4375
0
LINE
8
front_outsideCutPath
10
3
20
56.4375
11
3
21
47.0625
0
LINE
8
front_outsideCutPath
10
3
20
47.0625
11
0
21
47.0625
0
LINE
8
front_outsideCutPath
10
0
20
47.0625
11
0
21
37.6875
0
LINE
8
front_outsideCutPath
10
0
20
37.6875
11
3
21
37.6875
0
LINE
8
front_outsideCutPath
10
3
20
37.6875
11
3
21
28.3125
0
LINE
8
front_outsideCutPath
10
3
20
28.3125
11
0
21
28.3125
0
LINE
8
front_outsideCutPath
10
0
20
28.3125
11
0
21
18.9375
0
LINE
8
front_outsideCutPath
10
0
20
18.9375
11
3
21
18.9375
0
LINE
8
front_outsideCutPath
10
3
20
18.9375
11
3
21
9.5625
0
LINE
8
front_outsideCutPath
10
3
20
9.5625
11
0
21
9.5625
0
LINE
8
front_outsideCutPath
10
0
20
9.5625
11
0
21
3
0
LINE
8
front_outsideCutPath
10
0
20
3
11
9.6875
21
3
0
LINE
8
front_outsideCutPath
10
9.6875
20
3
11
9.6875
21
6
0
LINE
8
front_outsideCutPath
10
9.6875
20
6
11
19.0625
21
6
0
LINE
8
front_outsideCutPath
10
19.0625
20
6
11
19.0625
21
3
0
LINE
8
front_outsideCutPath
10
19.0625
20
3
11
28.4375
21
3
0
LINE
8
front_outsideCutPath
10
28.4375
20
3
11
28.4375
21
6
0
LINE
8
front_outsideCutPath
10
28.4375
20
6
11
37.8125
21
6
0
LINE
8
front_outsideCutPath
10
37.8125
20
6
11
37.8125
21
3
0
LINE
8
front_outsideCutPath
10
37.8125
20
3
11
47.1875
21
3
0
LINE
8
front_outsideCutPath
10
47.1875
20
3
11
47.1875
21
6
0
LINE
8
front_outsideCutPath
10
47.1875
20
6
11
56.5625
21
6
0
LINE
8
front_outsideCutPath
10
56.5625
20
6
11
56.5625
21
3
0
LINE
8
front_outsideCutPath
10
56.5625
20
3
11
65.9375
21
3
0
LINE
8
front_outsideCutPath
10
65.9375
20
3
11
65.9375
21
6
0
LINE
8
front_outsideCutPath
10
65.9375
20
6
11
75.3125
21
6
0
LINE
8
front_outsideCutPath
10
75.3125
20
6
11
75.3125
21
3
0
LINE
8
front_outsideCutPath
10
75.3125
20
3
11
84.6875
21
3
0
LINE
8
front_outsideCutPath
10
84.6875
20
3
11
84.6875
21
6
0
LINE
8
front_outsideCutPath
10
84.6875
20
6
11
94.0625
21
6
0
LINE
8
front_outsideCutPath
10
94.0625
20
6
11
94.0625
21
3
0
LINE
8
front_outsideCutPath
10
94.0625
20
3
11
103.4375
21
3
0
LINE
8
front_outsideCutPath
10
103.4375
20
3
11
103.4375
21
6
0
LINE
8
front_outsideCutPath
10
103.4375
20
6
11
112.8125
21
6
0
LINE
8
front_outsideCutPath
10
112.8125
20
6
11
112.8125
21
3
0
LINE
8
front_outsideCutPath
10
112.8125
20
3
11
122.1875
21
3
0
LINE
8
front_outsideCutPath
10
122.1875
20
3
11
122.1875
21
6
0
LINE
8
front_outsideCutPath
10
122.1875
20
6
11
131.5625
21
6
0
LINE
8
front_outsideCutPath
10
131.5625
20
6
11
131.5625
21
3
0
LINE
8
front_outsideCutPath
10
131.5625
20
3
11
140.9375
21
3
0
LINE
8
front_outsideCutPath
10
140.9375
20
3
11
140.9375
21
6
0
LINE
8
front_outsideCutPath
10
140.9375
20
6
11
150.3125
21
6
0
LINE
8
front_outsideCutPath
10
150.3125
20
6
11
150.3125
21
3
0
LINE
8
front_outsideCutPath
10
150.3125
20
3
11
160
21
3
0
LINE
8
front_outsideCutPath
10
160
20
3
11
160
21
9.5625
0
LINE
8
front_outsideCutPath
10
160
20
9.5625
11
157
21
9.5625
0
LINE
8
front_outsideCutPath
10
157
20
9.5625
11
157
21
18.9375
0
LINE
8
front_outsideCutPath
10
157
20
18.9375
11
160
21
18.9375
0
LINE
8
front_outsideCutPath
10
160
20
18.9375
11
160
21
28.3125
0
LINE
8
front_outsideCutPath
10
160
20
28.3125
11
157
21
28.3125
0
LINE
8
front_outsideCutPath
10
157
20
28.3125
11
157
21
37.6875
0
LINE
8
front_outsideCutPath
10
157
20
37.6875
11
160
21
37.6875
0
LINE
8
front_outsideCutPath
10
160
20
37.6875
11
160
21
47.0625
0
LINE
8
front_outsideCutPath
10
160
20
47.0625
11
157
21
47.0625
0
LINE
8
front_outsideCutPath
10
157
20
47.0625
11
157
21
56.4375
0
LINE
8
front_outsideCutPath
10
157
20
56.4375
11
160
21
56.4375
0
LINE
8
front_outsideCutPath
10
160
20
56.4375
11
160
21
63
0
LINE
8
front_outsideCutPath
10
160
20
63
11
0
21
63
0
LINE
8
left_outsideCutPath
10
166
20
63
11
166
21
56.4375
0
LINE
8
left_outsideCutPath
10
166
20
56.4375
11
163
21
56.4375
0
LINE
8
left_outsideCutPath
10
163
20
56.4375
11
163
21
47.0625
0
LINE
8
left_outsideCutPath
10
163
20
47.0625
11
166
21
47.0625
0
LINE
8
left_outsideCutPath
10
166
20
47.0625
11
166
21
37.6875
0
LINE
8
left_outsideCutPath
10
166
20
37.6875
11
163
21
37.6875
0
LINE
8
left_outsideCutPath
10
163
20
37.6875
11
163
21
28.3125
0
LINE
8
left_outsideCutPath
10
163
20
28.3125
11
166
21
28.3125
0
LINE
8
left_outsideCutPath
10
166
20
28.3125
11
166
21
18.9375
0
LINE
8
left_outsideCutPath
10
166
20
18.9375
11
163
21
18.9375
0
LINE
8
left_outsideCutPath
10
163
20
18.9375
11
163
21
9.5625
0
LINE
8
left_outsideCutPath
10
163
20
9.5625
11
166
21
9.5625
0
LINE
8
left_outsideCutPath
10
166
20
9.5625
11
166
21
3
0
LINE
8
left_outsideCutPath
10
166
20
3
11
177.0625
21
3
0
LINE
8
left_outsideCutPath
10
177.0625
20
3
11
177.0625
21
6
0
LINE
8
left_outsideCutPath
10
177.0625
20
6
11
186.4375
21
6
0
LINE
8
left_outsideCutPath
10
186.4375
20
6
11
186.4375
21
3
0
LINE
8
left_outsideCutPath
10
186.4375
20
3
11
195.8125
21
3
0
LINE
8
left_outsideCutPath
10
195.8125
20
3
11
195.8125
21
6
0
LINE
8
left_outsideCutPath
10
195.8125
20
6
11
205.1875
21
6
0
LINE
8
left_outsideCutPath
10
205.1875
20
6
11
205.1875
21
3
0
LINE
8
left_outsideCutPath
10
205.1875
20
3
11
214.5625
21
3
0
LINE
8
left_outsideCutPath
10
214.5625
20
3
11
214.5625
21
6
0
LINE
8
left_outsideCutPath
10
214.5625
20
6
11
223.9375
21
6
0
LINE
8
left_outsideCutPath
10
223.9375
20
6
11
223.9375
21
3
0
LINE
8
left_outsideCutPath
10
223.9375
20
3
11
233.3125
21
3
0
LINE
8
left_outsideCutPath
10
233.3125
20
3
11
233.3125
21
6
0
LINE
8
left_outsideCutPath
10
233.3125
20
6
11
242.6875
21
6
0
LINE
8
left_outsideCutPath
10
242.6875
20
6
11
242.6875
21
3
0
LINE
8
left_outsideCutPath
10
242.6875
20
3
11
252.0625
21
3
0
LINE
8
left_outsideCutPath
10
252.0625
20
3
11
252.0625
21
6
0
LINE
8
left_outsideCutPath
10
252.0625
20
6
11
261.4375
21
6
0
LINE
8
left_outsideCutPath
10
261.4375
20
6
11
261.4375
21
3
0
LINE
8
left_outsideCutPath
10
261.4375
20
3
11
270.8125
21
3
0
LINE
8
left_outsideCutPath
10
270.8125
20
3
11
270.8125
21
6
0
LINE
8
left_outsideCutPath
10
270.8125
20
6
11
280.1875
21
6
0
LINE
8
left_outsideCutPath
10
280.1875
20
6
11
280.1875
21
3
0
LINE
8
left_outsideCutPath
10
280.1875
20
3
11
289.5625
21
3
0
LINE
8
left_outsideCutPath
10
289.5625
20
3
11
289.5625
21
6
0
LINE
8
left_outsideCutPath
10
289.5625
20
6
11
298.9375
21
6
0
LINE
8
left_outsideCutPath
10
298.9375
20
6
11
298.9375
21
3
0
LINE
8
left_outsideCutPath
10
298.9375
20
3
11
308.3125
21
3
0
LINE
8
left_outsideCutPath
10
308.3125
20
3
11
308.3125
21
6
0
LINE
8
left_outsideCutPath
10
308.3125
20
6
11
317.6875
21
6
0
LINE
8
left_outsideCutPath
10
317.6875
20
6
11
317.6875
21
3
0
LINE
8
left_outsideCutPath
10
317.6875
20
3
11
327.0625
21
3
0
LINE
8
left_outsideCutPath
10
327.0625
20
3
11
327.0625
21
6
0
LINE
8
left_outsideCutPath
10
327.0625
20
6
11
336.4375
21
6
0
LINE
8
left_outsideCutPath
10
336.4375
20
6
11
336.4375
21
3
0
LINE
8
left_outsideCutPath
10
336.4375
20
3
11
345.8125
21
3
0
LINE
8
left_outsideCutPath
10
345.8125
20
3
11
345.8125
21
6
0
LINE
8
left_outsideCutPath
10
345.8125
20
6
11
355.1875
21
6
0
LINE
8
left_outsideCutPath
10
355.1875
20
6
11
355.1875
21
3
0
LINE
8
left_outsideCutPath
10
355.1875
20
3
11
364.5625
21
3
0
LINE
8
left_outsideCutPath
10
364.5625
20
3
11
364.5625
21
6
0
LINE
8
left_outsideCutPath
10
364.5625
20
6
11
373.9375
21
6
0
LINE
8
left_outsideCutPath
10
373.9375
20
6
11
373.9375
21
3
0
LINE
8
left_outsideCutPath
10
373.9375
20
3
11
383.3125
21
3
0
LINE
8
left_outsideCutPath
10
383.3125
20
3
11
383.3125
21
6
0
LINE
8
left_outsideCutPath
10
383.3125
20
6
11
392.6875
21
6
0
LINE
8
left_outsideCutPath
10
392.6875
20
6
11
392.6875
21
3
0
LINE
8
left_outsideCutPath
10
392.6875
20
3
11
402.0625
21
3
0
LINE
8
left_outsideCutPath
10
402.0625
20
3
11
402.0625
21
6
0
LINE
8
left_outsideCutPath
10
402.0625
20
6
11
411.4375
21
6
0
LINE
8
left_outsideCutPath
10
411.4375
20
6
11
411.4375
21
3
0
LINE
8
left_outsideCutPath
10
411.4375
20
3
11
420.8125
21
3
0
LINE
8
left_outsideCutPath
10
420.8125
20
3
11
420.8125
21
6
0
LINE
8
left_outsideCutPath
10
420.8125
20
6
11
430.1875
21
6
0
LINE
8
left_outsideCutPath
10
430.1875
20
6
11
430.1875
21
3
0
LINE
8
left_outsideCutPath
10
430.1875
20
3
11
439.5625
21
3
0
LINE
8
left_outsideCutPath
10
439.5625
20
3
11
439.5625
21
6
0
LINE
8
left_outsideCutPath
10
439.5625
20
6
11
448.9375
21
6
0
LINE
8
left_outsideCutPath
10
448.9375
20
6
11
448.9375
21
3
0
LINE
8
left_outsideCutPath
10
448.9375
20
3
11
460
21
3
0
LINE
8
left_outsideCutPath
10
460
20
3
11
460
21
9.5625
0
LINE
8
left_outsideCutPath
10
460
20
9.5625
11
463
21
9.5625
0
LINE
8
left_outsideCutPath
10
463
20
9.5625
11
463
21
18.9375
0
LINE
8
left_outsideCutPath
10
463
20
18.9375
11
460
21
18.9375
0
LINE
8
left_outsideCutPath
10
460
20
18.9375
11
460
21
28.3125
0
LINE
8
left_outsideCutPath
10
460
20
28.3125
11
463
21
28.3125
0
LINE
8
left_outsideCutPath
10
463
20
28.3125
11
463
21
37.6875
0
LINE
8
left_outsideCutPath
10
463
20
37.6875
11
460
21
37.6875
0
LINE
8
left_outsideCutPath
10
460
20
37.6875
11
460
21
47.0625
0
LINE
8
left_outsideCutPath
10
460
20
47.0625
11
463
21
47.0625
0
LINE
8
left_outsideCutPath
10
463
20
47.0625
11
463
21
56.4375
0
LINE
8
left_outsideCutPath
10
463
20
56.4375
11
460
21
56.4375
0
LINE
8
left_outsideCutPath
10
460
20
56.4375
11
460
21
63
0
LINE
8
left_outsideCutPath
10
460
20
63
11
166
21
63
0
LINE
8
back_outsideCutPath
10
0
20
126
11
0
21
119.4375
0
LINE
8
back_outsideCutPath
10
0
20
119.4375
11
3
21
119.4375
0
LINE
8
back_outsideCutPath
10
3
20
119.4375
11
3
21
110.0625
0
LINE
8
back_outsideCutPath
10
3
20
110.0625
11
0
21
110.0625
0
LINE
8
back_outsideCutPath
10
0
20
110.0625
11
0
21
100.6875
0
LINE
8
back_outsideCutPath
10
0
20
100.6875
11
3
21
100.6875
0
LINE
8
back_outsideCutPath
10
3
20
100.6875
11
3
21
91.3125
0
LINE
8
back_outsideCutPath
10
3
20
91.3125
11
0
21
91.3125
0
LINE
8
back_outsideCutPath
10
0
20
91.3125
11
0
21
81.9375
0
LINE
8
back_outsideCutPath
10
0
20
81.9375
11
3
21
81.9375
0
LINE
8
back_outsideCutPath
10
3
20
81.9375
11
3
21
72.5625
0
LINE
8
back_outsideCutPath
10
3
20
72.5625
11
0
21
72.5625
0
LINE
8
back_outsideCutPath
10
0
20
72.5625
11
0
21
66
0
LINE
8
back_outsideCutPath
10
0
20
66
11
9.6875
21
66
0
LINE
8
back_outsideCutPath
10
9.6875
20
66
11
9.6875
21
69
0
LINE
8
back_outsideCutPath
10
9.6875
20
69
11
19.0625
21
69
0
LINE
8
back_outsideCutPath
10
19.0625
20
69
11
19.0625
21
66
0
LINE
8
back_outsideCutPath
10
19.0625
20
66
11
28.4375
21
66
0
LINE
8
back_outsideCutPath
10
28.4375
20
66
11
28.4375
21
69
0
LINE
8
back_outsideCutPath
10
28.4375
20
69
11
37.8125
21
69
0
LINE
8
back_outsideCutPath
10
37.8125
20
69
11
37.8125
21
66
0
LINE
8
back_outsideCutPath
10
37.8125
20
66
11
47.1875
21
66
0
LINE
8
back_outsideCutPath
10
47.1875
20
66
11
47.1875
21
69
0
LINE
8
back_outsideCutPath
10
47.1875
20
69
11
56.5625
21
69
0
LINE
8
back_outsideCutPath
10
56.5625
20
69
11
56.5625
21
66
0
LINE
8
back_outsideCutPath
10
56.5625
20
66
11
65.9375
21
66
0
LINE
8
back_outsideCutPath
10
65.9375
20
66
11
65.9375
21
69
0
LINE
8
back_outsideCutPath
10
65.9375
20
69
11
75.3125
21
69
0
LINE
8
back_outsideCutPath
10
75.3125
20
69
11
75.3125
21
66
0
LINE
8
back_outsideCutPath
10
75.3125
20
66
11
84.6875
21
66
0
LINE
8
back_outsideCutPath
10
84.6875
20
66
11
84.6875
21
69
0
LINE
8
back_outsideCutPath
10
84.6875
20
69
11
94.0625
21
69
0
LINE
8
back_outsideCutPath
10
94.0625
20
69
11
94.0625
21
66
0
LINE
8
back_outsideCutPath
10
94.0625
20
66
11
103.4375
21
66
0
LINE
8
back_outsideCutPath
10
103.4375
20
66
11
103.4375
21
69
0
LINE
8
back_outsideCutPath
10
103.4375
20
69
11
112.8125
21
69
0
LINE
8
back_outsideCutPath
10
112.8125
20
69
11
112.8125
21
66
0
LINE
8
back_outsideCutPath
10
112.8125
20
66
11
122.1875
21
66
0
LINE
8
back_outsideCutPath
10
122.1875
20
66
11
122.1875
21
69
0
LINE
8
back_outsideCutPath
10
122.1875
20
69
11
131.5625
21
69
0
LINE
8
back_outsideCutPath
10
131.5625
20
69
11
131.5625
21
66
0
LINE
8
back_outsideCutPath
10
131.5625
20
66
11
140.9375
21
66
0
LINE
8
back_outsideCutPath
10
140.9375
20
66
11
140.9375
21
69
0
LINE
8
back_outsideCutPath
10
140.9375
20
69
11
150.3125
21
69
0
LINE
8
back_outsideCutPath
10
150.3125
20
69
11
150.3125
21
66
0
LINE
8
back_outsideCutPath
10
150.3125
20
66
11
160
21
66
0
LINE
8
back_outsideCutPath
10
160
20
66
11
160
21
72.5625
0
LINE
8
back_outsideCutPath
10
160
20
72.5625
11
157
21
72.5625
0
LINE
8
back_outsideCutPath
10
157
20
72.5625
11
157
21
81.9375
0
LINE
8
back_outsideCutPath
10
157
20
81.9375
11
160
21
81.9375
0
LINE
8
back_outsideCutPath
10
160
20
81.9375
11
160
21
91.3125
0
LINE
8
back_outsideCutPath
10
160
20
91.3125
11
157
21
91.3125
0
LINE
8
back_outsideCutPath
10
157
20
91.3125
11
157
21
100.6875
0
LINE
8
back_outsideCutPath
10
157
20
100.6875
11
160
21
100.6875
0
LINE
8
back_outsideCutPath
10
160
20
100.6875
11
160
21
110.0625
0
LINE
8
back_outsideCutPath
10
160
20
110.0625
11
157
21
110.0625
0
LINE
8
back_outsideCutPath
10
157
20
110.0625
11
157
21
119.4375
0
LINE
8
back_outsideCutPath
10
157
20
119.4375
11
160
21
119.4375
0
LINE
8
back_outsideCutPath
10
160
20
119.4375
11
160
21
126
0
LINE
8
back_outsideCutPath
10
160
20
126
11
0
21
126
0
LINE
8
right_outsideCutPath
10
166
20
126
11
166
21
119.4375
0
LINE
8
right_outsideCutPath
10
166
20
119.4375
11
163
21
119.4375
0
LINE
8
right_outsideCutPath
10
163
20
119.4375
11
163
21
110.0625
0
LINE
8
right_outsideCutPath
10
163
20
110.0625
11
166
21
110.0625
0
LINE
8
right_outsideCutPath
10
166
20
110.0625
11
166
21
100.6875
0
LINE
8
right_outsideCutPath
10
166
20
100.6875
11
163
21
100.6875
0
LINE
8
right_outsideCutPath
10
163
20
100.6875
11
163
21
91.3125
0
LINE
8
right_outsideCutPath
10
163
20
91.3125
11
166
21
91.3125
0
LINE
8
right_outsideCutPath
10
166
20
91.3125
11
166
21
81.9375
0
LINE
8
right_outsideCutPath
10
166
20
81.9375
11
163
21
81.9375
0
LINE
8
right_outsideCutPath
10
163
20
81.9375
11
163
21
72.5625
0
LINE
8
right_outsideCutPath
10
163
20
72.5625
11
166
21
72.5625
0
LINE
8
right_outsideCutPath
10
166
20
72.5625
11
166
21
66
0
LINE
8
right_outsideCutPath
10
166
20
66
11
177.0625
21
66
0
LINE
8
right_outsideCutPath
10
177.0625
20
66
11
177.0625
21
69
0
LINE
8
right_outsideCutPath
10
177.0625
20
69
11
186.4375
21
69
0
LINE
8
right_outsideCutPath
10
186.4375
20
69
11
186.4375
21
66
0
LINE
8
right_outsideCutPath
10
186.4375
20
66
11
195.8125
21
66
0
LINE
8
right_outsideCutPath
10
195.8125
20
66
11
195.8125
21
69
0
LINE
8
right_outsideCutPath
10
195.8125
20
69
11
205.1875
21
69
0
LINE
8
right_outsideCutPath
10
205.1875
20
69
11
205.1875
21
66
0
LINE
8
right_outsideCutPath
10
205.1875
20
66
11
214.5625
21
66
0
LINE
8
right_outsideCutPath
10
214.5625
20
66
11
214.5625
21
69
0
LINE
8
right_outsideCutPath
10
214.5625
20
69
11
223.9375
21
69
0
LINE
8
right_outsideCutPath
10
223.9375
20
69
11
223.9375
21
66
0
LINE
8
right_outsideCutPath
10
223.9375
20
66
11
233.3125
21
66
0
LINE
8
right_outsideCutPath
10
233.3125
20
66
11
233.3125
21
69
0
LINE
8
right_outsideCutPath
10
233.3125
20
69
11
242.6875
21
69
0
LINE
8
right_outsideCutPath
10
242.6875
20
69
11
242.6875
21
66
0
LINE
8
right_outsideCutPath
10
242.6875
20
66
11
252.0625
21
66
0
LINE
8
right_outsideCutPath
10
252.0625
20
66
11
252.0625
21
69
0
LINE
8
right_outsideCutPath
10
252.0625
20
69
11
261.4375
21
69
0
LINE
8
right_outsideCutPath
10
261.4375
20
69
11
261.4375
21
66
0
LINE
8
right_outsideCutPath
10
261.4375
20
66
11
270.8125
21
66
0
LINE
8
right_outsideCutPath
10
270.8125
20
66
11
270.8125
21
69
0
LINE
8
right_outsideCutPath
10
270.8125
20
69
11
280.1875
21
69
0
LINE
8
right_outsideCutPath
10
280.1875
20
69
11
280.1875
21
66
0
LINE
8
right_outsideCutPath
10
280.1875
20
66
11
289.5625
21
66
0
LINE
8
right_outsideCutPath
10
289.5625
20
66
11
289.5625
21
69
0
LINE
8
right_outsideCutPath
10
289.5625
20
69
11
298.9375
21
69
0
LINE
8
right_outsideCutPath
10
298.9375
20
69
11
298.9375
21
66
0
LINE
8
right_outsideCutPath
10
298.9375
20
66
11
308.3125
21
66
0
LINE
8
right_outsideCutPath
10
308.3125
20
66
11
308.3125
21
69
0
LINE
8
right_outsideCutPath
10
308.3125
20
69
11
317.6875
21
69
0
LINE
8
right_outsideCutPath
10
317.6875
20
69
11
317.6875
21
66
0
LINE
8
right_outsideCutPath
10
317.6875
20
66
11
327.0625
21
66
0
LINE
8
right_outsideCutPath
10
327.0625
20
66
11
327.0625
21
69
0
LINE
8
right_outsideCutPath
10
327.0625
20
69
11
336.4375
21
69
0
LINE
8
right_outsideCutPath
10
336.4375
20
69
11
336.4375
21
66
0
LINE
8
right_outsideCutPath
10
336.4375
20
66
11
345.8125
21
66
0
LINE
8
right_outsideCutPath
10
345.8125
20
66
11
345.8125
21
69
0
LINE
8
right_outsideCutPath
10
345.8125
20
69
11
355.1875
21
69
0
LINE
8
right_outsideCutPath
10
355.1875
20
69
11
355.1875
21
66
0
LINE
8
right_outsideCutPath
10
355.1875
20
66
11
364.5625
21
66
0
LINE
8
right_outsideCutPath
10
364.5625
20
66
11
364.5625
21
69
0
LINE
8
right_outsideCutPath
10
364.5625
20
69
11
373.9375
21
69
0
LINE
8
right_outsideCutPath
10
373.9375
20
69
11
373.9375
21
66
0
LINE
8
right_outsideCutPath
10
373.9375
20
66
11
383.3125
21
66
0
LINE
8
right_outsideCutPath
10
383.3125
20
66
11
383.3125
21
69
0
LINE
8
right_outsideCutPath
10
383.3125
20
69
11
392.6875
21
69
0
LINE
8
right_outsideCutPath
10
392.6875
20
69
11
392.6875
21
66
0
LINE
8
right_outsideCutPath
10
392.6875
20
66
11
402.0625
21
66
0
LINE
8
right_outsideCutPath
10
402.0625
20
66
11
402.0625
21
69
0
LINE
8
right_outsideCutPath
10
402.0625
20
69
11
411.4375
21
69
0
LINE
8
right_outsideCutPath
10
411.4375
20
69
11
411.4375
21
66
0
LINE
8
right_outsideCutPath
10
411.4375
20
66
11
420.8125
21
66
0
LINE
8
right_outsideCutPath
10
420.8125
20
66
11
420.8125
21
69
0
LINE
8
right_outsideCutPath
10
420.8125
20
69
11
430.1875
21
69
0
LINE
8
right_outsideCutPath
10
430.1875
20
69
11
430.1875
21
66
0
LINE
8
right_outsideCutPath
10
430.1875
20
66
11
439.5625
21
66
0
LINE
8
right_outsideCutPath
10
439.5625
20
66
11
439.5625
21
69
0
LINE
8
right_outsideCutPath
10
439.5625
20
69
11
448.9375
21
69
0
LINE
8
right_outsideCutPath
10
448.9375
20
69
11
448.9375
21
66
0
LINE
8
right_outsideCutPath
10
448.9375
20
66
11
460
21
66
0
LINE
8
right_outsideCutPath
10
460
20
66
11
460
21
72.5625
0
LINE
8
right_outsideCutPath
10
460
20
72.5625
11
463
21
72.5625
0
LINE
8
right_outsideCutPath
10
463
20
72.5625
11
463
21
81.9375
0
LINE
8
right_outsideCutPath
10
463
20
81.9375
11
460
21
81.9375
0
LINE
8
right_outsideCutPath
10
460
20
81.9375
11
460
21
91.3125
0
LINE
8
right_outsideCutPath
10
460
20
91.3125
11
463
21
91.3125
0
LINE
8
right_outsideCutPath
10
463
20
91.3125
11
463
21
100.6875
0
LINE
8
right_outsideCutPath
10
463
20
100.6875
11
460
21
100.6875
0
LINE
8
right_outsideCutPath
10
460
20
100.6875
11
460
21
110.0625
0
LINE
8
right_outsideCutPath
10
460
20
110.0625
11
463
21
110.0625
0
LINE
8
right_outsideCutPath
10
463
20
110.0625
11
463
21
119.4375
0
LINE
8
right_outsideCutPath
10
463
20
119.4375
11
460
21
119.4375
0
LINE
8
right_outsideCutPath
10
460
20
119.4375
11
460
21
126
0
LINE
8
right_outsideCutPath
10
460
20
126
11
166
21
126
0
LINE
8
bottom_outsideCutPath
10
469
20
300
11
469
21
288.9375
0
LINE
8
bottom_outsideCutPath
10
469
20
288.9375
11
466
21
288.9375
0
LINE
8
bottom_outsideCutPath
10
466
20
288.9375
11
466
21
279.5625
0
LINE
8
bottom_outsideCutPath
10
466
20
279.5625
11
469
21
279.5625
0
LINE
8
bottom_outsideCutPath
10
469
20
279.5625
11
469
21
270.1875
0
LINE
8
bottom_outsideCutPath
10
469
20
270.1875
11
466
21
270.1875
0
LINE
8
bottom_outsideCutPath
10
466
20
270.1875
11
466
21
260.8125
0
LINE
8
bottom_outsideCutPath
10
466
20
260.8125
11
469
21
260.8125
0
LINE
8
bottom_outsideCutPath
10
469
20
260.8125
11
469
21
251.4375
0
LINE
8
bottom_outsideCutPath
10
469
20
251.4375
11
466
21
251.4375
0
LINE
8
bottom_outsideCutPath
10
466
20
251.4375
11
466
21
242.0625
0
LINE
8
bottom_outsideCutPath
10
466
20
242.0625
11
469
21
242.0625
0
LINE
8
bottom_outsideCutPath
10
469
20
242.0625
11
469
21
232.6875
0
LINE
8
bottom_outsideCutPath
10
469
20
232.6875
11
466
21
232.6875
0
LINE
8
bottom_outsideCutPath
10
466
20
232.6875
11
466
21
223.3125
0
LINE
8
bottom_outsideCutPath
10
466
20
223.3125
11
469
21
223.3125
0
LINE
8
bottom_outsideCutPath
10
469
20
223.3125
11
469
21
213.9375
0
LINE
8
bottom_outsideCutPath
10
469
20
213.9375
11
466
21
213.9375
0
LINE
8
bottom_outsideCutPath
10
466
20
213.9375
11
466
21
204.5625
0
LINE
8
bottom_outsideCutPath
10
466
20
204.5625
11
469
21
204.5625
0
LINE
8
bottom_outsideCutPath
10
469
20
204.5625
11
469
21
195.1875
0
LINE
8
bottom_outsideCutPath
10
469
20
195.1875
11
466
21
195.1875
0
LINE
8
bottom_outsideCutPath
10
466
20
195.1875
11
466
21
185.8125
0
LINE
8
bottom_outsideCutPath
10
466
20
185.8125
11
469
21
185.8125
0
LINE
8
bottom_outsideCutPath
10
469
20
185.8125
11
469
21
176.4375
0
LINE
8
bottom_outsideCutPath
10
469
20
176.4375
11
466
21
176.4375
0
LINE
8
bottom_outsideCutPath
10
466
20
176.4375
11
466
21
167.0625
0
LINE
8
bottom_outsideCutPath
10
466
20
167.0625
11
469
21
167.0625
0
LINE
8
bottom_outsideCutPath
10
469
20
167.0625
11
469
21
157.6875
0
LINE
8
bottom_outsideCutPath
10
469
20
157.6875
11
466
21
157.6875
0
LINE
8
bottom_outsideCutPath
10
466
20
157.6875
11
466
21
148.3125
0
LINE
8
bottom_outsideCutPath
10
466
20
148.3125
11
469
21
148.3125
0
LINE
8
bottom_outsideCutPath
10
469
20
148.3125
11
469
21
138.9375
0
LINE
8
bottom_outsideCutPath
10
469
20
138.9375
11
466
21
138.9375
0
LINE
8
bottom_outsideCutPath
10
466
20
138.9375
11
466
21
129.5625
0
LINE
8
bottom_outsideCutPath
10
466
20
129.5625
11
469
21
129.5625
0
LINE
8
bottom_outsideCutPath
10
469
20
129.5625
11
469
21
120.1875
0
LINE
8
bottom_outsideCutPath
10
469
20
120.1875
11
466
21
120.1875
0
LINE
8
bottom_outsideCutPath
10
466
20
120.1875
11
466
21
110.8125
0
LINE
8
bottom_outsideCutPath
10
466
20
110.8125
11
469
21
110.8125
0
LINE
8
bottom_outsideCutPath
10
469
20
110.8125
11
469
21
101.4375
0
LINE
8
bottom_outsideCutPath
10
469
20
101.4375
11
466
21
101.4375
0
LINE
8
bottom_outsideCutPath
10
466
20
101.4375
11
466
21
92.0625
0
LINE
8
bottom_outsideCutPath
10
466
20
92.0625
11
469
21
92.0625
0
LINE
8
bottom_outsideCutPath
10
469
20
92.0625
11
469
21
82.6875
0
LINE
8
bottom_outsideCutPath
10
469
20
82.6875
11
466
21
82.6875
0
LINE
8
bottom_outsideCutPath
10
466
20
82.6875
11
466
21
73.3125
0
LINE
8
bottom_outsideCutPath
10
466
20
73.3125
11
469
21
73.3125
0
LINE
8
bottom_outsideCutPath
10
469
20
73.3125
11
469
21
63.9375
0
LINE
8
bottom_outsideCutPath
10
469
20
63.9375
11
466
21
63.9375
0
LINE
8
bottom_outsideCutPath
10
466
20
63.9375
11
466
21
54.5625
0
LINE
8
bottom_outsideCutPath
10
466
20
54.5625
11
469
21
54.5625
0
LINE
8
bottom_outsideCutPath
10
469
20
54.5625
11
469
21
45.1875
0
LINE
8
bottom_outsideCutPath
10
469
20
45.1875
11
466
21
45.1875
0
LINE
8
bottom_outsideCutPath
10
466
20
45.1875
11
466
21
35.8125
0
LINE
8
bottom_outsideCutPath
10
466
20
35.8125
11
469
21
35.8125
0
LINE
8
bottom_outsideCutPath
10
469
20
35.8125
11
469
21
26.4375
0
LINE
8
bottom_outsideCutPath
10
469
20
26.4375
11
466
21
26.4375
0
LINE
8
bottom_outsideCutPath
10
466
20
26.4375
11
466
21
17.0625
0
LINE
8
bottom_outsideCutPath
10
466
20
17.0625
11
469
21
17.0625
0
LINE
8
bottom_outsideCutPath
10
469
20
17.0625
11
469
21
6
0
LINE
8
bottom_outsideCutPath
10
469
20
6
11
475.6875
21
6
0
LINE
8
bottom_outsideCutPath
10
475.6875
20
6
11
475.6875
21
3
0
LINE
8
bottom_outsideCutPath
10
475.6875
20
3
11
485.0625
21
3
0
LINE
8
bottom_outsideCutPath
10
485.0625
20
3
11
485.0625
21
6
0
LINE
8
bottom_outsideCutPath
10
485.0625
20
6
11
494.4375
21
6
0
LINE
8
bottom_outsideCutPath
10
494.4375
20
6
11
494.4375
21
3
0
LINE
8
bottom_outsideCutPath
10
494.4375
20
3
11
503.8125
21
3
0
LINE
8
bottom_outsideCutPath
10
503.8125
20
3
11
503.8125
21
6
0
LINE
8
bottom_outsideCutPath
10
503.8125
20
6
11
513.1875
21
6
0
LINE
8
bottom_outsideCutPath
10
513.1875
20
6
11
513.1875
21
3
0
LINE
8
bottom_outsideCutPath
10
513.1875
20
3
11
522.5625
21
3
0
LINE
8
bottom_outsideCutPath
10
522.5625
20
3
11
522.5625
21
6
0
LINE
8
bottom_outsideCutPath
10
522.5625
20
6
11
531.9375
21
6
0
LINE
8
bottom_outsideCutPath
10
531.9375
20
6
11
531.9375
21
3
0
LINE
8
bottom_outsideCutPath
10
531.9375
20
3
11
541.3125
21
3
0
LINE
8
bottom_outsideCutPath
10
541.3125
20
3
11
541.3125
21
6
0
LINE
8
bottom_outsideCutPath
10
541.3125
20
6
11
550.6875
21
6
0
LINE
8
bottom_outsideCutPath
10
550.6875
20
6
11
550.6875
21
3
0
LINE
8
bottom_outsideCutPath
10
550.6875
20
3
11
560.0625
21
3
0
LINE
8
bottom_outsideCutPath
10
560.0625
20
3
11
560.0625
21
6
0
LINE
8
bottom_outsideCutPath
10
560.0625
20
6
11
569.4375
21
6
0
LINE
8
bottom_outsideCutPath
10
569.4375
20
6
11
569.4375
21
3
0
LINE
8
bottom_outsideCutPath
10
569.4375
20
3
11
578.8125
21
3
0
LINE
8
bottom_outsideCutPath
10
578.8125
20
3
11
578.8125
21
6
0
LINE
8
bottom_outsideCutPath
10
578.8125
20
6
11
588.1875
21
6
0
LINE
8
bottom_outsideCutPath
10
588.1875
20
6
11
588.1875
21
3
0
LINE
8
bottom_outsideCutPath
10
588.1875
20
3
11
597.5625
21
3
0
LINE
8
bottom_outsideCutPath
10
597.5625
20
3
11
597.5625
21
6
0
LINE
8
bottom_outsideCutPath
10
597.5625
20
6
11
606.9375
21
6
0
LINE
8
bottom_outsideCutPath
10
606.9375
20
6
11
606.9375
21
3
0
LINE
8
bottom_outsideCutPath
10
606.9375
20
3
11
616.3125
21
3
0
LINE
8
bottom_outsideCutPath
10
616.3125
20
3
11
616.3125
21
6
0
LINE
8
bottom_outsideCutPath
10
616.3125
20
6
11
623
21
6
0
LINE
8
bottom_outsideCutPath
10
623
20
6
11
623
21
17.0625
0
LINE
8
bottom_outsideCutPath
10
623
20
17.0625
11
626
21
17.0625
0
LINE
8
bottom_outsideCutPath
10
626
20
17.0625
11
626
21
26.4375
0
LINE
8
bottom_outsideCutPath
10
626
20
26.4375
11
623
21
26.4375
0
LINE
8
bottom_outsideCutPath
10
623
20
26.4375
11
623
21
35.8125
0
LINE
8
bottom_outsideCutPath
10
623
20
35.8125
11
626
21
35.8125
0
LINE
8
bottom_outsideCutPath
10
626
20
35.8125
11
626
21
45.1875
0
LINE
8
bottom_outsideCutPath
10
626
20
45.1875
11
623
21
45.1875
0
LINE
8
bottom_outsideCutPath
10
623
20
45.1875
11
623
21
54.5625
0
LINE
8
bottom_outsideCutPath
10
623
20
54.5625
11
626
21
54.5625
0
LINE
8
bottom_outsideCutPath
10
626
20
54.5625
11
626
21
63.9375
0
LINE
8
bottom_outsideCutPath
10
626
20
63.9375
11
623
21
63.9375
0
LINE
8
bottom_outsideCutPath
10
623
20
63.9375
11
623
21
73.3125
0
LINE
8
bottom_outsideCutPath
10
623
20
73.3125
11
626
21
73.3125
0
LINE
8
bottom_outsideCutPath
10
626
20
73.3125
11
626
21
82.6875
0
LINE
8
bottom_outsideCutPath
10
626
20
82.6875
11
623
21
82.6875
0
LINE
8
bottom_outsideCutPath
10
623
20
82.6875
11
623
21
92.0625
0
LINE
8
bottom_outsideCutPath
10
623
20
92.0625
11
626
21
92.0625
0
LINE
8
bottom_outsideCutPath
10
626
20
92.0625
11
626
21
101.4375
0
LINE
8
bottom_outsideCutPath
10
626
20
101.4375
11
623
21
101.4375
0
LINE
8
bottom_outsideCutPath
10
623
20
101.4375
11
623
21
110.8125
0
LINE
8
bottom_outsideCutPath
10
623
20
110.8125
11
626
21
110.8125
0
LINE
8
bottom_outsideCutPath
10
626
20
110.8125
11
626
21
120.1875
0
LINE
8
bottom_outsideCutPath
10
626
20
120.1875
11
623
21
120.1875
0
LINE
8
bottom_outsideCutPath
10
623
20
120.1875
11
623
21
129.5625
0
LINE
8
bottom_outsideCutPath
10
623
20
129.5625
11
626
21
129.5625
0
LINE
8
bottom_outsideCutPath
10
626
20
129.5625
11
626
21
138.9375
0
LINE
8
bottom_outsideCutPath
10
626
20
138.9375
11
623
21
138.9375
0
LINE
8
bottom_outsideCutPath
10
623
20
138.9375
11
623
21
148.3125
0
LINE
8
bottom_outsideCutPath
10
623
20
148.3125
11
626
21
148.3125
0
LINE
8
bottom_outsideCutPath
10
626
20
148.3125
11
626
21
157.6875
0
LINE
8
bottom_outsideCutPath
10
626
20
157.6875
11
623
21
157.6875
0
LINE
8
bottom_outsideCutPath
10
623
20
157.6875
11
623
21
167.0625
0
LINE
8
bottom_outsideCutPath
10
623
20
167.0625
11
626
21
167.0625
0
LINE
8
bottom_outsideCutPath
10
626
20
167.0625
11
626
21
176.4375
0
LINE
8
bottom_outsideCutPath
10
626
20
176.4375
11
623
21
176.4375
0
LINE
8
bottom_outsideCutPath
10
623
20
176.4375
11
623
21
185.8125
0
LINE
8
bottom_outsideCutPath
10
623
20
185.8125
11
626
21
185.8125
0
LINE
8
bottom_outsideCutPath
10
626
20
185.8125
11
626
21
195.1875
0
LINE
8
bottom_outsideCutPath
10
626
20
195.1875
11
623
21
195.1875
0
LINE
8
bottom_outsideCutPath
10
623
20
195.1875
11
623
21
204.5625
0
LINE
8
bottom_outsideCutPath
10
623
20
204.5625
11
626
21
204.5625
0
LINE
8
bottom_outsideCutPath
10
626
20
204.5625
11
626
21
213.9375
0
LINE
8
bottom_outsideCutPath
10
626
20
213.9375
11
623
21
213.9375
0
LINE
8
bottom_outsideCutPath
10
623
20
213.9375
11
623
21
223.3125
0
LINE
8
bottom_outsideCutPath
10
623
20
223.3125
11
626
21
223.3125
0
LINE
8
bottom_outsideCutPath
10
626
20
223.3125
11
626
21
232.6875
0
LINE
8
bottom_outsideCutPath
10
626
20
232.6875
11
623
21
232.6875
0
LINE
8
bottom_outsideCutPath
10
623
20
232.6875
11
623
21
242.0625
0
LINE
8
bottom_outsideCutPath
10
623
20
242.0625
11
626
21
242.0625
0
LINE
8
bottom_outsideCutPath
10
626
20
242.0625
11
626
21
251.4375
0
LINE
8
bottom_outsideCutPath
10
626
20
251.4375
11
623
21
251.4375
0
LINE
8
bottom_outsideCutPath
10
623
20
251.4375
11
623
21
260.8125
0
LINE
8
bottom_outsideCutPath
10
623
20
260.8125
11
626
21
260.8125
0
LINE
8
bottom_outsideCutPath
10
626
20
260.8125
11
626
21
270.1875
0
LINE
8
bottom_outsideCutPath
10
626
20
270.1875
11
623
21
270.1875
0
LINE
8
bottom_outsideCutPath
10
623
20
270.1875
11
623
21
279.5625
0
LINE
8
bottom_outsideCutPath
10
623
20
279.5625
11
626
21
279.5625
0
LINE
8
bottom_outsideCutPath
10
626
20
279.5625
11
626
21
288.9375
0
LINE
8
bottom_outsideCutPath
10
626
20
288.9375
11
623
21
288.9375
0
LINE
8
bottom_outsideCutPath
10
623
20
288.9375
11
623
21
300
0
LINE
8
bottom_outsideCutPath
10
623
20
300
11
616.3125
21
300
0
LINE
8
bottom_outsideCutPath
10
616.3125
20
300
11
616.3125
21
303
0
LINE
8
bottom_outsideCutPath
10
616.3125
20
303
11
606.9375
21
303
0
LINE
8
bottom_outsideCutPath
10
606.9375
20
303
11
606.9375
21
300
0
LINE
8
bottom_outsideCutPath
10
606.9375
20
300
11
597.5625
21
300
0
LINE
8
bottom_outsideCutPath
10
597.5625
20
300
11
597.5625
21
303
0
LINE
8
bottom_outsideCutPath
10
597.5625
20
303
11
588.1875
21
303
0
LINE
8
bottom_outsideCutPath
10
588.1875
20
303
11
588.1875
21
300
0
LINE
8
bottom_outsideCutPath
10
588.1875
20
300
11
578.8125
21
300
0
LINE
8
bottom_outsideCutPath
10
578.8125
20
300
11
578.8125
21
303
0
LINE
8
bottom_outsideCutPath
10
578.8125
20
303
11
569.4375
21
303
0
LINE
8
bottom_outsideCutPath
10
569.4375
20
303
11
569.4375
21
300
0
LINE
8
bottom_outsideCutPath
10
569.4375
20
300
11
560.0625
21
300
0
LINE
8
bottom_outsideCutPath
10
560.0625
20
300
11
560.0625
21
303
0
LINE
8
bottom_outsideCutPath
10
560.0625
20
303
11
550.6875
21
303
0
LINE
8
bottom_outsideCutPath
10
550.6875
20
303
11
550.6875
21
300
0
LINE
8
bottom_outsideCutPath
10
550.6875
20
300
11
541.3125
21
300
0
LINE
8
bottom_outsideCutPath
10
541.3125
20
300
11
541.3125
21
303
0
LINE
8
bottom_outsideCutPath
10
541.3125
20
303
11
531.9375
21
303
0
LINE
8
bottom_outsideCutPath
10
531.9375
20
303
11
531.9375
21
300
0
LINE
8
bottom_outsideCutPath
10
531.9375
20
300
11
522.5625
21
300
0
LINE
8
bottom_outsideCutPath
10
522.5625
20
300
11
522.5625
21
303
0
LINE
8
bottom_outsideCutPath
10
522.5625
20
303
11
513.1875
21
303
0
LINE
8
bottom_outsideCutPath
10
513.1875
20
303
11
513.1875
21
300
0
LINE
8
bottom_outsideCutPath
10
513.1875
20
300
11
503.8125
21
300
0
LINE
8
bottom_outsideCutPath
10
503.8125
20
300
11
503.8125
21
303
0
LINE
8
bottom_outsideCutPath
10
503.8125
20
303
11
494.4375
21
303
0
LINE
8
bottom_outsideCutPath
10
494.4375
20
303
11
494.4375
21
300
0
LINE
8
bottom_outsideCutPath
10
494.4375
20
300
11
485.0625
21
300
0
LINE
8
bottom_outsideCutPath
10
485.0625
20
300
11
485.0625
21
303
0
LINE
8
bottom_outsideCutPath
10
485.0625
20
303
11
475.6875
21
303
0
LINE
8
bottom_outsideCutPath
10
475.6875
20
303
11
475.6875
21
300
0
LINE
8
bottom_outsideCutPath
10
475.6875
20
300
11
469
21
300
0
ENDSEC
0
EOF