0
SECTION
2
HEADER
9
$INSUNITS
70
4
9
$ACADVER
1
AC1014
9
$HANDSEED
5
FFFF
0
ENDSEC
0
SECTION
2
TABLES
0
TABLE
2
VPORT
5
8
100
AcDbSymbolTable
0
ENDTAB
0
TABLE
2
LTYPE
5
5
100
AcDbSymbolTable
0
LTYPE
5
14
100
AcDbSymbolTableRecord
100
AcDbLinetypeTableRecord
2
BYBLOCK
70
0
0
LTYPE
5
15
100
AcDbSymbolTableRecord
100
AcDbLinetypeTableRecord
2
BYLAYER
70
0
0
ENDTAB
0
TABLE
2
LAYER
5
2
100
AcDbSymbolTable
70
2
0
LAYER
5
50
100
AcDbSymbolTableRecord
100
AcDbLayerTableRecord
2
0
70
0
6
CONTINUOUS
0
ENDTAB
0
TABLE
2
STYLE
5
3
100
AcDbSymbolTable
70
1
0
STYLE
5
11
100
AcDbSymbolTableRecord
100
AcDbTextStyleTableRecord
2
STANDARD
70
0
0
ENDTAB
0
TABLE
2
VIEW
5
6
100
AcDbSymbolTable
70
0
0
ENDTAB
0
TABLE
2
UCS
5
7
100
AcDbSymbolTable
70
0
0
ENDTAB
0
TABLE
2
APPID
5
9
100
AcDbSymbolTable
70
2
0
APPID
5
12
100
AcDbSymbolTableRecord
100
AcDbRegAppTableRecord
2
ACAD
70
0
0
ENDTAB
0
TABLE
2
DIMSTYLE
5
A
100
AcDbSymbolTable
70
1
0
ENDTAB
0
TABLE
2
BLOCK_RECORD
5
1
100
AcDbSymbolTable
70
1
0
BLOCK_RECORD
5
1F
100
AcDbSymbolTableRecord
100
AcDbBlockTableRecord
2
*MODEL_SPACE
0
BLOCK_RECORD
5
1B
100
AcDbSymbolTableRecord
100
AcDbBlockTableRecord
2
*PAPER_SPACE
0
ENDTAB
0
ENDSEC
0
SECTION
2
BLOCKS
0
BLOCK
5
20
100
AcDbEntity
100
AcDbBlockBegin
2
*MODEL_SPACE
0
ENDBLK
5
21
100
AcDbEntity
100
AcDbBlockEnd
0
BLOCK
5
1C
100
AcDbEntity
100
AcDbBlockBegin
2
*PAPER_SPACE
0
ENDBLK
5
1D
100
AcDbEntity
100
AcDbBlockEnd
0
ENDSEC
0
SECTION
2
ENTITIES
0
CIRCLE
5
100
100
AcDbEntity
8
0
100
AcDbCircle
10
-21.525613654845351
20
-18.023807122030835
30
0
40
1.5000000000000036
210
0
220
0
230
1
0
CIRCLE
5
101
100
AcDbEntity
8
0
100
AcDbCircle
10
-58.649000000000456
20
31.794793888527572
30
0
40
1.5000000000000036
210
0
220
0
230
1
0
CIRCLE
5
102
100
AcDbEntity
8
0
100
AcDbCircle
10
59.499999999999922
20
-46.500000000000071
30
0
40
1.5000000000000036
210
0
220
0
230
1
0
CIRCLE
5
103
100
AcDbEntity
8
0
100
AcDbCircle
10
-58.649000000000093
20
-31.794793888527582
30
0
40
1.5000000000000036
210
0
220
0
230
1
0
CIRCLE
5
104
100
AcDbEntity
8
0
100
AcDbCircle
10
-58.525613654845394
20
18.97619287796924
30
0
40
1.5000000000000036
210
0
220
0
230
1
0
CIRCLE
5
105
100
AcDbEntity
8
0
100
AcDbCircle
10
20.499999999999929
20
-46.500000000000071
30
0
40
1.5000000000000036
210
0
220
0
230
1
0
LWPOLYLINE
5
106
100
AcDbEntity
8
0
100
AcDbPolyline
90
44
70
1
43
0.0
10
-89.999999999999972
20
11.399999999999979
10
-87.000000000000043
20
11.399999999999979
10
-87.000000000000043
20
-11.400000000000023
10
-89.999999999999972
20
-11.400000000000023
10
-89.999999999999972
20
-34.200000000000024
10
-87.000000000000043
20
-34.200000000000024
10
-86.999999999999957
20
-56.999999999999972
10
-62.142857142857082
20
-57.000000000000028
10
-62.142857142857082
20
-59.999999999999972
10
-37.285714285714242
20
-59.999999999999972
10
-37.285714285714242
20
-57.000000000000028
10
-12.428571428571384
20
-57.000000000000028
10
-12.428571428571384
20
-59.999999999999972
10
12.428571428571473
20
-59.999999999999972
10
12.428571428571473
20
-57.000000000000028
10
37.285714285714313
20
-57.000000000000028
10
37.285714285714313
20
-59.999999999999972
10
62.142857142857167
20
-59.999999999999972
10
62.142857142857167
20
-57.000000000000028
10
87.000000000000028
20
-56.999999999999993
10
87.000000000000028
20
-34.200000000000024
10
89.999999999999972
20
-34.200000000000024
10
89.999999999999972
20
-11.400000000000023
10
87.000000000000028
20
-11.400000000000023
10
87.000000000000028
20
11.399999999999979
10
89.999999999999972
20
11.399999999999979
10
89.999999999999972
20
34.199999999999982
10
87.000000000000028
20
34.199999999999982
10
87.000000000000028
20
57.000000000000021
10
62.142857142857167
20
57.000000000000021
10
62.142857142857167
20
59.999999999999964
10
37.285714285714313
20
59.999999999999964
10
37.285714285714313
20
57.000000000000021
10
12.428571428571473
20
57.000000000000021
10
12.428571428571473
20
59.999999999999964
10
-12.428571428571384
20
59.999999999999964
10
-12.428571428571384
20
57.000000000000021
10
-37.285714285714242
20
57.000000000000021
10
-37.285714285714242
20
59.999999999999964
10
-62.142857142857082
20
59.999999999999964
10
-62.142857142857082
20
57.000000000000021
10
-86.999999999999957
20
57.000000000000014
10
-87.000000000000043
20
34.199999999999982
10
-89.999999999999972
20
34.199999999999982
0
ENDSEC
0
SECTION
2
OBJECTS
0
DICTIONARY
5
C
100
AcDbDictionary
3
ACAD_GROUP
350
D
3
ACAD_MLINESTYLE
350
17
0
DICTIONARY
5
D
100
AcDbDictionary
0
DICTIONARY
5
1A
330
C
100
AcDbDictionary
0
DICTIONARY
5
17
100
AcDbDictionary
0
ENDSEC
0
EOF
