0
SECTION
2
HEADER
9
$INSUNITS
70
4
9
$ACADVER
1
AC1014
9
$HANDSEED
5
FFFF
0
ENDSEC
0
SECTION
2
TABLES
0
TABLE
2
VPORT
5
8
100
AcDbSymbolTable
0
ENDTAB
0
TABLE
2
LTYPE
5
5
100
AcDbSymbolTable
0
LTYPE
5
14
100
AcDbSymbolTableRecord
100
AcDbLinetypeTableRecord
2
BYBLOCK
70
0
0
LTYPE
5
15
100
AcDbSymbolTableRecord
100
AcDbLinetypeTableRecord
2
BYLAYER
70
0
0
ENDTAB
0
TABLE
2
LAYER
5
2
100
AcDbSymbolTable
70
2
0
LAYER
5
50
100
AcDbSymbolTableRecord
100
AcDbLayerTableRecord
2
0
70
0
6
CONTINUOUS
0
ENDTAB
0
TABLE
2
STYLE
5
3
100
AcDbSymbolTable
70
1
0
STYLE
5
11
100
AcDbSymbolTableRecord
100
AcDbTextStyleTableRecord
2
STANDARD
70
0
0
ENDTAB
0
TABLE
2
VIEW
5
6
100
AcDbSymbolTable
70
0
0
ENDTAB
0
TABLE
2
UCS
5
7
100
AcDbSymbolTable
70
0
0
ENDTAB
0
TABLE
2
APPID
5
9
100
AcDbSymbolTable
70
2
0
APPID
5
12
100
AcDbSymbolTableRecord
100
AcDbRegAppTableRecord
2
ACAD
70
0
0
ENDTAB
0
TABLE
2
DIMSTYLE
5
A
100
AcDbSymbolTable
70
1
0
ENDTAB
0
TABLE
2
BLOCK_RECORD
5
1
100
AcDbSymbolTable
70
1
0
BLOCK_RECORD
5
1F
100
AcDbSymbolTableRecord
100
AcDbBlockTableRecord
2
*MODEL_SPACE
0
BLOCK_RECORD
5
1B
100
AcDbSymbolTableRecord
100
AcDbBlockTableRecord
2
*PAPER_SPACE
0
ENDTAB
0
ENDSEC
0
SECTION
2
BLOCKS
0
BLOCK
5
20
100
AcDbEntity
100
AcDbBlockBegin
2
*MODEL_SPACE
0
ENDBLK
5
21
100
AcDbEntity
100
AcDbBlockEnd
0
BLOCK
5
1C
100
AcDbEntity
100
AcDbBlockBegin
2
*PAPER_SPACE
0
ENDBLK
5
1D
100
AcDbEntity
100
AcDbBlockEnd
0
ENDSEC
0
SECTION
2
ENTITIES
0
CIRCLE
5
100
100
AcDbEntity
8
0
100
AcDbCircle
10
5.0000000000000622
20
40.000000000000455
30
0
40
3.3500000000000418
210
0
220
0
230
1
0
CIRCLE
5
101
100
AcDbEntity
8
0
100
AcDbCircle
10
30.000000000000206
20
15.000000000000107
30
0
40
3.3500000000000218
210
0
220
0
230
1
0
CIRCLE
5
102
100
AcDbEntity
8
0
100
AcDbCircle
10
67
20
-37.000000000000014
30
0
40
2.5
210
0
220
0
230
1
0
CIRCLE
5
103
100
AcDbEntity
8
0
100
AcDbCircle
10
22.999999999999989
20
-36.999999999999993
30
0
40
2.5
210
0
220
0
230
1
0
CIRCLE
5
104
100
AcDbEntity
8
0
100
AcDbCircle
10
5.000000000000079
20
-10.000000000000124
30
0
40
3.3500000000000552
210
0
220
0
230
1
0
CIRCLE
5
105
100
AcDbEntity
8
0
100
AcDbCircle
10
-81.999999999999957
20
-20.999999999999996
30
0
40
2.5
210
0
220
0
230
1
0
CIRCLE
5
106
100
AcDbEntity
8
0
100
AcDbCircle
10
5.0000000000000266
20
15.000000000000089
30
0
40
3.3500000000000196
210
0
220
0
230
1
0
CIRCLE
5
107
100
AcDbEntity
8
0
100
AcDbCircle
10
44.999999999999993
20
-36.999999999999993
30
0
40
2.5
210
0
220
0
230
1
0
CIRCLE
5
108
100
AcDbEntity
8
0
100
AcDbCircle
10
11.000000000000007
20
-52.000000000000028
30
0
40
2.5
210
0
220
0
230
1
0
CIRCLE
5
109
100
AcDbEntity
8
0
100
AcDbCircle
10
-20.000000000000007
20
15.000000000000004
30
0
40
3.3500000000000218
210
0
220
0
230
1
0
CIRCLE
5
110
100
AcDbEntity
8
0
100
AcDbCircle
10
-31.000000000000007
20
52.000000000000057
30
0
40
2.5
210
0
220
0
230
1
0
LWPOLYLINE
5
111
100
AcDbEntity
8
0
100
AcDbPolyline
90
44
70
1
43
0.0
10
-90
20
11.400000000000015
10
-87
20
11.400000000000015
10
-87
20
-11.399999999999988
10
-90
20
-11.399999999999988
10
-90
20
-34.199999999999989
10
-87
20
-34.199999999999989
10
-87
20
-56.999999999999993
10
-62.142857142857117
20
-56.999999999999993
10
-62.142857142857117
20
-60.000000000000007
10
-37.285714285714278
20
-60.000000000000007
10
-37.285714285714278
20
-56.999999999999993
10
-12.42857142857142
20
-56.999999999999993
10
-12.42857142857142
20
-60.000000000000007
10
12.428571428571438
20
-60.000000000000007
10
12.428571428571438
20
-56.999999999999993
10
37.285714285714278
20
-56.999999999999993
10
37.285714285714278
20
-60.000000000000007
10
62.142857142857139
20
-60.000000000000007
10
62.142857142857139
20
-56.999999999999993
10
87
20
-56.999999999999993
10
87
20
-34.199999999999989
10
90
20
-34.199999999999989
10
90
20
-11.399999999999988
10
87
20
-11.399999999999988
10
87
20
11.400000000000015
10
90
20
11.400000000000015
10
90
20
34.200000000000017
10
87
20
34.200000000000017
10
87
20
56.999999999999993
10
62.142857142857139
20
57
10
62.142857142857139
20
60.000000000000014
10
37.285714285714278
20
60.000000000000014
10
37.285714285714278
20
57
10
12.428571428571438
20
57
10
12.428571428571438
20
60.000000000000014
10
-12.42857142857142
20
60.000000000000014
10
-12.42857142857142
20
57
10
-37.285714285714278
20
57
10
-37.285714285714278
20
60.000000000000014
10
-62.142857142857117
20
60.000000000000014
10
-62.142857142857117
20
57
10
-87
20
56.999999999999993
10
-87
20
34.200000000000017
10
-90
20
34.200000000000017
0
LWPOLYLINE
5
112
100
AcDbEntity
8
0
100
AcDbPolyline
90
12
70
1
43
0.0
10
54.731063315482004
20
-26.66908899933885
10
54.731063315482004
20
-27.770848671503767
10
51.276587614626749
20
-27.770848671503785
10
51.276587614626749
20
-26.669088999338864
10
50.49999988994108
20
-26.669088999338868
10
50.49999988994108
20
-29.828997353621251
10
51.276587614626749
20
-29.828997353621247
10
51.276587614626749
20
-28.727237383433106
10
54.731063315482004
20
-28.727237383433089
10
54.731063315482004
20
-29.828997353621229
10
55.49999988994108
20
-29.828997353621226
10
55.49999988994108
20
-26.669088999338847
0
LWPOLYLINE
5
113
100
AcDbEntity
8
0
100
AcDbPolyline
90
12
70
1
43
0.0
10
50.49999988994108
20
-33.233741025038483
10
50.49999988994108
20
-34.381407598562966
10
55.49999988994108
20
-34.381407598562937
10
55.49999988994108
20
-33.524483541556094
10
51.911629805178507
20
-33.524483541556116
10
52.496939668269022
20
-33.283473352499719
10
55.49999988994108
20
-31.917750338621836
10
55.49999988994108
20
-30.762432614870761
10
50.49999988994108
20
-30.762432614870789
10
50.49999988994108
20
-31.619356969900853
10
54.126625725836618
20
-31.619356969900831
10
53.483932683081491
20
-31.89479658991884
0
LWPOLYLINE
5
114
100
AcDbEntity
8
0
100
AcDbPolyline
90
8
70
1
43
0.0
10
54.715761313052049
20
-45.96136222273897
10
54.715761313052049
20
-47.330910066672061
10
55.499999889941087
20
-47.330910066672061
10
55.499999889941087
20
-43.627773622580278
10
54.715761313052049
20
-43.627773622580278
10
54.715761313052049
20
-44.997322658606279
10
50.499999889941087
20
-44.997322658606294
10
50.499999889941087
20
-45.961362222738984
0
LINE
5
115
100
AcDbEntity
8
0
100
AcDbLine
10
52.340091833681932
20
-42.992731432028528
30
0
11
55.499999889941087
21
-42.992731432028506
31
0
0
LINE
5
116
100
AcDbEntity
8
0
100
AcDbLine
10
55.499999889941087
20
-42.992731432028506
30
0
11
55.499999889941087
21
-42.051644424505923
31
0
0
LINE
5
117
100
AcDbEntity
8
0
100
AcDbLine
10
55.499999889941087
20
-42.051644424505923
30
0
11
52.278882631869187
21
-42.051644424505945
31
0
0
SPLINE
5
118
100
AcDbEntity
8
0
100
AcDbSpline
70
0
71
3
72
9
73
5
74
0
42
0.000000001
43
0.0000000001
44
0.0000000001
40
-0.05049786440343703
40
-0.05049786440343703
40
-0.05049786440343703
40
-0.05049786440343703
40
-0.023207971850643851
40
0
40
0
40
0
40
0
10
52.278882631869187
20
-42.051644424505945
30
0
10
52.187684534221184
20
-42.050229434388982
30
0
10
52.018929411423557
20
-42.047611103117788
30
0
10
51.853680672949338
20
-42.01368098185948
30
0
10
51.777735123247972
20
-41.998087266989472
30
0
0
SPLINE
5
119
100
AcDbEntity
8
0
100
AcDbSpline
70
0
71
3
72
9
73
5
74
0
42
0.000000001
43
0.0000000001
44
0.0000000001
40
-0.03769089724039755
40
-0.03769089724039755
40
-0.03769089724039755
40
-0.03769089724039755
40
-0.017740988506462371
40
0
40
0
40
0
40
0
10
51.777735123247972
20
-41.998087266989472
30
0
10
51.713455699639752
20
-41.979163039559566
30
0
10
51.59201408393109
20
-41.943409938082894
30
0
10
51.488090226121017
20
-41.871337624749138
30
0
10
51.43917358836638
20
-41.837413410254243
30
0
0
SPLINE
5
120
100
AcDbEntity
8
0
100
AcDbSpline
70
0
71
3
72
9
73
5
74
0
42
0.000000001
43
0.0000000001
44
0.0000000001
40
-0.033216734434533469
40
-0.033216734434533469
40
-0.033216734434533469
40
-0.033216734434533469
40
-0.016641372483255232
40
0
40
0
40
0
40
0
10
51.43917358836638
20
-41.837413410254243
30
0
10
51.39818872196529
20
-41.799423521078481
30
0
10
51.316055769026995
20
-41.723292449934597
30
0
10
51.270645821425298
20
-41.62091545911948
30
0
10
51.247895726771226
20
-41.569625238486054
30
0
0
SPLINE
5
121
100
AcDbEntity
8
0
100
AcDbSpline
70
0
71
3
72
9
73
5
74
0
42
0.000000001
43
0.0000000001
44
0.0000000001
40
-0.039998835983879794
40
-0.039998835983879794
40
-0.039998835983879794
40
-0.039998835983879794
40
-0.021569705057212736
40
0
40
0
40
0
40
0
10
51.247895726771226
20
-41.569625238486054
30
0
10
51.230629194507713
20
-41.510395031922293
30
0
10
51.19315367844748
20
-41.38184098740102
30
0
10
51.190195211804614
20
-41.247849344896437
30
0
10
51.188599834055772
20
-41.175593236990693
30
0
0
SPLINE
5
122
100
AcDbEntity
8
0
100
AcDbSpline
70
0
71
3
72
9
73
5
74
0
42
0.000000001
43
0.0000000001
44
0.0000000001
40
-0.042086401259459186
40
-0.042086401259459186
40
-0.042086401259459186
40
-0.042086401259459186
40
-0.019259335090698729
40
0
40
0
40
0
40
0
10
51.188599834055772
20
-41.175593236990693
30
0
10
51.190360937509062
20
-41.099022716491774
30
0
10
51.193607894697806
20
-40.957849180368555
30
0
10
51.237413720077726
20
-40.823783344095681
30
0
10
51.257459888071885
20
-40.762432912894013
30
0
0
SPLINE
5
123
100
AcDbEntity
8
0
100
AcDbSpline
70
0
71
3
72
9
73
5
74
0
42
0.000000001
43
0.0000000001
44
0.0000000001
40
-0.034436994520693001
40
-0.034436994520693001
40
-0.034436994520693001
40
-0.034436994520693001
40
-0.0171116512866786
40
0
40
0
40
0
40
0
10
51.257459888071885
20
-40.762432912894013
30
0
10
51.283060845211388
20
-40.710025333561518
30
0
10
51.333946995565199
20
-40.605856573500688
30
0
10
51.419577279792001
20
-40.527727924500248
30
0
10
51.462126741022935
20
-40.48890600592685
30
0
0
SPLINE
5
124
100
AcDbEntity
8
0
100
AcDbSpline
70
0
71
3
72
9
73
5
74
0
42
0.000000001
43
0.0000000001
44
0.0000000001
40
-0.036698863732169212
40
-0.036698863732169212
40
-0.036698863732169212
40
-0.036698863732169212
40
-0.019008146955217912
40
0
40
0
40
0
40
0
10
51.462126741022935
20
-40.48890600592685
30
0
10
51.510959238186196
20
-40.455034754380762
30
0
10
51.612260795477013
20
-40.384769854399607
30
0
10
51.73135346915123
20
-40.352563998537427
30
0
10
51.793037423701158
20
-40.33588300139499
30
0
0
SPLINE
5
125
100
AcDbEntity
8
0
100
AcDbSpline
70
0
71
3
72
9
73
5
74
0
42
0.000000001
43
0.0000000001
44
0.0000000001
40
-0.045042650879360532
40
-0.045042650879360532
40
-0.045042650879360532
40
-0.045042650879360532
40
-0.023839406125320782
40
0
40
0
40
0
40
0
10
51.793037423701158
20
-40.33588300139499
30
0
10
51.862669000514138
20
-40.323063573897009
30
0
10
52.010589323132166
20
-40.295830902484553
30
0
10
52.161013327156205
20
-40.293253911186717
30
0
10
52.240627178759446
20
-40.291890005179162
30
0
0
LINE
5
126
100
AcDbEntity
8
0
100
AcDbLine
10
52.240627178759446
20
-40.291890005179155
30
0
11
55.499999889941087
21
-40.291890005179141
31
0
0
LINE
5
127
100
AcDbEntity
8
0
100
AcDbLine
10
55.499999889941087
20
-40.291890005179141
30
0
11
55.499999889941087
21
-39.350802997656558
31
0
0
LINE
5
128
100
AcDbEntity
8
0
100
AcDbLine
10
55.499999889941087
20
-39.350802997656558
30
0
11
52.183243999094834
21
-39.350802997656579
31
0
0
SPLINE
5
129
100
AcDbEntity
8
0
100
AcDbSpline
70
0
71
3
72
9
73
5
74
0
42
0.000000001
43
0.0000000001
44
0.0000000001
40
-0.074635921555005147
40
-0.074635921555005147
40
-0.074635921555005147
40
-0.074635921555005147
40
-0.035637505717836353
40
0
40
0
40
0
40
0
10
52.183243999094834
20
-39.350802997656579
30
0
10
52.052862673566899
20
-39.354019411747849
30
0
10
51.80333637421743
20
-39.360175047166656
30
0
10
51.560745257971597
20
-39.418562916184968
30
0
10
51.444911727518907
20
-39.446442226477387
30
0
0
SPLINE
5
130
100
AcDbEntity
8
0
100
AcDbSpline
70
0
71
3
72
9
73
5
74
0
42
0.000000001
43
0.0000000001
44
0.0000000001
40
-0.064323476889172587
40
-0.064323476889172587
40
-0.064323476889172587
40
-0.064323476889172587
40
-0.031430817982959318
40
0
40
0
40
0
40
0
10
51.444911727518907
20
-39.446442226477387
30
0
10
51.340304424040575
20
-39.482419130228749
30
0
10
51.135738855567908
20
-39.552774024419371
30
0
10
50.968231364049466
20
-39.689501299256861
30
0
10
50.886381039233079
20
-39.756311277457002
30
0
0
SPLINE
5
131
100
AcDbEntity
8
0
100
AcDbSpline
70
0
71
3
72
9
73
5
74
0
42
0.000000001
43
0.0000000001
44
0.0000000001
40
-0.06650069464817443
40
-0.06650069464817443
40
-0.06650069464817443
40
-0.06650069464817443
40
-0.034564114591759384
40
0
40
0
40
0
40
0
10
50.886381039233079
20
-39.756311277457002
30
0
10
50.813601474111429
20
-39.835252675400525
30
0
10
50.662054513596829
20
-39.999630257172555
30
0
10
50.578077465650146
20
-40.207040110080897
30
0
10
50.534429916949144
20
-40.314842561789277
30
0
0
SPLINE
5
132
100
AcDbEntity
8
0
100
AcDbSpline
70
0
71
3
72
9
73
5
74
0
42
0.000000001
43
0.0000000001
44
0.0000000001
40
-0.083833571975636761
40
-0.083833571975636761
40
-0.083833571975636761
40
-0.083833571975636761
40
-0.044863544665875374
40
0
40
0
40
0
40
0
10
50.534429916949144
20
-40.314842561789277
30
0
10
50.498771899741058
20
-40.440306427715733
30
0
10
50.422063230066279
20
-40.71020831797825
30
0
10
50.415515908942787
20
-40.990933239405507
30
0
10
50.412012109370103
20
-41.141163209982636
30
0
0
SPLINE
5
133
100
AcDbEntity
8
0
100
AcDbSpline
70
0
71
3
72
9
73
5
74
0
42
0.000000001
43
0.0000000001
44
0.0000000001
40
-0.078526909889118965
40
-0.078526909889118965
40
-0.078526909889118965
40
-0.078526909889118965
40
-0.037669965228930666
40
0
40
0
40
0
40
0
10
50.412012109370103
20
-41.141163209982636
30
0
10
50.416232341524051
20
-41.277939309703328
30
0
10
50.424343613495594
20
-41.540822512230648
30
0
10
50.49874094322189
20
-41.792968120548409
30
0
10
50.534429916949144
20
-41.913924316473725
30
0
0
SPLINE
5
134
100
AcDbEntity
8
0
100
AcDbSpline
70
0
71
3
72
9
73
5
74
0
42
0.000000001
43
0.0000000001
44
0.0000000001
40
-0.06917663067117566
40
-0.06917663067117566
40
-0.06917663067117566
40
-0.06917663067117566
40
-0.033927880803941837
40
0
40
0
40
0
40
0
10
50.534429916949144
20
-41.913924316473725
30
0
10
50.579383959114125
20
-42.023513674299188
30
0
10
50.667607489983631
20
-42.238585770766065
30
0
10
50.822091016334163
20
-42.412181119893759
30
0
10
50.897857913584581
20
-42.497321466513398
30
0
0
SPLINE
5
135
100
AcDbEntity
8
0
100
AcDbSpline
70
0
71
3
72
9
73
5
74
0
42
0.000000001
43
0.0000000001
44
0.0000000001
40
-0.071001010447541812
40
-0.071001010447541812
40
-0.071001010447541812
40
-0.071001010447541812
40
-0.036622420282641135
40
0
40
0
40
0
40
0
10
50.897857913584581
20
-42.497321466513398
30
0
10
50.985012546251482
20
-42.573023177575209
30
0
10
51.165010241178841
20
-42.729367517241712
30
0
10
51.38626083107301
20
-42.818565730377557
30
0
10
51.500382194132676
20
-42.864574293204072
30
0
0
SPLINE
5
136
100
AcDbEntity
8
0
100
AcDbSpline
70
0
71
3
72
9
73
5
74
0
42
0.000000001
43
0.0000000001
44
0.0000000001
40
-0.085250108256972879
40
-0.085250108256972879
40
-0.085250108256972879
40
-0.085250108256972879
40
-0.045016608118605431
40
0
40
0
40
0
40
0
10
51.500382194132676
20
-42.864574293204072
30
0
10
51.629774504731515
20
-42.901921337738727
30
0
10
51.903941764558169
20
-42.981055382221797
30
0
10
52.189370319476879
20
-42.98869650911692
30
0
10
52.340091833681932
20
-42.992731432028528
30
0
0
SPLINE
5
137
100
AcDbEntity
8
0
100
AcDbSpline
70
0
71
3
72
9
73
5
74
0
42
0.000000001
43
0.0000000001
44
0.0000000001
40
-0.069559019305681591
40
-0.069559019305681591
40
-0.069559019305681591
40
-0.069559019305681591
40
-0.033304888419066363
40
0
40
0
40
0
40
0
10
53.908569285483232
20
-38.696632484503496
30
0
10
54.03020722276959
20
-38.692127544790495
30
0
10
54.263587955422288
20
-38.68348413834812
30
0
10
54.482696028490551
20
-38.603126421247211
30
0
10
54.587605068297258
20
-38.564651111670244
30
0
0
SPLINE
5
138
100
AcDbEntity
8
0
100
AcDbSpline
70
0
71
3
72
9
73
5
74
0
42
0.000000001
43
0.0000000001
44
0.0000000001
40
-0.063597849228272149
40
-0.063597849228272149
40
-0.063597849228272149
40
-0.063597849228272149
40
-0.031818917334835821
40
0
40
0
40
0
40
0
10
54.587605068297258
20
-38.564651111670244
30
0
10
54.682547947969489
20
-38.515529925538772
30
0
10
54.872553167998305
20
-38.41722574716114
30
0
10
55.015381230822499
20
-38.257955269652399
30
0
10
55.086840161890855
20
-38.178269962378245
30
0
0
SPLINE
5
139
100
AcDbEntity
8
0
100
AcDbSpline
70
0
71
3
72
9
73
5
74
0
42
0.000000001
43
0.0000000001
44
0.0000000001
40
-0.070239253160236853
40
-0.070239253160236853
40
-0.070239253160236853
40
-0.070239253160236853
40
-0.036698634735623979
40
0
40
0
40
0
40
0
10
55.086840161890855
20
-38.178269962378245
30
0
10
55.151065005835761
20
-38.085955398736843
30
0
10
55.285561782726198
20
-37.892634395411889
30
0
10
55.357310037387265
20
-37.668161380118647
30
0
10
55.394797095866075
20
-37.550878624029856
30
0
0
SPLINE
5
140
100
AcDbEntity
8
0
100
AcDbSpline
70
0
71
3
72
9
73
5
74
0
42
0.000000001
43
0.0000000001
44
0.0000000001
40
-0.086727627462976187
40
-0.086727627462976187
40
-0.086727627462976187
40
-0.086727627462976187
40
-0.045838649505191023
40
0
40
0
40
0
40
0
10
55.394797095866075
20
-37.550878624029856
30
0
10
55.425454230721478
20
-37.417694616092234
30
0
10
55.490479592166473
20
-37.135204478129737
30
0
10
55.496707969832471
20
-36.845278622484059
30
0
10
55.499999889941087
20
-36.692042450018626
30
0
0
LINE
5
141
100
AcDbEntity
8
0
100
AcDbLine
10
55.499999889941087
20
-36.692042450018626
30
0
11
55.49999988994108
21
-35.226854781218265
31
0
0
LINE
5
142
100
AcDbEntity
8
0
100
AcDbLine
10
55.49999988994108
20
-35.226854781218265
30
0
11
50.49999988994108
21
-35.226854781218293
31
0
0
LINE
5
143
100
AcDbEntity
8
0
100
AcDbLine
10
50.49999988994108
20
-35.226854781218293
30
0
11
50.49999988994108
21
-36.175592044897797
31
0
0
LINE
5
144
100
AcDbEntity
8
0
100
AcDbLine
10
50.49999988994108
20
-36.175592044897797
30
0
11
52.106733092875345
21
-36.17559204489779
31
0
0
LINE
5
145
100
AcDbEntity
8
0
100
AcDbLine
10
52.106733092875345
20
-36.17559204489779
30
0
11
52.106733092875345
21
-36.653786996908899
31
0
0
SPLINE
5
146
100
AcDbEntity
8
0
100
AcDbSpline
70
0
71
3
72
9
73
5
74
0
42
0.000000001
43
0.0000000001
44
0.0000000001
40
-0.090073699457352163
40
-0.090073699457352163
40
-0.090073699457352163
40
-0.090073699457352163
40
-0.042518852356015421
40
0
40
0
40
0
40
0
10
52.106733092875345
20
-36.653786996908899
30
0
10
52.110953441043719
20
-36.812989989873827
30
0
10
52.118947208150423
20
-37.114536591642434
30
0
10
52.201607696637318
20
-37.404459129113803
30
0
10
52.240627178759446
20
-37.541315654822107
30
0
0
SPLINE
5
147
100
AcDbEntity
8
0
100
AcDbSpline
70
0
71
3
72
9
73
5
74
0
42
0.000000001
43
0.0000000001
44
0.0000000001
40
-0.074486172703957604
40
-0.074486172703957604
40
-0.074486172703957604
40
-0.074486172703957604
40
-0.035883914803737343
40
0
40
0
40
0
40
0
10
52.240627178759446
20
-37.541315654822107
30
0
10
52.288157148904233
20
-37.661882579960071
30
0
10
52.379870063054753
20
-37.894526194523351
30
0
10
52.538912385477737
20
-38.08730942817337
30
0
10
52.615531453699937
20
-38.180183271475549
30
0
0
SPLINE
5
148
100
AcDbEntity
8
0
100
AcDbSpline
70
0
71
3
72
9
73
5
74
0
42
0.000000001
43
0.0000000001
44
0.0000000001
40
-0.069453921980029129
40
-0.069453921980029129
40
-0.069453921980029129
40
-0.069453921980029129
40
-0.034821909752586963
40
0
40
0
40
0
40
0
10
52.615531453699937
20
-38.180183271475549
30
0
10
52.699764088743265
20
-38.260419329236392
30
0
10
52.868691231181593
20
-38.421331402699195
30
0
10
53.08100492941611
20
-38.518065253086576
30
0
10
53.187452027411332
20
-38.566564420767541
30
0
0
SPLINE
5
149
100
AcDbEntity
8
0
100
AcDbSpline
70
0
71
3
72
9
73
5
74
0
42
0.000000001
43
0.0000000001
44
0.0000000001
40
-0.073602182954239731
40
-0.073602182954239731
40
-0.073602182954239731
40
-0.073602182954239731
40
-0.037678831588738665
40
0
40
0
40
0
40
0
10
53.187452027411332
20
-38.566564420767541
30
0
10
53.30170785916004
20
-38.604495063743421
30
0
10
53.535802906317414
20
-38.682209921009338
30
0
10
53.782353671074823
20
-38.691749123732514
30
0
10
53.908569285483232
20
-38.696632484503496
30
0
0
SPLINE
5
150
100
AcDbEntity
8
0
100
AcDbSpline
70
0
71
3
72
9
73
5
74
0
42
0.000000001
43
0.0000000001
44
0.0000000001
40
-0.040134648378536725
40
-0.040134648378536725
40
-0.040134648378536725
40
-0.040134648378536725
40
-0.019313647086023442
40
0
40
0
40
0
40
0
10
53.843534657568803
20
-37.709639171667803
30
0
10
53.773795188730283
20
-37.707293158379073
30
0
10
53.63936509958053
20
-37.702770973441289
30
0
10
53.511185437726482
20
-37.662210830753487
30
0
10
53.449502656073442
20
-37.64269242674898
30
0
0
SPLINE
5
151
100
AcDbEntity
8
0
100
AcDbSpline
70
0
71
3
72
9
73
5
74
0
42
0.000000001
43
0.0000000001
44
0.0000000001
40
-0.036185357405316948
40
-0.036185357405316948
40
-0.036185357405316948
40
-0.036185357405316948
40
-0.017879347667220564
40
0
40
0
40
0
40
0
10
53.449502656073442
20
-37.64269242674898
30
0
10
53.393170983712082
20
-37.618083602144893
30
0
10
53.281820573284151
20
-37.569439516057116
30
0
10
53.191775524438818
20
-37.487885795051369
30
0
10
53.147283861250749
20
-37.447589735098589
30
0
0
SPLINE
5
152
100
AcDbEntity
8
0
100
AcDbSpline
70
0
71
3
72
9
73
5
74
0
42
0.000000001
43
0.0000000001
44
0.0000000001
40
-0.037228295163422409
40
-0.037228295163422409
40
-0.037228295163422409
40
-0.037228295163422409
40
-0.019101565952575339
40
0
40
0
40
0
40
0
10
53.147283861250749
20
-37.447589735098589
30
0
10
53.107399338153485
20
-37.401620442355352
30
0
10
53.025485343574218
20
-37.307209675868293
30
0
10
52.978302472597314
20
-37.191401225607798
30
0
10
52.954093286604753
20
-37.131980756827112
30
0
0
SPLINE
5
153
100
AcDbEntity
8
0
100
AcDbSpline
70
0
71
3
72
9
73
5
74
0
42
0.000000001
43
0.0000000001
44
0.0000000001
40
-0.043904707163610245
40
-0.043904707163610245
40
-0.043904707163610245
40
-0.043904707163610245
40
-0.023109682514575888
40
0
40
0
40
0
40
0
10
52.954093286604753
20
-37.131980756827112
30
0
10
52.934581759261263
20
-37.065157520287414
30
0
10
52.893386910551605
20
-36.924073069486532
30
0
10
52.889298316242552
20
-36.777069895653334
30
0
10
52.887146243662698
20
-36.699693302222009
30
0
0
LINE
5
154
100
AcDbEntity
8
0
100
AcDbLine
10
52.887146243662698
20
-36.699693302222009
30
0
11
52.887146243662698
21
-36.17559204489779
31
0
0
LINE
5
155
100
AcDbEntity
8
0
100
AcDbLine
10
52.887146243662698
20
-36.17559204489779
30
0
11
54.719586739153726
21
-36.175592044897783
31
0
0
LINE
5
156
100
AcDbEntity
8
0
100
AcDbLine
10
54.719586739153726
20
-36.175592044897783
30
0
11
54.719586739153726
21
-36.66908870131563
31
0
0
SPLINE
5
157
100
AcDbEntity
8
0
100
AcDbSpline
70
0
71
3
72
9
73
5
74
0
42
0.000000001
43
0.0000000001
44
0.0000000001
40
-0.04682453386168825
40
-0.04682453386168825
40
-0.04682453386168825
40
-0.04682453386168825
40
-0.021815904459048092
40
0
40
0
40
0
40
0
10
54.719586739153726
20
-36.66908870131563
30
0
10
54.717808264567196
20
-36.752751333782591
30
0
10
54.714478364229265
20
-36.909395814527066
30
0
10
54.676208196121863
20
-37.061236863663858
30
0
10
54.658377835364213
20
-37.131980756827105
30
0
0
SPLINE
5
158
100
AcDbEntity
8
0
100
AcDbSpline
70
0
71
3
72
9
73
5
74
0
42
0.000000001
43
0.0000000001
44
0.0000000001
40
-0.037017517415635838
40
-0.037017517415635838
40
-0.037017517415635838
40
-0.037017517415635838
40
-0.017683702153813183
40
0
40
0
40
0
40
0
10
54.658377835364213
20
-37.131980756827105
30
0
10
54.636666302108722
20
-37.193173314063515
30
0
10
54.59509628348998
20
-37.310335732475536
30
0
10
54.518833770815831
20
-37.408396032215961
30
0
10
54.482402274222245
20
-37.455240587301958
30
0
0
SPLINE
5
159
100
AcDbEntity
8
0
100
AcDbSpline
70
0
71
3
72
9
73
5
74
0
42
0.000000001
43
0.0000000001
44
0.0000000001
40
-0.033932150421991721
40
-0.033932150421991721
40
-0.033932150421991721
40
-0.033932150421991721
40
-0.017026700365571256
40
0
40
0
40
0
40
0
10
54.482402274222245
20
-37.455240587301958
30
0
10
54.442058023403128
20
-37.495286864127273
30
0
10
54.361080162246651
20
-37.575666640148754
30
0
10
54.257183567969953
20
-37.622844588038589
30
0
10
54.205049643130174
20
-37.646517852850664
30
0
0
SPLINE
5
160
100
AcDbEntity
8
0
100
AcDbSpline
70
0
71
3
72
9
73
5
74
0
42
0.000000001
43
0.0000000001
44
0.0000000001
40
-0.036857750137304038
40
-0.036857750137304038
40
-0.036857750137304038
40
-0.036857750137304038
40
-0.019049824914799195
40
0
40
0
40
0
40
0
10
54.205049643130174
20
-37.646517852850664
30
0
10
54.148292504394519
20
-37.664922168750067
30
0
10
54.030820063787942
20
-37.7030142916893
30
0
10
53.907349877496451
20
-37.707381824545266
30
0
10
53.843534657568803
20
-37.709639171667803
30
0
0
LINE
5
161
100
AcDbEntity
8
0
100
AcDbLine
10
30.340092165992001
20
-38.738714948321778
30
0
11
33.50000022225116
21
-38.738714948321778
31
0
0
LINE
5
162
100
AcDbEntity
8
0
100
AcDbLine
10
33.50000022225116
20
-38.738714948321778
30
0
11
33.500000222251153
21
-37.797627940799195
31
0
0
LINE
5
163
100
AcDbEntity
8
0
100
AcDbLine
10
33.500000222251153
20
-37.797627940799195
30
0
11
30.278882964179253
21
-37.797627940799195
31
0
0
SPLINE
5
164
100
AcDbEntity
8
0
100
AcDbSpline
70
0
71
3
72
9
73
5
74
0
42
0.000000001
43
0.0000000001
44
0.0000000001
40
-0.050497865231184554
40
-0.050497865231184554
40
-0.050497865231184554
40
-0.050497865231184554
40
-0.023207913145532888
40
0
40
0
40
0
40
0
10
30.278882964179253
20
-37.797627940799195
30
0
10
30.187684664345113
20
-37.796212977323634
30
0
10
30.018929532790338
20
-37.793594701019188
30
0
10
29.853680806369127
20
-37.759664496649123
30
0
10
29.777735455558037
20
-37.744070783282716
30
0
0
SPLINE
5
165
100
AcDbEntity
8
0
100
AcDbSpline
70
0
71
3
72
9
73
5
74
0
42
0.000000001
43
0.0000000001
44
0.0000000001
40
-0.03769089724039755
40
-0.03769089724039755
40
-0.03769089724039755
40
-0.03769089724039755
40
-0.017740988506462371
40
0
40
0
40
0
40
0
10
29.777735455558037
20
-37.744070783282716
30
0
10
29.713456031949818
20
-37.72514655585281
30
0
10
29.592014416241163
20
-37.689393454376145
30
0
10
29.488090558431082
20
-37.617321141042382
30
0
10
29.439173920676446
20
-37.583396926547486
30
0
0
SPLINE
5
166
100
AcDbEntity
8
0
100
AcDbSpline
70
0
71
3
72
9
73
5
74
0
42
0.000000001
43
0.0000000001
44
0.0000000001
40
-0.033216787187149627
40
-0.033216787187149627
40
-0.033216787187149627
40
-0.033216787187149627
40
-0.016641425235871393
40
0
40
0
40
0
40
0
10
29.439173920676446
20
-37.583396926547486
30
0
10
29.398189038773779
20
-37.545407044611622
30
0
10
29.316055924332424
20
-37.46927586707006
30
0
10
29.270646118630957
20
-37.366898599267785
30
0
10
29.247896059081292
20
-37.31560815873285
30
0
0
SPLINE
5
167
100
AcDbEntity
8
0
100
AcDbSpline
70
0
71
3
72
9
73
5
74
0
42
0.000000001
43
0.0000000001
44
0.0000000001
40
-0.039998837604463433
40
-0.039998837604463433
40
-0.039998837604463433
40
-0.039998837604463433
40
-0.02156976452093318
40
0
40
0
40
0
40
0
10
29.247896059081292
20
-37.31560815873285
30
0
10
29.230629528849065
20
-37.256378151270361
30
0
10
29.193153898055204
20
-37.127824130182866
30
0
10
29.190195507446198
20
-36.993832470614407
30
0
10
29.188600166365838
20
-36.921576157237489
30
0
0
SPLINE
5
168
100
AcDbEntity
8
0
100
AcDbSpline
70
0
71
3
72
9
73
5
74
0
42
0.000000001
43
0.0000000001
44
0.0000000001
40
-0.042086343837809279
40
-0.042086343837809279
40
-0.042086343837809279
40
-0.042086343837809279
40
-0.019259277669048822
40
0
40
0
40
0
40
0
10
29.188600166365838
20
-36.921576157237489
30
0
10
29.1903612478947
20
-36.845005631195406
30
0
10
29.193608160231229
20
-36.703832277465899
30
0
10
29.237414053663329
20
-36.569766660719438
30
0
10
29.257460220381944
20
-36.508416429187257
30
0
0
SPLINE
5
169
100
AcDbEntity
8
0
100
AcDbSpline
70
0
71
3
72
9
73
5
74
0
42
0.000000001
43
0.0000000001
44
0.0000000001
40
-0.034437037328576642
40
-0.034437037328576642
40
-0.034437037328576642
40
-0.034437037328576642
40
-0.017111694094562244
40
0
40
0
40
0
40
0
10
29.257460220381944
20
-36.508416429187257
30
0
10
29.283061206454128
20
-36.456008877087342
30
0
10
29.333947477571996
20
-36.351840041665902
30
0
10
29.419577626018327
20
-36.273711059271243
30
0
10
29.462127073332994
20
-36.234888926173646
30
0
0
SPLINE
5
170
100
AcDbEntity
8
0
100
AcDbSpline
70
0
71
3
72
9
73
5
74
0
42
0.000000001
43
0.0000000001
44
0.0000000001
40
-0.036698831724098699
40
-0.036698831724098699
40
-0.036698831724098699
40
-0.036698831724098699
40
-0.019008165698861892
40
0
40
0
40
0
40
0
10
29.462127073332994
20
-36.234888926173646
30
0
10
29.510959334074531
20
-36.201017574009661
30
0
10
29.61226060317907
20
-36.130752325004309
30
0
10
29.731353546942977
20
-36.098547571110295
30
0
10
29.793037756011216
20
-36.081867113734681
30
0
0
SPLINE
5
171
100
AcDbEntity
8
0
100
AcDbSpline
70
0
71
3
72
9
73
5
74
0
42
0.000000001
43
0.0000000001
44
0.0000000001
40
-0.045042670092732343
40
-0.045042670092732343
40
-0.045042670092732343
40
-0.045042670092732343
40
-0.023839465666500227
40
0
40
0
40
0
40
0
10
29.793037756011216
20
-36.081867113734681
30
0
10
29.862669119326625
20
-36.069047196209745
30
0
10
30.010589332841278
20
-36.04181342040475
30
0
10
30.161013439998534
20
-36.039236694039126
30
0
10
30.240627511069505
20
-36.037872925425965
30
0
0
LINE
5
172
100
AcDbEntity
8
0
100
AcDbLine
10
30.240627511069505
20
-36.037872925425965
30
0
11
33.500000222251153
21
-36.037872925425965
31
0
0
LINE
5
173
100
AcDbEntity
8
0
100
AcDbLine
10
33.500000222251153
20
-36.037872925425965
30
0
11
33.500000222251145
21
-35.09678651394983
31
0
0
LINE
5
174
100
AcDbEntity
8
0
100
AcDbLine
10
33.500000222251145
20
-35.09678651394983
30
0
11
30.183244331404893
21
-35.09678651394983
31
0
0
SPLINE
5
175
100
AcDbEntity
8
0
100
AcDbSpline
70
0
71
3
72
9
73
5
74
0
42
0.000000001
43
0.0000000001
44
0.0000000001
40
-0.074635920447312501
40
-0.074635920447312501
40
-0.074635920447312501
40
-0.074635920447312501
40
-0.035637564102659551
40
0
40
0
40
0
40
0
10
30.183244331404893
20
-35.09678651394983
30
0
10
30.052863208971665
20
-35.100002956848968
30
0
10
29.803336921356941
20
-35.106158656700053
30
0
10
29.560745789313607
20
-35.164546431417264
30
0
10
29.444912059828965
20
-35.192425742770631
30
0
0
SPLINE
5
176
100
AcDbEntity
8
0
100
AcDbSpline
70
0
71
3
72
9
73
5
74
0
42
0.000000001
43
0.0000000001
44
0.0000000001
40
-0.064323505025065605
40
-0.064323505025065605
40
-0.064323505025065605
40
-0.064323505025065605
40
-0.031430901230383348
40
0
40
0
40
0
40
0
10
29.444912059828965
20
-35.192425742770631
30
0
10
29.340304967705002
20
-35.228402676771708
30
0
10
29.135739380319631
20
-35.298757778771225
30
0
10
28.968231881105595
20
-35.435485194851275
30
0
10
28.886381371543138
20
-35.502295389796693
30
0
0
SPLINE
5
177
100
AcDbEntity
8
0
100
AcDbSpline
70
0
71
3
72
9
73
5
74
0
42
0.000000001
43
0.0000000001
44
0.0000000001
40
-0.066500644197739045
40
-0.066500644197739045
40
-0.066500644197739045
40
-0.066500644197739045
40
-0.034564194085994038
40
0
40
0
40
0
40
0
10
28.886381371543138
20
-35.502295389796693
30
0
10
28.813602043815436
20
-35.581236408681264
30
0
10
28.662055075970351
20
-35.745613745269438
30
0
10
28.578077964483871
20
-35.953023399775518
30
0
10
28.534430249259202
20
-36.06082607808252
30
0
0
SPLINE
5
178
100
AcDbEntity
8
0
100
AcDbSpline
70
0
71
3
72
9
73
5
74
0
42
0.000000001
43
0.0000000001
44
0.0000000001
40
-0.083833512509841085
40
-0.083833512509841085
40
-0.083833512509841085
40
-0.083833512509841085
40
-0.044863485200079704
40
0
40
0
40
0
40
0
10
28.534430249259202
20
-36.06082607808252
30
0
10
28.498772231196419
20
-36.186289943642663
30
0
10
28.422063614094839
20
-36.45619164166726
30
0
10
28.41551625787552
20
-36.736916360587912
30
0
10
28.412012441680169
20
-36.887146130229432
30
0
0
SPLINE
5
179
100
AcDbEntity
8
0
100
AcDbSpline
70
0
71
3
72
9
73
5
74
0
42
0.000000001
43
0.0000000001
44
0.0000000001
40
-0.078526977759016847
40
-0.078526977759016847
40
-0.078526977759016847
40
-0.078526977759016847
40
-0.037670037563574295
40
0
40
0
40
0
40
0
10
28.412012441680169
20
-36.887146130229432
30
0
10
28.416232390754836
20
-37.023922242682808
30
0
10
28.424343126545271
20
-37.286805725616489
30
0
10
28.498740984467105
20
-37.538951452326486
30
0
10
28.534430249259209
20
-37.659907832766969
30
0
0
SPLINE
5
180
100
AcDbEntity
8
0
100
AcDbSpline
70
0
71
3
72
9
73
5
74
0
42
0.000000001
43
0.0000000001
44
0.0000000001
40
-0.06917659353899934
40
-0.06917659353899934
40
-0.06917659353899934
40
-0.06917659353899934
40
-0.03392784367176551
40
0
40
0
40
0
40
0
10
28.534430249259209
20
-37.659907832766969
30
0
10
28.579384320525818
20
-37.769497166891405
30
0
10
28.667607861151986
20
-37.984569101399444
30
0
10
28.822090989870478
20
-38.158164606949533
30
0
10
28.897857649848202
20
-38.243304982806642
30
0
0
SPLINE
5
181
100
AcDbEntity
8
0
100
AcDbSpline
70
0
71
3
72
9
73
5
74
0
42
0.000000001
43
0.0000000001
44
0.0000000001
40
-0.071001050530081225
40
-0.071001050530081225
40
-0.071001050530081225
40
-0.071001050530081225
40
-0.036622366347638789
40
0
40
0
40
0
40
0
10
28.897857649848202
20
-38.243304982806642
30
0
10
28.985012708611144
20
-38.319006655567932
30
0
10
29.165010892902927
20
-38.475350576830671
30
0
10
29.386261425455441
20
-38.564549153098739
30
0
10
29.500382526442746
20
-38.610557809497315
30
0
0
SPLINE
5
182
100
AcDbEntity
8
0
100
AcDbSpline
70
0
71
3
72
9
73
5
74
0
42
0.000000001
43
0.0000000001
44
0.0000000001
40
-0.085250128251687277
40
-0.085250128251687277
40
-0.085250128251687277
40
-0.085250128251687277
40
-0.045016599634224025
40
0
40
0
40
0
40
0
10
29.500382526442746
20
-38.610557809497315
30
0
10
29.629774808352224
20
-38.647905429461602
30
0
10
29.903941877625225
20
-38.727040655758117
30
0
10
30.189370617747127
20
-38.734680633782062
30
0
10
30.340092165992001
20
-38.738714948321778
30
0
0
LINE
5
183
100
AcDbEntity
8
0
100
AcDbLine
10
28.500000222251142
20
-33.470925584460694
30
0
11
28.500000222251142
21
-34.576510682727296
31
0
0
LINE
5
184
100
AcDbEntity
8
0
100
AcDbLine
10
28.500000222251142
20
-34.576510682727296
30
0
11
30.175592883155073
21
-33.77697040143152
31
0
0
SPLINE
5
185
100
AcDbEntity
8
0
100
AcDbSpline
70
0
71
3
72
9
73
5
74
0
42
0.000000001
43
0.0000000001
44
0.0000000001
40
-0.058045881497207269
40
-0.058045881497207269
40
-0.058045881497207269
40
-0.058045881497207269
40
-0.025823639091320651
40
0
40
0
40
0
40
0
10
30.175592883155073
20
-33.77697040143152
30
0
10
30.272337507399069
20
-33.729470901977137
30
0
10
30.446615477368439
20
-33.643904221614704
30
0
10
30.599265425120585
20
-33.524186147595294
30
0
10
30.667176826522077
20
-33.470925584460694
30
0
0
SPLINE
5
186
100
AcDbEntity
8
0
100
AcDbSpline
70
0
71
3
72
9
73
5
74
0
42
0.000000001
43
0.0000000001
44
0.0000000001
40
-0.04011612759493223
40
-0.04011612759493223
40
-0.04011612759493223
40
-0.04011612759493223
40
-0.018985276952203589
40
0
40
0
40
0
40
0
10
30.667176826522077
20
-33.470925584460694
30
0
10
30.718010675091829
20
-33.420457150038828
30
0
10
30.814516830468364
20
-33.324644719719991
30
0
10
30.856025427442727
20
-33.195429089141868
30
0
10
30.875669701621259
20
-33.134276762629945
30
0
0
SPLINE
5
187
100
AcDbEntity
8
0
100
AcDbSpline
70
0
71
3
72
9
73
5
74
0
42
0.000000001
43
0.0000000001
44
0.0000000001
40
-0.045920325967042583
40
-0.045920325967042583
40
-0.045920325967042583
40
-0.045920325967042583
40
-0.022511803503823806
40
0
40
0
40
0
40
0
10
30.875669701621259
20
-33.134276762629945
30
0
10
30.890490728032422
20
-33.211143015900426
30
0
10
30.919565026294361
20
-33.361930978344091
30
0
10
30.979957508140505
20
-33.503097849801051
30
0
10
31.009564085528577
20
-33.572302952434022
30
0
0
SPLINE
5
188
100
AcDbEntity
8
0
100
AcDbSpline
70
0
71
3
72
9
73
5
74
0
42
0.000000001
43
0.0000000001
44
0.0000000001
40
-0.042927063308896604
40
-0.042927063308896604
40
-0.042927063308896604
40
-0.042927063308896604
40
-0.021210368867846115
40
0
40
0
40
0
40
0
10
31.009564085528577
20
-33.572302952434022
30
0
10
31.043603239688458
20
-33.636645825951071
30
0
10
31.110887923808733
20
-33.763831416393487
30
0
10
31.210780613254599
20
-33.867361475549927
30
0
10
31.260137839839185
20
-33.918515935565431
30
0
0
SPLINE
5
189
100
AcDbEntity
8
0
100
AcDbSpline
70
0
71
3
72
9
73
5
74
0
42
0.000000001
43
0.0000000001
44
0.0000000001
40
-0.043485054791042893
40
-0.043485054791042893
40
-0.043485054791042893
40
-0.043485054791042893
40
-0.022157124714736798
40
0
40
0
40
0
40
0
10
31.260137839839185
20
-33.918515935565431
30
0
10
31.314910670056783
20
-33.964506826025357
30
0
10
31.426585807519789
20
-34.058276656683262
30
0
10
31.560877671587345
20
-34.115212477465924
30
0
10
31.629303975627149
20
-34.144223228122193
30
0
0
SPLINE
5
190
100
AcDbEntity
8
0
100
AcDbSpline
70
0
71
3
72
9
73
5
74
0
42
0.000000001
43
0.0000000001
44
0.0000000001
40
-0.049822138664948529
40
-0.049822138664948529
40
-0.049822138664948529
40
-0.049822138664948529
40
-0.026091208769025244
40
0
40
0
40
0
40
0
10
31.629303975627149
20
-34.144223228122193
30
0
10
31.705253555571666
20
-34.167640168524741
30
0
10
31.864706662556319
20
-34.216803098800185
30
0
10
32.031583611167036
20
-34.221893685905066
30
0
10
32.118974907920091
20
-34.22455956044336
30
0
0
SPLINE
5
191
100
AcDbEntity
8
0
100
AcDbSpline
70
0
71
3
72
9
73
5
74
0
42
0.000000001
43
0.0000000001
44
0.0000000001
40
-0.066330235781205032
40
-0.066330235781205032
40
-0.066330235781205032
40
-0.066330235781205032
40
-0.030894354788825611
40
0
40
0
40
0
40
0
10
32.118974907920091
20
-34.22455956044336
30
0
10
32.238047361092327
20
-34.22084356066668
30
0
10
32.460931727806958
20
-34.213887810324167
30
0
10
32.668715228211497
20
-34.133735716947633
30
0
10
32.765493674800126
20
-34.096403613711793
30
0
0
SPLINE
5
192
100
AcDbEntity
8
0
100
AcDbSpline
70
0
71
3
72
9
73
5
74
0
42
0.000000001
43
0.0000000001
44
0.0000000001
40
-0.056788412907391561
40
-0.056788412907391561
40
-0.056788412907391561
40
-0.056788412907391561
40
-0.028271626981069706
40
0
40
0
40
0
40
0
10
32.765493674800126
20
-34.096403613711793
30
0
10
32.849217529661793
20
-34.049314013716135
30
0
10
33.015945465003711
20
-33.955539643241622
30
0
10
33.134790175773134
20
-33.805673220384385
30
0
10
33.193956001326768
20
-33.731063500071961
30
0
0
SPLINE
5
193
100
AcDbEntity
8
0
100
AcDbSpline
70
0
71
3
72
9
73
5
74
0
42
0.000000001
43
0.0000000001
44
0.0000000001
40
-0.062331159241864553
40
-0.062331159241864553
40
-0.062331159241864553
40
-0.062331159241864553
40
-0.032570364757615197
40
0
40
0
40
0
40
0
10
33.193956001326768
20
-33.731063500071961
30
0
10
33.245354281440783
20
-33.645530606333367
30
0
10
33.353003100568927
20
-33.466390078923745
30
0
10
33.403067126786866
20
-33.263334406025528
30
0
10
33.42922745518419
20
-33.157230213309724
30
0
0
SPLINE
5
194
100
AcDbEntity
8
0
100
AcDbSpline
70
0
71
3
72
9
73
5
74
0
42
0.000000001
43
0.0000000001
44
0.0000000001
40
-0.075414365664518729
40
-0.075414365664518729
40
-0.075414365664518729
40
-0.075414365664518729
40
-0.039442903954619649
40
0
40
0
40
0
40
0
10
33.42922745518419
20
-33.157230213309724
30
0
10
33.449857565438094
20
-33.038922188060596
30
0
10
33.493108704102823
20
-32.790888767869355
30
0
10
33.49763361986431
20
-32.539107134841466
30
0
10
33.500000222251138
20
-32.407421365405519
30
0
0
LINE
5
195
100
AcDbEntity
8
0
100
AcDbLine
10
33.500000222251145
20
-32.407421365405511
30
0
11
33.500000222251138
21
-30.949885144854981
31
0
0
LINE
5
196
100
AcDbEntity
8
0
100
AcDbLine
10
33.500000222251138
20
-30.949885144854981
30
0
11
28.500000222251135
21
-30.949885144854981
31
0
0
LINE
5
197
100
AcDbEntity
8
0
100
AcDbLine
10
28.500000222251135
20
-30.949885144854981
30
0
11
28.500000222251138
21
-31.890971556331117
31
0
0
LINE
5
198
100
AcDbEntity
8
0
100
AcDbLine
10
28.500000222251138
20
-31.890971556331117
30
0
11
30.569625480696878
21
-31.890971556331117
31
0
0
LINE
5
199
100
AcDbEntity
8
0
100
AcDbLine
10
30.569625480696878
20
-31.890971556331117
30
0
11
30.569625480696878
21
-32.070772543574769
31
0
0
SPLINE
5
200
100
AcDbEntity
8
0
100
AcDbSpline
70
0
71
3
72
9
73
5
74
0
42
0.000000001
43
0.0000000001
44
0.0000000001
40
-0.043963233607738572
40
-0.043963233607738572
40
-0.043963233607738572
40
-0.043963233607738572
40
-0.0212521999207353
40
0
40
0
40
0
40
0
10
30.569625480696878
20
-32.070772543574769
30
0
10
30.56544234735194
20
-32.147421656420512
30
0
10
30.557344782485881
20
-32.295796358351929
30
0
10
30.48696701962108
20
-32.426491546563916
30
0
10
30.452945812270364
20
-32.489670708800752
30
0
0
SPLINE
5
201
100
AcDbEntity
8
0
100
AcDbSpline
70
0
71
3
72
9
73
5
74
0
42
0.000000001
43
0.0000000001
44
0.0000000001
40
-0.04484822322414686
40
-0.04484822322414686
40
-0.04484822322414686
40
-0.04484822322414686
40
-0.023389624865754379
40
0
40
0
40
0
40
0
10
30.452945812270364
20
-32.489670708800752
30
0
10
30.407822779836607
20
-32.546342473156088
30
0
10
30.313516162165644
20
-32.664785807425424
30
0
10
30.177611549013545
20
-32.731979773916613
30
0
10
30.106733425185404
20
-32.767023339892823
30
0
0
LINE
5
202
100
AcDbEntity
8
0
100
AcDbLine
10
30.106733425185404
20
-32.76702333989283
30
0
11
28.500000222251142
21
-33.470925584460694
31
0
0
SPLINE
5
203
100
AcDbEntity
8
0
100
AcDbSpline
70
0
71
3
72
9
73
5
74
0
42
0.000000001
43
0.0000000001
44
0.0000000001
40
-0.032154703823297048
40
-0.032154703823297048
40
-0.032154703823297048
40
-0.032154703823297048
40
-0.015472305864558677
40
0
40
0
40
0
40
0
10
32.027161701247422
20
-33.237566843654115
30
0
10
31.971100266574517
20
-33.235154916149497
30
0
10
31.863043928854069
20
-33.230506015269292
30
0
10
31.763350064046655
20
-33.188783139747464
30
0
10
31.715379043147291
20
-33.168706789638001
30
0
0
SPLINE
5
204
100
AcDbEntity
8
0
100
AcDbSpline
70
0
71
3
72
9
73
5
74
0
42
0.000000001
43
0.0000000001
44
0.0000000001
40
-0.030195976302649752
40
-0.030195976302649752
40
-0.030195976302649752
40
-0.030195976302649752
40
-0.015195830631870074
40
0
40
0
40
0
40
0
10
31.715379043147291
20
-33.168706789638001
30
0
10
31.671845266773811
20
-33.143227749858191
30
0
10
31.584209792519768
20
-33.091937282532641
30
0
10
31.52004749305112
20
-33.01321814188028
30
0
10
31.487758441493234
20
-32.973603501941163
30
0
0
SPLINE
5
205
100
AcDbEntity
8
0
100
AcDbSpline
70
0
71
3
72
9
73
5
74
0
42
0.000000001
43
0.0000000001
44
0.0000000001
40
-0.033535146126248923
40
-0.033535146126248923
40
-0.033535146126248923
40
-0.033535146126248923
40
-0.017467181935891848
40
0
40
0
40
0
40
0
10
31.487758441493234
20
-32.973603501941163
30
0
10
31.458779509743032
20
-32.928225415577366
30
0
10
31.398298125834494
20
-32.833517664233682
30
0
10
31.366566452859818
20
-32.725654048406298
30
0
10
31.350038631484232
20
-32.669471994067628
30
0
0
SPLINE
5
206
100
AcDbEntity
8
0
100
AcDbSpline
70
0
71
3
72
9
73
5
74
0
42
0.000000001
43
0.0000000001
44
0.0000000001
40
-0.039938924875042518
40
-0.039938924875042518
40
-0.039938924875042518
40
-0.039938924875042518
40
-0.020833091645663389
40
0
40
0
40
0
40
0
10
31.350038631484232
20
-32.669471994067628
30
0
10
31.336656049568155
20
-32.607054756167678
30
0
10
31.308681036525616
20
-32.476577464470175
30
0
10
31.305691265624745
20
-32.343134171824197
30
0
10
31.304131730124674
20
-32.2735269814982
30
0
0
LINE
5
207
100
AcDbEntity
8
0
100
AcDbLine
10
31.304131730124674
20
-32.2735269814982
30
0
11
31.304131730124674
21
-31.890971556331117
31
0
0
LINE
5
208
100
AcDbEntity
8
0
100
AcDbLine
10
31.304131730124674
20
-31.890971556331117
30
0
11
32.7157616453621
21
-31.890971556331117
31
0
0
LINE
5
209
100
AcDbEntity
8
0
100
AcDbLine
10
32.7157616453621
20
-31.890971556331117
30
0
11
32.7157616453621
21
-32.304131284381349
31
0
0
SPLINE
5
210
100
AcDbEntity
8
0
100
AcDbSpline
70
0
71
3
72
9
73
5
74
0
42
0.000000001
43
0.0000000001
44
0.0000000001
40
-0.072595874796638232
40
-0.072595874796638232
40
-0.072595874796638232
40
-0.072595874796638232
40
-0.031560978513958206
40
0
40
0
40
0
40
0
10
32.7157616453621
20
-32.304131284381349
30
0
10
32.713348483928712
20
-32.443000539812125
30
0
10
32.709079298889833
20
-32.688677658401815
30
0
10
32.601749778335424
20
-32.908597979642728
30
0
10
32.555088384673326
20
-33.004208102847535
30
0
0
SPLINE
5
211
100
AcDbEntity
8
0
100
AcDbSpline
70
0
71
3
72
9
73
5
74
0
42
0.000000001
43
0.0000000001
44
0.0000000001
40
-0.059611098782273692
40
-0.059611098782273692
40
-0.059611098782273692
40
-0.059611098782273692
40
-0.032095506291936408
40
0
40
0
40
0
40
0
10
32.555088384673326
20
-33.004208102847535
30
0
10
32.488797138871973
20
-33.072164540153707
30
0
10
32.345180605691667
20
-33.219388624046218
30
0
10
32.13846205677018
20
-33.231204824677079
30
0
10
32.027161701247422
20
-33.237566843654115
30
0
0
LWPOLYLINE
5
212
100
AcDbEntity
8
0
100
AcDbPolyline
90
12
70
1
43
0.0
10
28.500000222251167
20
-41.902448430682625
10
28.500000222251167
20
-43.050114408160653
10
33.500000222251167
20
-43.050114408160653
10
33.500000222251167
20
-42.193190351153817
10
29.911630137488594
20
-42.193190351153817
10
30.496940000579109
20
-41.95218016209742
10
33.50000022225116
20
-40.586457744265999
10
33.50000022225116
20
-39.4311397224917
10
28.500000222251156
20
-39.431139722491707
10
28.500000222251156
20
-40.288063779498543
10
32.126626058146698
20
-40.288063779498543
10
31.483933015391571
20
-40.563503995562996
0
LWPOLYLINE
5
213
100
AcDbEntity
8
0
100
AcDbPolyline
90
4
70
1
43
0.0
10
75.102857241244223
20
-36.354285652347414
10
75.102857241244209
20
-37.640000159450381
10
79.137142786593344
20
-37.640000159450395
10
79.137142786593344
20
-36.354285652347428
0
SPLINE
5
214
100
AcDbEntity
8
0
100
AcDbSpline
70
0
71
3
72
9
73
5
74
0
42
0.000000001
43
0.0000000001
44
0.0000000001
40
-0.13033340561315523
40
-0.13033340561315523
40
-0.13033340561315523
40
-0.13033340561315523
40
-0.064525664100209046
40
0
40
0
40
0
40
0
10
71.828570851893332
20
-36.988571459956965
30
0
10
71.838743264821673
20
-37.209119806971913
30
0
10
71.858889910030484
20
-37.645919741264684
30
0
10
72.008691957835865
20
-38.05665331341914
30
0
10
72.082856187434089
20
-38.259999925800166
30
0
0
SPLINE
5
215
100
AcDbEntity
8
0
100
AcDbSpline
70
0
71
3
72
9
73
5
74
0
42
0.000000001
43
0.0000000001
44
0.0000000001
40
-0.12761217930218965
40
-0.12761217930218965
40
-0.12761217930218965
40
-0.12761217930218965
40
-0.063690713374992297
40
0
40
0
40
0
40
0
10
72.082856187434089
20
-38.259999925800166
30
0
10
72.175814437891802
20
-38.453076134413685
30
0
10
72.36139536525252
20
-38.83853155842786
30
0
10
72.648256598981817
20
-39.155892267173023
30
0
10
72.791427859873664
20
-39.31428569049438
30
0
0
SPLINE
5
216
100
AcDbEntity
8
0
100
AcDbSpline
70
0
71
3
72
9
73
5
74
0
42
0.000000001
43
0.0000000001
44
0.0000000001
40
-0.12745997464432252
40
-0.12745997464432252
40
-0.12745997464432252
40
-0.12745997464432252
40
-0.063807315722653746
40
0
40
0
40
0
40
0
10
72.791427859873664
20
-39.31428569049438
30
0
10
72.94880985454887
20
-39.458385080171929
30
0
10
73.263956234772508
20
-39.746933977668348
30
0
10
73.647830099432667
20
-39.934616125708786
30
0
10
73.839999923319709
20
-40.028571064182124
30
0
0
SPLINE
5
217
100
AcDbEntity
8
0
100
AcDbSpline
70
0
71
3
72
9
73
5
74
0
42
0.000000001
43
0.0000000001
44
0.0000000001
40
-0.12956569220728492
40
-0.12956569220728492
40
-0.12956569220728492
40
-0.12956569220728492
40
-0.065317123174221725
40
0
40
0
40
0
40
0
10
73.839999923319709
20
-40.028571064182124
30
0
10
74.042094841552185
20
-40.103569448558183
30
0
10
74.449645832437156
20
-40.254813557685495
30
0
10
74.883926239224692
20
-40.275357274113297
30
0
10
75.102857241244209
20
-40.285713846393435
30
0
0
SPLINE
5
218
100
AcDbEntity
8
0
100
AcDbSpline
70
0
71
3
72
9
73
5
74
0
42
0.000000001
43
0.0000000001
44
0.0000000001
40
-0.14885494646761097
40
-0.14885494646761097
40
-0.14885494646761097
40
-0.14885494646761097
40
-0.073816758613826916
40
0
40
0
40
0
40
0
10
75.102857241244209
20
-40.285713846393435
30
0
10
75.354784062164526
20
-40.272248570190705
30
0
10
75.854536981503713
20
-40.245537197946
30
0
10
76.314675669315108
20
-40.048926869795061
30
0
10
76.542857179255378
20
-39.95142834872803
30
0
0
SPLINE
5
219
100
AcDbEntity
8
0
100
AcDbSpline
70
0
71
3
72
9
73
5
74
0
42
0.000000001
43
0.0000000001
44
0.0000000001
40
-0.1440898870184803
40
-0.1440898870184803
40
-0.1440898870184803
40
-0.1440898870184803
40
-0.071375182792624808
40
0
40
0
40
0
40
0
10
76.542857179255378
20
-39.95142834872803
30
0
10
76.755494353872422
20
-39.831019455747303
30
0
10
77.176851585435017
20
-39.592419794642645
30
0
10
77.494219638507161
20
-39.226816539083146
30
0
10
77.651428470225227
20
-39.045714313693864
30
0
0
LINE
5
220
100
AcDbEntity
8
0
100
AcDbLine
10
77.651428470225241
20
-39.045714313693857
30
0
11
76.662857422442329
21
-38.228571588703012
31
0
0
SPLINE
5
221
100
AcDbEntity
8
0
100
AcDbSpline
70
0
71
3
72
9
73
5
74
0
42
0.000000001
43
0.0000000001
44
0.0000000001
40
-0.087952794120632394
40
-0.087952794120632394
40
-0.087952794120632394
40
-0.087952794120632394
40
-0.044356236124200685
40
0
40
0
40
0
40
0
10
76.662857422442329
20
-38.228571588703012
30
0
10
76.56716746257662
20
-38.339346109463499
30
0
10
76.374120127505606
20
-38.5628254176019
30
0
10
76.11972473188348
20
-38.712890771727288
30
0
10
75.991428384394538
20
-38.788571531482546
30
0
0
SPLINE
5
222
100
AcDbEntity
8
0
100
AcDbSpline
70
0
71
3
72
9
73
5
74
0
42
0.000000001
43
0.0000000001
44
0.0000000001
40
-0.092027462446350128
40
-0.092027462446350128
40
-0.092027462446350128
40
-0.092027462446350128
40
-0.046799423401996929
40
0
40
0
40
0
40
0
10
75.991428384394538
20
-38.788571531482546
30
0
10
75.852352405185883
20
-38.850232951143312
30
0
10
75.569368448236929
20
-38.975698129429162
30
0
10
75.260121126869933
20
-38.991807642488453
30
0
10
75.102857241244209
20
-38.999999935336916
30
0
0
SPLINE
5
223
100
AcDbEntity
8
0
100
AcDbSpline
70
0
71
3
72
9
73
5
74
0
42
0.000000001
43
0.0000000001
44
0.0000000001
40
-0.10507369552456236
40
-0.10507369552456236
40
-0.10507369552456236
40
-0.10507369552456236
40
-0.05179180143090488
40
0
40
0
40
0
40
0
10
75.102857241244209
20
-38.999999935336916
30
0
10
74.923480411585928
20
-38.989458246274715
30
0
10
74.569743242435266
20
-38.968669679244982
30
0
10
74.253179779575632
20
-38.809757733871052
30
0
10
74.097142705531013
20
-38.731428558536379
30
0
0
SPLINE
5
224
100
AcDbEntity
8
0
100
AcDbSpline
70
0
71
3
72
9
73
5
74
0
42
0.000000001
43
0.0000000001
44
0.0000000001
40
-0.10288172349310884
40
-0.10288172349310884
40
-0.10288172349310884
40
-0.10288172349310884
40
-0.051529934952365443
40
0
40
0
40
0
40
0
10
74.097142705531013
20
-38.731428558536379
30
0
10
73.954328011215324
20
-38.633916310939192
30
0
10
73.668203178782605
20
-38.43855353235702
30
0
10
73.476178484135318
20
-38.150160297490309
30
0
10
73.379999885172737
20
-38.005713994212947
30
0
0
SPLINE
5
225
100
AcDbEntity
8
0
100
AcDbSpline
70
0
71
3
72
9
73
5
74
0
42
0.000000001
43
0.0000000001
44
0.0000000001
40
-0.1060764809531827
40
-0.1060764809531827
40
-0.1060764809531827
40
-0.1060764809531827
40
-0.053839967403970256
40
0
40
0
40
0
40
0
10
73.379999885172737
20
-38.005713994212947
30
0
10
73.302504872976968
20
-37.847676814581519
30
0
10
73.145136058968973
20
-37.526751340501491
30
0
10
73.12467203715218
20
-37.16976349819732
30
0
10
73.114285358996284
20
-36.988571459956965
30
0
0
SPLINE
5
226
100
AcDbEntity
8
0
100
AcDbSpline
70
0
71
3
72
9
73
5
74
0
42
0.000000001
43
0.0000000001
44
0.0000000001
40
-0.10498176829893846
40
-0.10498176829893846
40
-0.10498176829893846
40
-0.10498176829893846
40
-0.051708817825010071
40
0
40
0
40
0
40
0
10
73.114285358996284
20
-36.988571459956965
30
0
10
73.124682086432713
20
-36.809252020671707
30
0
10
73.145170285811346
20
-36.455878091518798
30
0
10
73.30250473199429
20
-36.138956700057044
30
0
10
73.379999885172751
20
-35.982856924243769
30
0
0
SPLINE
5
227
100
AcDbEntity
8
0
100
AcDbSpline
70
0
71
3
72
9
73
5
74
0
42
0.000000001
43
0.0000000001
44
0.0000000001
40
-0.10226597157291333
40
-0.10226597157291333
40
-0.10226597157291333
40
-0.10226597157291333
40
-0.051132985786456663
40
0
40
0
40
0
40
0
10
73.379999885172751
20
-35.982856924243769
30
0
10
73.476309169541892
20
-35.840118601826831
30
0
10
73.668927738280203
20
-35.554641956992945
30
0
10
73.954404383114081
20
-35.362023388254649
30
0
10
74.097142705531027
20
-35.2657141038855
30
0
0
SPLINE
5
228
100
AcDbEntity
8
0
100
AcDbSpline
70
0
71
3
72
9
73
5
74
0
42
0.000000001
43
0.0000000001
44
0.0000000001
40
-0.10498176829893846
40
-0.10498176829893846
40
-0.10498176829893846
40
-0.10498176829893846
40
-0.053272950473928396
40
0
40
0
40
0
40
0
10
74.097142705531027
20
-35.2657141038855
30
0
10
74.253242481344301
20
-35.188218950707032
30
0
10
74.570163872806049
20
-35.030884504524096
30
0
10
74.923537801958972
20
-35.01039630514547
30
0
10
75.102857241244223
20
-34.999999577709048
30
0
0
SPLINE
5
229
100
AcDbEntity
8
0
100
AcDbSpline
70
0
71
3
72
9
73
5
74
0
42
0.000000001
43
0.0000000001
44
0.0000000001
40
-0.092216872363330094
40
-0.092216872363330094
40
-0.092216872363330094
40
-0.092216872363330094
40
-0.045354504484328054
40
0
40
0
40
0
40
0
10
75.102857241244223
20
-34.999999577709048
30
0
10
75.260284163475518
20
-35.008107409089895
30
0
10
75.570072572619466
20
-35.024062190835473
30
0
10
75.854431287384912
20
-35.147742259824632
30
0
10
75.994285831065085
20
-35.208571130939333
30
0
0
SPLINE
5
230
100
AcDbEntity
8
0
100
AcDbSpline
70
0
71
3
72
9
73
5
74
0
42
0.000000001
43
0.0000000001
44
0.0000000001
40
-0.088429910261990263
40
-0.088429910261990263
40
-0.088429910261990263
40
-0.088429910261990263
40
-0.043893491251920658
40
0
40
0
40
0
40
0
10
75.994285831065085
20
-35.208571130939333
30
0
10
76.123709759347207
20
-35.28350034475708
30
0
10
76.380689252044036
20
-35.432277094239467
30
0
10
76.576895934188073
20
-35.655108145565329
30
0
10
76.674286017031577
20
-35.765713627048349
30
0
0
LINE
5
231
100
AcDbEntity
8
0
100
AcDbLine
10
76.674286017031577
20
-35.765713627048349
30
0
11
77.662857064814474
21
-34.954285199352128
31
0
0
SPLINE
5
232
100
AcDbEntity
8
0
100
AcDbSpline
70
0
71
3
72
9
73
5
74
0
42
0.000000001
43
0.0000000001
44
0.0000000001
40
-0.14429309183291728
40
-0.14429309183291728
40
-0.14429309183291728
40
-0.14429309183291728
40
-0.072873555280630872
40
0
40
0
40
0
40
0
10
77.662857064814474
20
-34.954285199352128
30
0
10
77.503897761801156
20
-34.774684653761213
30
0
10
77.182742929179085
20
-34.411827104283567
30
0
10
76.761377305736119
20
-34.172365384051417
30
0
10
76.548571476550009
20
-34.051428014942026
30
0
0
SPLINE
5
233
100
AcDbEntity
8
0
100
AcDbSpline
70
0
71
3
72
9
73
5
74
0
42
0.000000001
43
0.0000000001
44
0.0000000001
40
-0.14949610605337355
40
-0.14949610605337355
40
-0.14949610605337355
40
-0.14949610605337355
40
-0.075472107860672544
40
0
40
0
40
0
40
0
10
76.548571476550009
20
-34.051428014942026
30
0
10
76.31995907251266
20
-33.953097267072209
30
0
10
75.858261987330707
20
-33.754512155881848
30
0
10
75.356279658052344
20
-33.727780412308057
30
0
10
75.102857241244223
20
-33.714285070606081
30
0
0
SPLINE
5
234
100
AcDbEntity
8
0
100
AcDbSpline
70
0
71
3
72
9
73
5
74
0
42
0.000000001
43
0.0000000001
44
0.0000000001
40
-0.13005769125568312
40
-0.13005769125568312
40
-0.13005769125568312
40
-0.13005769125568312
40
-0.064320968219468144
40
0
40
0
40
0
40
0
10
75.102857241244223
20
-33.714285070606081
30
0
10
74.882531190733317
20
-33.7244112847251
30
0
10
74.446624194926045
20
-33.744445627306419
30
0
10
74.036911828593745
20
-33.894406682127503
30
0
10
73.834285626025107
20
-33.968571002193301
30
0
0
SPLINE
5
235
100
AcDbEntity
8
0
100
AcDbSpline
70
0
71
3
72
9
73
5
74
0
42
0.000000001
43
0.0000000001
44
0.0000000001
40
-0.1267420507126405
40
-0.1267420507126405
40
-0.1267420507126405
40
-0.1267420507126405
40
-0.063168684012313125
40
0
40
0
40
0
40
0
10
73.834285626025107
20
-33.968571002193301
30
0
10
73.642384844910026
20
-34.061305491860658
30
0
10
73.259804846488151
20
-34.246184160433209
30
0
10
72.945313838239201
20
-34.531888953737784
30
0
10
72.788570413203146
20
-34.674285227962336
30
0
0
SPLINE
5
236
100
AcDbEntity
8
0
100
AcDbSpline
70
0
71
3
72
9
73
5
74
0
42
0.000000001
43
0.0000000001
44
0.0000000001
40
-0.12674201115102771
40
-0.12674201115102771
40
-0.12674201115102771
40
-0.12674201115102771
40
-0.063573419070439091
40
0
40
0
40
0
40
0
10
72.788570413203146
20
-34.674285227962336
30
0
10
72.646174091416668
20
-34.831028218934023
30
0
10
72.360468876066889
20
-35.145518715797309
30
0
10
72.175590590383905
20
-35.528098801739411
30
0
10
72.082856187434103
20
-35.719999844737849
30
0
0
SPLINE
5
237
100
AcDbEntity
8
0
100
AcDbSpline
70
0
71
3
72
9
73
5
74
0
42
0.000000001
43
0.0000000001
44
0.0000000001
40
-0.13005765927291013
40
-0.13005765927291013
40
-0.13005765927291013
40
-0.13005765927291013
40
-0.0657366694750946
40
0
40
0
40
0
40
0
10
72.082856187434103
20
-35.719999844737849
30
0
10
72.008692410803135
20
-35.922626281250658
30
0
10
71.858732541998506
20
-36.33233888241714
30
0
10
71.83869744271918
20
-36.768245650091217
30
0
10
71.828570851893332
20
-36.988571459956965
30
0
0
LINE
5
238
100
AcDbEntity
8
0
100
AcDbLine
10
12.615531725908625
20
17.149961715916515
30
0
11
12.615531725908626
21
16.300689107159492
31
0
0
LINE
5
239
100
AcDbEntity
8
0
100
AcDbLine
10
12.615531725908626
20
16.300689107159492
30
0
11
11.337796492601742
21
16.300689107159489
31
0
0
SPLINE
5
240
100
AcDbEntity
8
0
100
AcDbSpline
70
0
71
3
72
9
73
5
74
0
42
0.000000001
43
0.0000000001
44
0.0000000001
40
-0.011433884120851319
40
-0.011433884120851319
40
-0.011433884120851319
40
-0.011433884120851319
40
-0.0055513489127997718
40
0
40
0
40
0
40
0
10
11.337796492601742
20
16.300689107159489
30
0
10
11.33165868377823
20
16.319313116206114
30
0
10
11.319728624312042
20
16.355512603973455
30
0
10
11.308714172736252
20
16.392000988288132
30
0
10
11.303366465593685
20
16.409716731289738
30
0
0
SPLINE
5
241
100
AcDbEntity
8
0
100
AcDbSpline
70
0
71
3
72
9
73
5
74
0
42
0.000000001
43
0.0000000001
44
0.0000000001
40
-0.011229799262027901
40
-0.011229799262027901
40
-0.011229799262027901
40
-0.011229799262027901
40
-0.00573138613691789
40
0
40
0
40
0
40
0
10
11.303366465593685
20
16.409716731289738
30
0
10
11.298387256203126
20
16.427361408786091
30
0
10
11.288217863567962
20
16.463398385604428
30
0
10
11.280517794200385
20
16.500043083680399
30
0
10
11.276587886835445
20
16.518745547512882
30
0
0
SPLINE
5
242
100
AcDbEntity
8
0
100
AcDbSpline
70
0
71
3
72
9
73
5
74
0
42
0.000000001
43
0.0000000001
44
0.0000000001
40
-0.012366809152460388
40
-0.012366809152460388
40
-0.012366809152460388
40
-0.012366809152460388
40
-0.0063527851385405433
40
0
40
0
40
0
40
0
10
11.276587886835445
20
16.518745547512882
30
0
10
11.27297692500748
20
16.53847358002254
30
0
10
11.265551601184377
20
16.579040896088408
30
0
10
11.261469720617164
20
16.62008093664906
30
0
10
11.259372873331417
20
16.641163057068699
30
0
0
SPLINE
5
243
100
AcDbEntity
8
0
100
AcDbSpline
70
0
71
3
72
9
73
5
74
0
42
0.000000001
43
0.0000000001
44
0.0000000001
40
-0.015316535172730267
40
-0.015316535172730267
40
-0.015316535172730267
40
-0.015316535172730267
40
-0.0082262163487849295
40
0
40
0
40
0
40
0
10
11.259372873331417
20
16.641163057068699
30
0
10
11.257701808497751
20
16.66474462739188
30
0
10
11.254091967539077
20
16.715685630222865
30
0
10
11.253794111096788
20
16.766756165590092
30
0
10
11.253634138132442
20
16.794185167530888
30
0
0
SPLINE
5
244
100
AcDbEntity
8
0
100
AcDbSpline
70
0
71
3
72
9
73
5
74
0
42
0.000000001
43
0.0000000001
44
0.0000000001
40
-0.063845733283335496
40
-0.063845733283335496
40
-0.063845733283335496
40
-0.063845733283335496
40
-0.029764706740597915
40
0
40
0
40
0
40
0
10
11.253634138132442
20
16.794185167530888
30
0
10
11.257094141281145
20
16.908628352800481
30
0
10
11.263575942464996
20
17.12302063566365
30
0
10
11.337679597652318
20
17.324037138369377
30
0
10
11.372226519609793
20
17.417750483731144
30
0
0
SPLINE
5
245
100
AcDbEntity
8
0
100
AcDbSpline
70
0
71
3
72
9
73
5
74
0
42
0.000000001
43
0.0000000001
44
0.0000000001
40
-0.054558176863717361
40
-0.054558176863717361
40
-0.054558176863717361
40
-0.054558176863717361
40
-0.027130540058539439
40
0
40
0
40
0
40
0
10
11.372226519609793
20
17.417750483731144
30
0
10
11.415935612683219
20
17.499133374346098
30
0
10
11.502880341002001
20
17.661017614369751
30
0
10
11.644292852204998
20
17.778318089495329
30
0
10
11.714614076639517
20
17.836648946980354
30
0
0
SPLINE
5
246
100
AcDbEntity
8
0
100
AcDbSpline
70
0
71
3
72
9
73
5
74
0
42
0.000000001
43
0.0000000001
44
0.0000000001
40
-0.059505215957217888
40
-0.059505215957217888
40
-0.059505215957217888
40
-0.059505215957217888
40
-0.031046735046020985
40
0
40
0
40
0
40
0
10
11.714614076639517
20
17.836648946980354
30
0
10
11.795334332285815
20
17.887567831320904
30
0
10
11.964116224029908
20
17.994036592546774
30
0
10
12.157135183601444
20
18.045217078230191
30
0
10
12.257842464472159
20
18.071920400837776
30
0
0
SPLINE
5
247
100
AcDbEntity
8
0
100
AcDbSpline
70
0
71
3
72
9
73
5
74
0
42
0.000000001
43
0.0000000001
44
0.0000000001
40
-0.072208279788481794
40
-0.072208279788481794
40
-0.072208279788481794
40
-0.072208279788481794
40
-0.037868849574944505
40
0
40
0
40
0
40
0
10
12.257842464472159
20
18.071920400837776
30
0
10
12.370541848383683
20
18.093106658845155
30
0
10
12.607523900644555
20
18.137656706308221
30
0
10
12.848668582254895
20
18.14221541409686
30
0
10
12.975134296442373
20
18.144606178978801
30
0
0
SPLINE
5
248
100
AcDbEntity
8
0
100
AcDbSpline
70
0
71
3
72
9
73
5
74
0
42
0.000000001
43
0.0000000001
44
0.0000000001
40
-0.074984540125975885
40
-0.074984540125975885
40
-0.074984540125975885
40
-0.074984540125975885
40
-0.035702665091554855
40
0
40
0
40
0
40
0
10
12.975134296442373
20
18.144606178978801
30
0
10
13.106451002454854
20
18.141502654261579
30
0
10
13.357119352745549
20
18.135578385792044
30
0
10
13.601116456830065
20
18.078199826070144
30
0
10
13.717291696096762
20
18.05087996123207
30
0
0
SPLINE
5
249
100
AcDbEntity
8
0
100
AcDbSpline
70
0
71
3
72
9
73
5
74
0
42
0.000000001
43
0.0000000001
44
0.0000000001
40
-0.062246516436833307
40
-0.062246516436833307
40
-0.062246516436833307
40
-0.062246516436833307
40
-0.029795450346103709
40
0
40
0
40
0
40
0
10
13.717291696096762
20
18.05087996123207
30
0
10
13.820889663304117
20
18.017365073240384
30
0
10
14.019607713138457
20
17.953077970301447
30
0
10
14.190294742069474
20
17.832944268945717
30
0
10
14.271997256304129
20
17.775440043190844
30
0
0
SPLINE
5
250
100
AcDbEntity
8
0
100
AcDbSpline
70
0
71
3
72
9
73
5
74
0
42
0.000000001
43
0.0000000001
44
0.0000000001
40
-0.057407247023708891
40
-0.057407247023708891
40
-0.057407247023708891
40
-0.057407247023708891
40
-0.028867406755363718
40
0
40
0
40
0
40
0
10
14.271997256304129
20
17.775440043190844
30
0
10
14.34304431010192
20
17.710948788791079
30
0
10
14.485953861428325
20
17.581226080556359
30
0
10
14.575229920006862
20
17.410083915985123
30
0
10
14.62012265446316
20
17.324024564007647
30
0
0
SPLINE
5
251
100
AcDbEntity
8
0
100
AcDbSpline
70
0
71
3
72
9
73
5
74
0
42
0.000000001
43
0.0000000001
44
0.0000000001
40
-0.06372374037737305
40
-0.06372374037737305
40
-0.06372374037737305
40
-0.06372374037737305
40
-0.03327989182536701
40
0
40
0
40
0
40
0
10
14.62012265446316
20
17.324024564007647
30
0
10
14.655808430631943
20
17.228295861240944
30
0
10
14.730504346027134
20
17.027920701991693
30
0
10
14.738411125543319
20
16.814060839334065
30
0
10
14.742540462042202
20
16.702371960858233
30
0
0
SPLINE
5
252
100
AcDbEntity
8
0
100
AcDbSpline
70
0
71
3
72
9
73
5
74
0
42
0.000000001
43
0.0000000001
44
0.0000000001
40
-0.069718792377262001
40
-0.069718792377262001
40
-0.069718792377262001
40
-0.069718792377262001
40
-0.034982972911637593
40
0
40
0
40
0
40
0
10
14.742540462042202
20
16.702371960858233
30
0
10
14.738903414281491
20
16.586368317388114
30
0
10
14.73160344031813
20
16.353535637505527
30
0
10
14.681570532085544
20
16.126020262654002
30
0
10
14.656465394522062
20
16.011859303692706
30
0
0
SPLINE
5
253
100
AcDbEntity
8
0
100
AcDbSpline
70
0
71
3
72
9
73
5
74
0
42
0.000000001
43
0.0000000001
44
0.0000000001
40
-0.066382188889195254
40
-0.066382188889195254
40
-0.066382188889195254
40
-0.066382188889195254
40
-0.03219043820858173
40
0
40
0
40
0
40
0
10
14.656465394522062
20
16.011859303692706
30
0
10
14.626492070890473
20
15.901716347174574
30
0
10
14.568299823013644
20
15.687877324636698
30
0
10
14.479538568386275
20
15.484839540794898
30
0
10
14.436495943094606
20
15.386381274441607
30
0
0
LINE
5
254
100
AcDbEntity
8
0
100
AcDbLine
10
14.436495943094606
20
15.386381274441607
30
0
11
15.366105778242463
21
15.386381274441611
31
0
0
SPLINE
5
255
100
AcDbEntity
8
0
100
AcDbSpline
70
0
71
3
72
9
73
5
74
0
42
0.000000001
43
0.0000000001
44
0.0000000001
40
-0.067159063882656689
40
-0.067159063882656689
40
-0.067159063882656689
40
-0.067159063882656689
40
-0.033388628413335897
40
0
40
0
40
0
40
0
10
15.366105778242463
20
15.386381274441611
30
0
10
15.397529905184966
20
15.494538036817225
30
0
10
15.460022879274851
20
15.709628745976838
30
0
10
15.503333720712895
20
15.929385014269082
30
0
10
15.524866027857176
20
16.038638478497397
30
0
0
SPLINE
5
256
100
AcDbEntity
8
0
100
AcDbSpline
70
0
71
3
72
9
73
5
74
0
42
0.000000001
43
0.0000000001
44
0.0000000001
40
-0.067467841812818785
40
-0.067467841812818785
40
-0.067467841812818785
40
-0.067467841812818785
40
-0.034031894610913146
40
0
40
0
40
0
40
0
10
15.524866027857176
20
16.038638478497397
30
0
10
15.542160380843711
20
16.148882219664017
30
0
10
15.577057333650362
20
16.371334637266198
30
0
10
15.581780216462422
20
16.596464092578533
30
0
10
15.584162516619076
20
16.71002311108483
30
0
0
SPLINE
5
257
100
AcDbEntity
8
0
100
AcDbSpline
70
0
71
3
72
9
73
5
74
0
42
0.000000001
43
0.0000000001
44
0.0000000001
40
-0.10550330919141937
40
-0.10550330919141937
40
-0.10550330919141937
40
-0.10550330919141937
40
-0.050375231041048692
40
0
40
0
40
0
40
0
10
15.584162516619076
20
16.71002311108483
30
0
10
15.578116348213957
20
16.894763783879213
30
0
10
15.566545279602993
20
17.248317779882704
30
0
10
15.456774211930677
20
17.584376148274455
30
0
10
15.404361231352194
20
17.7448357403077
30
0
0
SPLINE
5
258
100
AcDbEntity
8
0
100
AcDbSpline
70
0
71
3
72
9
73
5
74
0
42
0.000000001
43
0.0000000001
44
0.0000000001
40
-0.093248869639310172
40
-0.093248869639310172
40
-0.093248869639310172
40
-0.093248869639310172
40
-0.045997155681251449
40
0
40
0
40
0
40
0
10
15.404361231352194
20
17.7448357403077
30
0
10
15.338439371517744
20
17.889327060887311
30
0
10
15.208345912483864
20
18.174473380208124
30
0
10
14.989917726003998
20
18.399129686161565
30
0
10
14.88217298510204
20
18.509946590641864
30
0
0
SPLINE
5
259
100
AcDbEntity
8
0
100
AcDbSpline
70
0
71
3
72
9
73
5
74
0
42
0.000000001
43
0.0000000001
44
0.0000000001
40
-0.09665273430094444
40
-0.09665273430094444
40
-0.09665273430094444
40
-0.09665273430094444
40
-0.049762843594669912
40
0
40
0
40
0
40
0
10
14.88217298510204
20
18.509946590641864
30
0
10
14.759433280174241
20
18.608405945622067
30
0
10
14.506433584293621
20
18.811357279758369
30
0
10
14.202680408943944
20
18.925531320004183
30
0
10
14.046289367700915
20
18.984315222481612
30
0
0
SPLINE
5
260
100
AcDbEntity
8
0
100
AcDbSpline
70
0
71
3
72
9
73
5
74
0
42
0.000000001
43
0.0000000001
44
0.0000000001
40
-0.11324068982458894
40
-0.11324068982458894
40
-0.11324068982458894
40
-0.11324068982458894
40
-0.059244399777334741
40
0
40
0
40
0
40
0
10
14.046289367700915
20
18.984315222481612
30
0
10
13.871958802907205
20
19.031708308976533
30
0
10
13.506353806758881
20
19.131100800625568
30
0
10
13.127456169142683
20
19.141474245513251
30
0
10
12.929227395082812
20
19.146901345232845
30
0
0
SPLINE
5
261
100
AcDbEntity
8
0
100
AcDbSpline
70
0
71
3
72
9
73
5
74
0
42
0.000000001
43
0.0000000001
44
0.0000000001
40
-0.11046939553986321
40
-0.11046939553986321
40
-0.11046939553986321
40
-0.11046939553986321
40
-0.052096694301430616
40
0
40
0
40
0
40
0
10
12.929227395082812
20
19.146901345232845
30
0
10
12.73389876289813
20
19.142045359999813
30
0
10
12.364242477146819
20
19.132855486273517
30
0
10
12.007284028277919
20
19.037116361165062
30
0
10
11.838944597269396
20
18.991966372708198
30
0
0
SPLINE
5
262
100
AcDbEntity
8
0
100
AcDbSpline
70
0
71
3
72
9
73
5
74
0
42
0.000000001
43
0.0000000001
44
0.0000000001
40
-0.091052223231668755
40
-0.091052223231668755
40
-0.091052223231668755
40
-0.091052223231668755
40
-0.043876958306794264
40
0
40
0
40
0
40
0
10
11.838944597269396
20
18.991966372708198
30
0
10
11.690551390184371
20
18.936534732575488
30
0
10
11.404140037983478
20
18.829547011796418
30
0
10
11.165754896744849
20
18.638400505776474
30
0
10
11.050879998232226
20
18.546289330700748
30
0
0
SPLINE
5
263
100
AcDbEntity
8
0
100
AcDbSpline
70
0
71
3
72
9
73
5
74
0
42
0.000000001
43
0.0000000001
44
0.0000000001
40
-0.08583731190010413
40
-0.08583731190010413
40
-0.08583731190010413
40
-0.08583731190010413
40
-0.043289990295917916
40
0
40
0
40
0
40
0
10
11.050879998232226
20
18.546289330700748
30
0
10
10.951347990051916
20
18.443605780562756
30
0
10
10.750546630340079
20
18.23644632638603
30
0
10
10.632313624241458
20
17.973224161271396
30
0
10
10.572685642267569
20
17.840474373082035
30
0
0
SPLINE
5
264
100
AcDbEntity
8
0
100
AcDbSpline
70
0
71
3
72
9
73
5
74
0
42
0.000000001
43
0.0000000001
44
0.0000000001
40
-0.095313344932293431
40
-0.095313344932293431
40
-0.095313344932293431
40
-0.095313344932293431
40
-0.049560575109506767
40
0
40
0
40
0
40
0
10
10.572685642267569
20
17.840474373082035
30
0
10
10.525843084353909
20
17.694522064193698
30
0
10
10.428259464887182
20
17.390470466561013
30
0
10
10.417570419853613
20
17.071159751869644
30
0
10
10.412012381578792
20
16.905126100758427
30
0
0
SPLINE
5
265
100
AcDbEntity
8
0
100
AcDbSpline
70
0
71
3
72
9
73
5
74
0
42
0.000000001
43
0.0000000001
44
0.0000000001
40
-0.081946076194101575
40
-0.081946076194101575
40
-0.081946076194101575
40
-0.081946076194101575
40
-0.0395349257574589
40
0
40
0
40
0
40
0
10
10.412012381578792
20
16.905126100758427
30
0
10
10.414728338693847
20
16.763549273149017
30
0
10
10.41997606308705
20
16.489997026082971
30
0
10
10.466215195205175
20
16.220366771308502
30
0
10
10.488523287798275
20
16.090283519009464
30
0
0
SPLINE
5
266
100
AcDbEntity
8
0
100
AcDbSpline
70
0
71
3
72
9
73
5
74
0
42
0.000000001
43
0.0000000001
44
0.0000000001
40
-0.075862702277144728
40
-0.075862702277144728
40
-0.075862702277144728
40
-0.075862702277144728
40
-0.037863768650579527
40
0
40
0
40
0
40
0
10
10.488523287798275
20
16.090283519009464
30
0
10
10.51748600173819
20
15.966692834611489
30
0
10
10.57530840713394
20
15.719951086886304
30
0
10
10.675634420008389
20
15.487231465696338
30
0
10
10.725708050752992
20
15.371078973988407
30
0
0
LINE
5
267
100
AcDbEntity
8
0
100
AcDbLine
10
10.725708050752992
20
15.371078973988407
30
0
11
13.392119450594301
21
15.371078973988418
31
0
0
LINE
5
268
100
AcDbEntity
8
0
100
AcDbLine
10
13.392119450594301
20
15.371078973988418
30
0
11
13.392119450594294
21
17.149961715916518
31
0
0
LINE
5
269
100
AcDbEntity
8
0
100
AcDbLine
10
13.392119450594294
20
17.149961715916518
30
0
11
12.615531725908625
21
17.149961715916515
31
0
0
SPLINE
5
270
100
AcDbEntity
8
0
100
AcDbSpline
70
0
71
3
72
9
73
5
74
0
42
0.000000001
43
0.0000000001
44
0.0000000001
40
-0.073554863633737463
40
-0.073554863633737463
40
-0.073554863633737463
40
-0.073554863633737463
40
-0.034555613084973839
40
0
40
0
40
0
40
0
10
12.975134296442395
20
11.847742921093825
30
0
10
12.844979775164507
20
11.849500559176192
30
0
10
12.599500748537087
20
11.85281556722499
30
0
10
12.356636338779996
20
11.88840636396883
30
0
10
12.242540164018994
20
11.90512669680488
30
0
0
SPLINE
5
271
100
AcDbEntity
8
0
100
AcDbSpline
70
0
71
3
72
9
73
5
74
0
42
0.000000001
43
0.0000000001
44
0.0000000001
40
-0.056871368973657209
40
-0.056871368973657209
40
-0.056871368973657209
40
-0.056871368973657209
40
-0.026554442550764456
40
0
40
0
40
0
40
0
10
12.242540164018994
20
11.90512669680488
30
0
10
12.143070985603131
20
11.925448374795149
30
0
10
11.95647725679679
20
11.963569707776834
30
0
10
11.785079258445492
20
12.046299430393002
30
0
10
11.705049915338879
20
12.08492768404853
30
0
0
SPLINE
5
272
100
AcDbEntity
8
0
100
AcDbSpline
70
0
71
3
72
9
73
5
74
0
42
0.000000001
43
0.0000000001
44
0.0000000001
40
-0.046146134083602831
40
-0.046146134083602831
40
-0.046146134083602831
40
-0.046146134083602831
40
-0.022397196206129372
40
0
40
0
40
0
40
0
10
11.705049915338879
20
12.08492768404853
30
0
10
11.637339828444249
20
12.1276872723013
30
0
10
11.50577357631237
20
12.210772659237424
30
0
10
11.417152027775369
20
12.338528636120905
30
0
10
11.374139232660653
20
12.400535470227116
30
0
0
SPLINE
5
273
100
AcDbEntity
8
0
100
AcDbSpline
70
0
71
3
72
9
73
5
74
0
42
0.000000001
43
0.0000000001
44
0.0000000001
40
-0.048259491382655673
40
-0.048259491382655673
40
-0.048259491382655673
40
-0.048259491382655673
40
-0.025358340143000004
40
0
40
0
40
0
40
0
10
11.374139232660653
20
12.400535470227116
30
0
10
11.341246713190426
20
12.470297568134239
30
0
10
11.271932457181386
20
12.617306918343452
30
0
10
11.264952999094483
20
12.779903267726569
30
0
10
11.261285586382272
20
12.86534083483588
30
0
0
SPLINE
5
274
100
AcDbEntity
8
0
100
AcDbSpline
70
0
71
3
72
9
73
5
74
0
42
0.000000001
43
0.0000000001
44
0.0000000001
40
-0.093048530042297906
40
-0.093048530042297906
40
-0.093048530042297906
40
-0.093048530042297906
40
-0.04535304596738423
40
0
40
0
40
0
40
0
10
11.261285586382272
20
12.86534083483588
30
0
10
11.277556210806798
20
13.031557648587507
30
0
10
11.309298370781411
20
13.355827974969152
30
0
10
11.570221692416276
20
13.549461308389404
30
0
10
11.697399063135503
20
13.643840676525947
30
0
0
SPLINE
5
275
100
AcDbEntity
8
0
100
AcDbSpline
70
0
71
3
72
9
73
5
74
0
42
0.000000001
43
0.0000000001
44
0.0000000001
40
-0.13544904307302907
40
-0.13544904307302907
40
-0.13544904307302907
40
-0.13544904307302907
40
-0.077697711882067866
40
0
40
0
40
0
40
0
10
11.697399063135503
20
13.643840676525947
30
0
10
11.878481193137516
20
13.713200748408607
30
0
10
12.303188307598582
20
13.875876745138759
30
0
10
12.759364177279622
20
13.880364080047038
30
0
10
13.021040601755498
20
13.882938152531509
30
0
0
SPLINE
5
276
100
AcDbEntity
8
0
100
AcDbSpline
70
0
71
3
72
9
73
5
74
0
42
0.000000001
43
0.0000000001
44
0.0000000001
40
-0.073554831870892429
40
-0.073554831870892429
40
-0.073554831870892429
40
-0.073554831870892429
40
-0.034555583514696377
40
0
40
0
40
0
40
0
10
13.021040601755498
20
13.882938152531509
30
0
10
13.15119512550889
20
13.881180770370211
30
0
10
13.396674064602232
20
13.877866246248454
30
0
10
13.639538362371685
20
13.842275346844273
30
0
10
13.753634436155675
20
13.825554972866897
30
0
0
SPLINE
5
277
100
AcDbEntity
8
0
100
AcDbSpline
70
0
71
3
72
9
73
5
74
0
42
0.000000001
43
0.0000000001
44
0.0000000001
40
-0.056940729080525207
40
-0.056940729080525207
40
-0.056940729080525207
40
-0.056940729080525207
40
-0.02661212647169597
40
0
40
0
40
0
40
0
10
13.753634436155675
20
13.825554972866897
30
0
10
13.853146376109351
20
13.805153390610936
30
0
10
14.039976032795549
20
13.766850242159499
30
0
10
14.211132413147913
20
13.683020021100509
30
0
10
14.291124982859014
20
13.643840676525958
30
0
0
SPLINE
5
278
100
AcDbEntity
8
0
100
AcDbSpline
70
0
71
3
72
9
73
5
74
0
42
0.000000001
43
0.0000000001
44
0.0000000001
40
-0.046127798653377183
40
-0.046127798653377183
40
-0.046127798653377183
40
-0.046127798653377183
40
-0.022322296255215715
40
0
40
0
40
0
40
0
10
14.291124982859014
20
13.643840676525958
30
0
10
14.35877272371407
20
13.600695088823173
30
0
10
14.48985340066541
20
13.517092107081886
30
0
10
14.578929437163854
20
13.38982186830431
30
0
10
14.622035367514014
20
13.328232890347369
30
0
0
SPLINE
5
279
100
AcDbEntity
8
0
100
AcDbSpline
70
0
71
3
72
9
73
5
74
0
42
0.000000001
43
0.0000000001
44
0.0000000001
40
-0.048078681545755647
40
-0.048078681545755647
40
-0.048078681545755647
40
-0.048078681545755647
40
-0.025310778648941719
40
0
40
0
40
0
40
0
10
14.622035367514014
20
13.328232890347369
30
0
10
14.654926079206289
20
13.258954883045227
30
0
10
14.724380963146761
20
13.112661424824692
30
0
10
14.731265160794237
20
12.950637506754791
30
0
10
14.734889311815621
20
12.865340834835894
30
0
0
SPLINE
5
280
100
AcDbEntity
8
0
100
AcDbSpline
70
0
71
3
72
9
73
5
74
0
42
0.000000001
43
0.0000000001
44
0.0000000001
40
-0.093248240453023656
40
-0.093248240453023656
40
-0.093248240453023656
40
-0.093248240453023656
40
-0.045319923099059738
40
0
40
0
40
0
40
0
10
14.734889311815621
20
12.865340834835894
30
0
10
14.718838935350945
20
12.698206474937589
30
0
10
14.687611689193179
20
12.373033678557945
30
0
10
14.425948183643616
20
12.179155255381236
30
0
10
14.298776133085614
20
12.084927684048541
30
0
0
SPLINE
5
281
100
AcDbEntity
8
0
100
AcDbSpline
70
0
71
3
72
9
73
5
74
0
42
0.000000001
43
0.0000000001
44
0.0000000001
40
-0.13540103660528308
40
-0.13540103660528308
40
-0.13540103660528308
40
-0.13540103660528308
40
-0.077694074085617459
40
0
40
0
40
0
40
0
10
14.298776133085614
20
12.084927684048541
30
0
10
14.117663720311091
20
12.016123947531479
30
0
10
13.692709653054527
20
11.854685936588659
30
0
10
13.236760913486203
20
11.850274331403913
30
0
10
12.975134296442395
20
11.847742921093825
30
0
0
SPLINE
5
282
100
AcDbEntity
8
0
100
AcDbSpline
70
0
71
3
72
9
73
5
74
0
42
0.000000001
43
0.0000000001
44
0.0000000001
40
-0.19982031647667431
40
-0.19982031647667431
40
-0.19982031647667431
40
-0.19982031647667431
40
-0.088659919128926054
40
0
40
0
40
0
40
0
10
13.021040601755507
20
10.853098756054759
30
0
10
13.398167956780199
20
10.86271064079873
30
0
10
14.076086615142851
20
10.879988825271827
30
0
10
14.667557859888154
20
11.205840867029638
30
0
10
14.929992599512465
20
11.3504208385743
30
0
0
SPLINE
5
283
100
AcDbEntity
8
0
100
AcDbSpline
70
0
71
3
72
9
73
5
74
0
42
0.000000001
43
0.0000000001
44
0.0000000001
40
-0.167034565480493
40
-0.167034565480493
40
-0.167034565480493
40
-0.167034565480493
40
-0.087990737896509963
40
0
40
0
40
0
40
0
10
14.929992599512465
20
11.3504208385743
30
0
10
15.120643636010787
20
11.544624133181793
30
0
10
15.523525353828258
20
11.955012444592658
30
0
10
15.563241029114657
20
12.531207351329066
30
0
10
15.584162516619088
20
12.834736233929526
30
0
0
SPLINE
5
284
100
AcDbEntity
8
0
100
AcDbSpline
70
0
71
3
72
9
73
5
74
0
42
0.000000001
43
0.0000000001
44
0.0000000001
40
-0.08161058208777669
40
-0.08161058208777669
40
-0.08161058208777669
40
-0.08161058208777669
40
-0.040260734233679547
40
0
40
0
40
0
40
0
10
15.584162516619088
20
12.834736233929526
30
0
10
15.578133917137162
20
12.973276911004973
30
0
10
15.566235505451825
20
13.246709242336792
30
0
10
15.475769476649502
20
13.504961493209656
30
0
10
15.431140108133672
20
13.632364398220908
30
0
0
SPLINE
5
285
100
AcDbEntity
8
0
100
AcDbSpline
70
0
71
3
72
9
73
5
74
0
42
0.000000001
43
0.0000000001
44
0.0000000001
40
-0.080828292579860198
40
-0.080828292579860198
40
-0.080828292579860198
40
-0.080828292579860198
40
-0.040884444200309643
40
0
40
0
40
0
40
0
10
15.431140108133672
20
13.632364398220908
30
0
10
15.372675079370284
20
13.753234431672727
30
0
10
15.254368290157744
20
13.9978207403115
30
0
10
15.059277453242979
20
14.187011905383706
30
0
10
14.960596902395604
20
14.2827082931794
30
0
0
SPLINE
5
286
100
AcDbEntity
8
0
100
AcDbSpline
70
0
71
3
72
9
73
5
74
0
42
0.000000001
43
0.0000000001
44
0.0000000001
40
-0.092562733668760389
40
-0.092562733668760389
40
-0.092562733668760389
40
-0.092562733668760389
40
-0.048739152369563575
40
0
40
0
40
0
40
0
10
14.960596902395604
20
14.2827082931794
30
0
10
14.843457714273791
20
14.371454979717555
30
0
10
14.596040156172659
20
14.558902825523038
30
0
10
14.303576801891412
20
14.663661049740654
30
0
10
14.149579448725101
20
14.718821769932633
30
0
0
SPLINE
5
287
100
AcDbEntity
8
0
100
AcDbSpline
70
0
71
3
72
9
73
5
74
0
42
0.000000001
43
0.0000000001
44
0.0000000001
40
-0.11886494512309179
40
-0.11886494512309179
40
-0.11886494512309179
40
-0.11886494512309179
40
-0.063532650970681878
40
0
40
0
40
0
40
0
10
14.149579448725101
20
14.718821769932633
30
0
10
13.970381473785858
20
14.765068025485684
30
0
10
13.585428025106294
20
14.864414324291237
30
0
10
13.187711541335821
20
14.872995647905416
30
0
10
12.975134296442384
20
14.877582317570571
30
0
0
SPLINE
5
288
100
AcDbEntity
8
0
100
AcDbSpline
70
0
71
3
72
9
73
5
74
0
42
0.000000001
43
0.0000000001
44
0.0000000001
40
-0.19962611468099703
40
-0.19962611468099703
40
-0.19962611468099703
40
-0.19962611468099703
40
-0.088703288231566535
40
0
40
0
40
0
40
0
10
12.975134296442384
20
14.877582317570571
30
0
10
12.598845862184129
20
14.867819615074353
30
0
10
11.921645320737264
20
14.850249828669799
30
0
10
11.33068605626605
20
14.524850491776409
30
0
10
11.06809501173627
20
14.380260235051029
30
0
0
SPLINE
5
289
100
AcDbEntity
8
0
100
AcDbSpline
70
0
71
3
72
9
73
5
74
0
42
0.000000001
43
0.0000000001
44
0.0000000001
40
-0.16713259401275268
40
-0.16713259401275268
40
-0.16713259401275268
40
-0.16713259401275268
40
-0.087999635248644251
40
0
40
0
40
0
40
0
10
11.06809501173627
20
14.380260235051029
30
0
10
10.8768837037727
20
14.186126535389377
30
0
10
10.473036275297449
20
13.776106875863373
30
0
10
10.433060605882879
20
13.199528351534656
30
0
10
10.412012381578805
20
12.895944839695803
30
0
0
SPLINE
5
290
100
AcDbEntity
8
0
100
AcDbSpline
70
0
71
3
72
9
73
5
74
0
42
0.000000001
43
0.0000000001
44
0.0000000001
40
-0.08161058208777669
40
-0.08161058208777669
40
-0.08161058208777669
40
-0.08161058208777669
40
-0.040260734233679547
40
0
40
0
40
0
40
0
10
10.412012381578805
20
12.895944839695803
30
0
10
10.418040981060733
20
12.757404162620357
30
0
10
10.429939392746071
20
12.483971831288541
30
0
10
10.520405421548391
20
12.225719580415673
30
0
10
10.565034790064221
20
12.098316675404423
30
0
0
SPLINE
5
291
100
AcDbEntity
8
0
100
AcDbSpline
70
0
71
3
72
9
73
5
74
0
42
0.000000001
43
0.0000000001
44
0.0000000001
40
-0.080828322014908416
40
-0.080828322014908416
40
-0.080828322014908416
40
-0.080828322014908416
40
-0.040884488120757442
40
0
40
0
40
0
40
0
10
10.565034790064221
20
12.098316675404423
30
0
10
10.623499731441758
20
11.977446658359536
30
0
10
10.741806429811493
20
11.732860205152742
30
0
10
10.936897140637608
20
11.5436687744893
30
0
10
11.035577697779066
20
11.447972184399479
30
0
0
SPLINE
5
292
100
AcDbEntity
8
0
100
AcDbSpline
70
0
71
3
72
9
73
5
74
0
42
0.000000001
43
0.0000000001
44
0.0000000001
40
-0.092562738113292131
40
-0.092562738113292131
40
-0.092562738113292131
40
-0.092562738113292131
40
-0.048739156814095325
40
0
40
0
40
0
40
0
10
11.035577697779066
20
11.447972184399479
30
0
10
11.152716867826085
20
11.359225454649716
30
0
10
11.400134399630343
20
11.171777508573497
30
0
10
11.692597973849137
20
11.067019770359609
30
0
10
11.846595449472792
20
11.011859303692695
30
0
0
SPLINE
5
293
100
AcDbEntity
8
0
100
AcDbSpline
70
0
71
3
72
9
73
5
74
0
42
0.000000001
43
0.0000000001
44
0.0000000001
40
-0.11886495422594183
40
-0.11886495422594183
40
-0.11886495422594183
40
-0.11886495422594183
40
-0.063532647247086557
40
0
40
0
40
0
40
0
10
11.846595449472792
20
11.011859303692695
30
0
10
12.025793411825937
20
10.965612762699838
30
0
10
12.410746773713207
20
10.866265866133151
30
0
10
12.808463340974917
20
10.857685117679685
30
0
10
13.021040601755507
20
10.853098756054759
30
0
0
LWPOLYLINE
5
294
100
AcDbEntity
8
0
100
AcDbPolyline
90
9
70
1
43
0.0
10
35.500000053434604
20
15.410156454599178
10
35.500000053434604
20
14.584961142099178
10
38.988769584684604
20
14.584961142099184
10
37.682617240934604
20
13.278808798349182
10
38.249023490934611
20
12.717285360849184
10
40.529296928434604
20
14.997558798349184
10
38.249023490934604
20
17.282715048349182
10
37.682617240934604
20
16.711425985849178
10
38.988769584684604
20
15.410156454599182
0
LINE
5
295
100
AcDbEntity
8
0
100
AcDbLine
10
16.706054253603334
20
-9.8901366867326352
30
0
11
15.494792830493257
21
-9.8901366867326406
31
0
0
SPLINE
5
296
100
AcDbEntity
8
0
100
AcDbSpline
70
0
71
3
72
9
73
5
74
0
42
0.000000001
43
0.0000000001
44
0.0000000001
40
-0.08879701393776096
40
-0.08879701393776096
40
-0.08879701393776096
40
-0.08879701393776096
40
-0.049170722689731876
40
0
40
0
40
0
40
0
10
15.494792830493257
20
-9.8901366867326406
30
0
10
15.487874661156438
20
-9.7575013349609048
30
0
10
15.464740968234452
20
-9.4618176299408567
30
0
10
15.362514794705159
20
-9.1820300077197956
30
0
10
15.30590776922833
20
-9.0270995773576406
30
0
0
SPLINE
5
297
100
AcDbEntity
8
0
100
AcDbSpline
70
0
71
3
72
9
73
5
74
0
42
0.000000001
43
0.0000000001
44
0.0000000001
40
-0.096534726680487931
40
-0.096534726680487931
40
-0.096534726680487931
40
-0.096534726680487931
40
-0.048096138811800603
40
0
40
0
40
0
40
0
10
15.30590776922833
20
-9.0270995773576406
30
0
10
15.235159217394031
20
-8.8809212916996501
30
0
10
15.094162288811411
20
-8.5895981653758398
30
0
10
14.876181467286923
20
-8.3503839507354414
30
0
10
14.767577691103329
20
-8.2312011398576423
30
0
0
SPLINE
5
298
100
AcDbEntity
8
0
100
AcDbSpline
70
0
71
3
72
9
73
5
74
0
42
0.000000001
43
0.0000000001
44
0.0000000001
40
-0.096559267210027999
40
-0.096559267210027999
40
-0.096559267210027999
40
-0.096559267210027999
40
-0.048450814616758035
40
0
40
0
40
0
40
0
10
14.767577691103329
20
-8.2312011398576423
30
0
10
14.648038977369438
20
-8.1229534581511498
30
0
10
14.408110857066758
20
-7.9056877541150676
30
0
10
14.116687078219186
20
-7.764790284022725
30
0
10
13.970458550478323
20
-7.6940917648576459
30
0
0
SPLINE
5
299
100
AcDbEntity
8
0
100
AcDbSpline
70
0
71
3
72
9
73
5
74
0
42
0.000000001
43
0.0000000001
44
0.0000000001
40
-0.099487049042576908
40
-0.099487049042576908
40
-0.099487049042576908
40
-0.099487049042576908
40
-0.050374622169620617
40
0
40
0
40
0
40
0
10
13.970458550478323
20
-7.6940917648576459
30
0
10
13.815734688061825
20
-7.6374842282500488
30
0
10
13.502310541295348
20
-7.5228143345136296
30
0
10
13.168846779552069
20
-7.5076688074179838
30
0
10
12.999999566103323
20
-7.4999999679826495
30
0
0
SPLINE
5
300
100
AcDbEntity
8
0
100
AcDbSpline
70
0
71
3
72
9
73
5
74
0
42
0.000000001
43
0.0000000001
44
0.0000000001
40
-0.099457060341588896
40
-0.099457060341588896
40
-0.099457060341588896
40
-0.099457060341588896
40
-0.049085368594379536
40
0
40
0
40
0
40
0
10
12.999999566103323
20
-7.4999999679826495
30
0
10
12.831171958971892
20
-7.5076123440996989
30
0
10
12.497828032504955
20
-7.5226427019168574
30
0
10
12.184284665921279
20
-7.6366196469239123
30
0
10
12.029540581728323
20
-7.692871061732653
30
0
0
SPLINE
5
301
100
AcDbEntity
8
0
100
AcDbSpline
70
0
71
3
72
9
73
5
74
0
42
0.000000001
43
0.0000000001
44
0.0000000001
40
-0.096568974444371763
40
-0.096568974444371763
40
-0.096568974444371763
40
-0.096568974444371763
40
-0.048147270712764818
40
0
40
0
40
0
40
0
10
12.029540581728323
20
-7.692871061732653
30
0
10
11.883271116706045
20
-7.7633045206000562
30
0
10
11.591561177955821
20
-7.9037722523241545
30
0
10
11.351907668203626
20
-8.1214505771693304
30
0
10
11.232421441103329
20
-8.2299804367326566
30
0
0
SPLINE
5
302
100
AcDbEntity
8
0
100
AcDbSpline
70
0
71
3
72
9
73
5
74
0
42
0.000000001
43
0.0000000001
44
0.0000000001
40
-0.096632089370745966
40
-0.096632089370745966
40
-0.096632089370745966
40
-0.096632089370745966
40
-0.048465392326619477
40
0
40
0
40
0
40
0
10
11.232421441103329
20
-8.2299804367326566
30
0
10
11.123832194840535
20
-8.3494852662969361
30
0
10
10.905980309751655
20
-8.58923600860156
30
0
10
10.764866408933038
20
-8.880844594865545
30
0
10
10.694091362978329
20
-9.0270995773576583
30
0
0
SPLINE
5
303
100
AcDbEntity
8
0
100
AcDbSpline
70
0
71
3
72
9
73
5
74
0
42
0.000000001
43
0.0000000001
44
0.0000000001
40
-0.099727601966699095
40
-0.099727601966699095
40
-0.099727601966699095
40
-0.099727601966699095
40
-0.050556879276967219
40
0
40
0
40
0
40
0
10
10.694091362978329
20
-9.0270995773576583
30
0
10
10.637484337501501
20
-9.1820300077198098
30
0
10
10.522674495455986
20
-9.496258464136476
30
0
10
10.507627590343823
20
-9.8305373715389379
30
0
10
10.499999566103334
20
-9.9999999679826583
30
0
0
SPLINE
5
304
100
AcDbEntity
8
0
100
AcDbSpline
70
0
71
3
72
9
73
5
74
0
42
0.000000001
43
0.0000000001
44
0.0000000001
40
-0.099487049042576908
40
-0.099487049042576908
40
-0.099487049042576908
40
-0.099487049042576908
40
-0.049112426872956284
40
0
40
0
40
0
40
0
10
10.499999566103334
20
-9.9999999679826583
30
0
10
10.50766840553867
20
-10.168847181431405
30
0
10
10.522813932634318
20
-10.502310943174679
30
0
10
10.63748382637074
20
-10.815735089941157
30
0
10
10.694091362978337
20
-10.970458952357658
30
0
0
SPLINE
5
305
100
AcDbEntity
8
0
100
AcDbSpline
70
0
71
3
72
9
73
5
74
0
42
0.000000001
43
0.0000000001
44
0.0000000001
40
-0.096632089370745966
40
-0.096632089370745966
40
-0.096632089370745966
40
-0.096632089370745966
40
-0.048166697044126489
40
0
40
0
40
0
40
0
10
10.694091362978337
20
-10.970458952357658
30
0
10
10.764866408933047
20
-11.116713934849772
30
0
10
10.905980309751664
20
-11.40832252111375
30
0
10
11.123832194840549
20
-11.648073263418375
30
0
10
11.232421441103339
20
-11.767578092982657
30
0
0
SPLINE
5
306
100
AcDbEntity
8
0
100
AcDbSpline
70
0
71
3
72
9
73
5
74
0
42
0.000000001
43
0.0000000001
44
0.0000000001
40
-0.096632089370745966
40
-0.096632089370745966
40
-0.096632089370745966
40
-0.096632089370745966
40
-0.048465392326619477
40
0
40
0
40
0
40
0
10
11.232421441103339
20
-11.767578092982657
30
0
10
11.35192627066762
20
-11.876167339245447
30
0
10
11.591677012972244
20
-12.094019224334327
30
0
10
11.883285599236228
20
-12.235133125152945
30
0
10
12.029540581728341
20
-12.305908171107653
30
0
0
SPLINE
5
307
100
AcDbEntity
8
0
100
AcDbSpline
70
0
71
3
72
9
73
5
74
0
42
0.000000001
43
0.0000000001
44
0.0000000001
40
-0.099487049042576908
40
-0.099487049042576908
40
-0.099487049042576908
40
-0.099487049042576908
40
-0.050374622169620617
40
0
40
0
40
0
40
0
10
12.029540581728341
20
-12.305908171107653
30
0
10
12.184264444144844
20
-12.362515707715252
30
0
10
12.49768859091132
20
-12.477185601451666
30
0
10
12.831152352654595
20
-12.492331128547313
30
0
10
12.999999566103341
20
-12.499999967982649
30
0
0
LINE
5
308
100
AcDbEntity
8
0
100
AcDbLine
10
12.999999566103345
20
-12.499999967982649
30
0
11
12.999999566103339
21
-11.674804655482649
31
0
0
SPLINE
5
309
100
AcDbEntity
8
0
100
AcDbSpline
70
0
71
3
72
9
73
5
74
0
42
0.000000001
43
0.0000000001
44
0.0000000001
40
-0.066681474996396151
40
-0.066681474996396151
40
-0.066681474996396151
40
-0.066681474996396151
40
-0.032926260632985024
40
0
40
0
40
0
40
0
10
12.999999566103339
20
-11.674804655482649
30
0
10
12.886866046516943
20
-11.669686374523687
30
0
10
12.663377317447228
20
-11.659575506314848
30
0
10
12.453164549668577
20
-11.583148549887554
30
0
10
12.349364800478337
20
-11.545410124232651
30
0
0
SPLINE
5
310
100
AcDbEntity
8
0
100
AcDbSpline
70
0
71
3
72
9
73
5
74
0
42
0.000000001
43
0.0000000001
44
0.0000000001
40
-0.064764989383104349
40
-0.064764989383104349
40
-0.064764989383104349
40
-0.064764989383104349
40
-0.032279246066802401
40
0
40
0
40
0
40
0
10
12.349364800478337
20
-11.545410124232651
30
0
10
12.251221646629205
20
-11.498180314867906
30
0
10
12.05555919078896
20
-11.404020914779965
30
0
10
11.894813443707434
20
-11.25805363872538
30
0
10
11.814696831728337
20
-11.185302702357653
30
0
0
SPLINE
5
311
100
AcDbEntity
8
0
100
AcDbSpline
70
0
71
3
72
9
73
5
74
0
42
0.000000001
43
0.0000000001
44
0.0000000001
40
-0.064764989383104349
40
-0.064764989383104349
40
-0.064764989383104349
40
-0.064764989383104349
40
-0.03248574331630194
40
0
40
0
40
0
40
0
10
11.814696831728337
20
-11.185302702357653
30
0
10
11.741945895360608
20
-11.105186090378558
30
0
10
11.595978619306022
20
-10.944440343297032
30
0
10
11.501819219218081
20
-10.748777887456789
30
0
10
11.454589409853336
20
-10.650634733607657
30
0
0
SPLINE
5
312
100
AcDbEntity
8
0
100
AcDbSpline
70
0
71
3
72
9
73
5
74
0
42
0.000000001
43
0.0000000001
44
0.0000000001
40
-0.066681474996396151
40
-0.066681474996396151
40
-0.066681474996396151
40
-0.066681474996396151
40
-0.033755214363411133
40
0
40
0
40
0
40
0
10
11.454589409853336
20
-10.650634733607657
30
0
10
11.416850984198433
20
-10.546834984417419
30
0
10
11.340424027771139
20
-10.336622216638766
30
0
10
11.330313159562294
20
-10.113133487569051
30
0
10
11.325194878603334
20
-9.9999999679826566
30
0
0
SPLINE
5
313
100
AcDbEntity
8
0
100
AcDbSpline
70
0
71
3
72
9
73
5
74
0
42
0.000000001
43
0.0000000001
44
0.0000000001
40
-0.066922071027090746
40
-0.066922071027090746
40
-0.066922071027090746
40
-0.066922071027090746
40
-0.032984589414744456
40
0
40
0
40
0
40
0
10
11.325194878603334
20
-9.9999999679826566
30
0
10
11.3302725929797
20
-9.886251127546938
30
0
10
11.340285450328169
20
-9.6619472718324655
30
0
10
11.416851493714976
20
-9.4509300751368492
30
0
10
11.45458940985333
20
-9.3469237961076566
30
0
0
SPLINE
5
314
100
AcDbEntity
8
0
100
AcDbSpline
70
0
71
3
72
9
73
5
74
0
42
0.000000001
43
0.0000000001
44
0.0000000001
40
-0.064764989383104349
40
-0.064764989383104349
40
-0.064764989383104349
40
-0.064764989383104349
40
-0.032279246066802401
40
0
40
0
40
0
40
0
10
11.45458940985333
20
-9.3469237961076566
30
0
10
11.501819219218078
20
-9.2487806422585237
30
0
10
11.595978619306017
20
-9.0531181864182741
30
0
10
11.741945895360601
20
-8.89237243933675
30
0
10
11.814696831728329
20
-8.812255827357653
30
0
0
SPLINE
5
315
100
AcDbEntity
8
0
100
AcDbSpline
70
0
71
3
72
9
73
5
74
0
42
0.000000001
43
0.0000000001
44
0.0000000001
40
-0.064597943362662266
40
-0.064597943362662266
40
-0.064597943362662266
40
-0.064597943362662266
40
-0.032361657741345369
40
0
40
0
40
0
40
0
10
11.814696831728329
20
-8.812255827357653
30
0
10
11.894699591795206
20
-8.7395827240609325
30
0
10
12.055016255581034
20
-8.5939538800341282
30
0
10
12.250308475281013
20
-8.5002912927415224
30
0
10
12.348144097353329
20
-8.4533691086076512
30
0
0
SPLINE
5
316
100
AcDbEntity
8
0
100
AcDbSpline
70
0
71
3
72
9
73
5
74
0
42
0.000000001
43
0.0000000001
44
0.0000000001
40
-0.066774413654432263
40
-0.066774413654432263
40
-0.066774413654432263
40
-0.066774413654432263
40
-0.033904205229845386
40
0
40
0
40
0
40
0
10
12.348144097353329
20
-8.4533691086076512
30
0
10
12.451862788488395
20
-8.4159875975077441
30
0
10
12.662562845393683
20
-8.3400486666384808
30
0
10
12.886365470226666
20
-8.3301972586401405
30
0
10
12.999999566103329
20
-8.3251952804826495
30
0
0
SPLINE
5
317
100
AcDbEntity
8
0
100
AcDbSpline
70
0
71
3
72
9
73
5
74
0
42
0.000000001
43
0.0000000001
44
0.0000000001
40
-0.066711513370568687
40
-0.066711513370568687
40
-0.066711513370568687
40
-0.066711513370568687
40
-0.032953360748894753
40
0
40
0
40
0
40
0
10
12.999999566103329
20
-8.3251952804826495
30
0
10
13.113152679706984
20
-8.3303701530992136
30
0
10
13.336761345017811
20
-8.3405965297502043
30
0
10
13.54685484219617
20
-8.4177159700332354
30
0
10
13.650634331728329
20
-8.4558105148576459
30
0
0
SPLINE
5
318
100
AcDbEntity
8
0
100
AcDbSpline
70
0
71
3
72
9
73
5
74
0
42
0.000000001
43
0.0000000001
44
0.0000000001
40
-0.064755303209259901
40
-0.064755303209259901
40
-0.064755303209259901
40
-0.064755303209259901
40
-0.032240445585639967
40
0
40
0
40
0
40
0
10
13.650634331728329
20
-8.4558105148576459
30
0
10
13.748736488528245
20
-8.5033054827670576
30
0
10
13.944112860234885
20
-8.5978945805724205
30
0
10
14.105133271210434
20
-8.7434490889943213
30
0
10
14.185302300478329
20
-8.8159179367326441
30
0
0
SPLINE
5
319
100
AcDbEntity
8
0
100
AcDbSpline
70
0
71
3
72
9
73
5
74
0
42
0.000000001
43
0.0000000001
44
0.0000000001
40
-0.064667581623500461
40
-0.064667581623500461
40
-0.064667581623500461
40
-0.064667581623500461
40
-0.032458912709386167
40
0
40
0
40
0
40
0
10
14.185302300478329
20
-8.8159179367326441
30
0
10
14.258067682603528
20
-8.8957125697811694
30
0
10
14.404163794196783
20
-9.0559217966679544
30
0
10
14.49820644085862
20
-9.2512987174520767
30
0
10
14.54540972235333
20
-9.3493652023576423
30
0
0
SPLINE
5
320
100
AcDbEntity
8
0
100
AcDbSpline
70
0
71
3
72
9
73
5
74
0
42
0.000000001
43
0.0000000001
44
0.0000000001
40
-0.066681474996396151
40
-0.066681474996396151
40
-0.066681474996396151
40
-0.066681474996396151
40
-0.033755214363411133
40
-0.010938007480325756
40
-0.010938007480325756
40
-0.010938007480325756
40
-0.010938007480325756
10
14.54540972235333
20
-9.3493652023576423
30
0
10
14.583148148008235
20
-9.4531649515478815
30
0
10
14.647038509809427
20
-9.6288957462365978
30
0
10
14.664584556781472
20
-9.8139043096577812
30
0
10
14.669250479371206
20
-9.8901366867326423
30
0
0
LINE
5
321
100
AcDbEntity
8
0
100
AcDbLine
10
14.669250479371206
20
-9.8901366867326423
30
0
11
13.395507378603334
21
-9.8901366867326459
31
0
0
LINE
5
322
100
AcDbEntity
8
0
100
AcDbLine
10
13.395507378603334
20
-9.8901366867326459
30
0
11
15.050780816103339
21
-11.574706999232642
31
0
0
LINE
5
323
100
AcDbEntity
8
0
100
AcDbLine
10
15.050780816103339
20
-11.574706999232642
30
0
11
16.706054253603334
21
-9.8901366867326352
31
0
0
LINE
5
324
100
AcDbEntity
8
0
100
AcDbLine
10
16.706054253603334
20
-9.8901366867326352
30
0
11
15.494792830493257
21
-9.8901366867326406
31
0
0
LWPOLYLINE
5
325
100
AcDbEntity
8
0
100
AcDbPolyline
90
11
70
1
43
0.0
10
-12.45332773206103
20
13.913542213270782
10
-13.482401924108153
20
14.732211413214323
10
-12.774674253438597
20
14.709258260557769
10
-9.1174441146599108
20
14.709258260557782
10
-9.1174441146599108
20
15.290742101500165
10
-12.774674253438597
20
15.290742101500152
10
-13.482401924108157
20
15.263963522741907
10
-12.453327732061037
20
16.086457552740693
10
-12.824406580899845
20
16.511094155142423
10
-14.568859891866332
20
15.000000181028954
10
-12.824406580899835
20
13.488905610869047
0
LINE
5
326
100
AcDbEntity
8
0
100
AcDbLine
10
14.674804253603334
20
40.000000032017354
30
0
11
15.499999566103334
21
40.000000032017354
31
0
0
SPLINE
5
327
100
AcDbEntity
8
0
100
AcDbSpline
70
0
71
3
72
9
73
5
74
0
42
0.000000001
43
0.0000000001
44
0.0000000001
40
0
40
0
40
0
40
0
40
0.050556879276967219
40
0.099727601966699095
40
0.099727601966699095
40
0.099727601966699095
40
0.099727601966699095
10
15.499999566103334
20
40.000000032017354
30
0
10
15.492371541862845
20
39.830537435573639
30
0
10
15.47732463675068
20
39.496258528171175
30
0
10
15.362514794705165
20
39.182030071754511
30
0
10
15.305907769228337
20
39.027099641392354
30
0
0
SPLINE
5
328
100
AcDbEntity
8
0
100
AcDbSpline
70
0
71
3
72
9
73
5
74
0
42
0.000000001
43
0.0000000001
44
0.0000000001
40
0
40
0
40
0
40
0
40
0.048438587868687329
40
0.096534726680487931
40
0.096534726680487931
40
0.096534726680487931
40
0.096534726680487931
10
15.305907769228337
20
39.027099641392354
30
0
10
15.235159217394038
20
38.880921355734365
30
0
10
15.094162288811418
20
38.589598229410555
30
0
10
14.876181467286933
20
38.350384014770157
30
0
10
14.767577691103339
20
38.231201203892354
30
0
0
SPLINE
5
329
100
AcDbEntity
8
0
100
AcDbSpline
70
0
71
3
72
9
73
5
74
0
42
0.000000001
43
0.0000000001
44
0.0000000001
40
0
40
0
40
0
40
0
40
0.048108452593269964
40
0.096559267210027999
40
0.096559267210027999
40
0.096559267210027999
40
0.096559267210027999
10
14.767577691103339
20
38.231201203892354
30
0
10
14.648038977369451
20
38.122953522185867
30
0
10
14.408110857066774
20
37.905687818149779
30
0
10
14.116687078219201
20
37.764790348057431
30
0
10
13.970458550478341
20
37.694091828892354
30
0
0
SPLINE
5
330
100
AcDbEntity
8
0
100
AcDbSpline
70
0
71
3
72
9
73
5
74
0
42
0.000000001
43
0.0000000001
44
0.0000000001
40
0
40
0
40
0
40
0
40
0.049112426872956284
40
0.099487049042576908
40
0.099487049042576908
40
0.099487049042576908
40
0.099487049042576908
10
13.970458550478341
20
37.694091828892354
30
0
10
13.815734688061841
20
37.637484292284753
30
0
10
13.502310541295364
20
37.522814398548334
30
0
10
13.168846779552087
20
37.507668871452687
30
0
10
12.999999566103341
20
37.500000032017347
30
0
0
SPLINE
5
331
100
AcDbEntity
8
0
100
AcDbSpline
70
0
71
3
72
9
73
5
74
0
42
0.000000001
43
0.0000000001
44
0.0000000001
40
0
40
0
40
0
40
0
40
0.05037169174720936
40
0.099457060341588896
40
0.099457060341588896
40
0.099457060341588896
40
0.099457060341588896
10
12.999999566103341
20
37.500000032017347
30
0
10
12.831171958971909
20
37.507612408134399
30
0
10
12.497828032504971
20
37.522642765951552
30
0
10
12.184284665921293
20
37.636619710958605
30
0
10
12.029540581728341
20
37.692871125767347
30
0
0
SPLINE
5
332
100
AcDbEntity
8
0
100
AcDbSpline
70
0
71
3
72
9
73
5
74
0
42
0.000000001
43
0.0000000001
44
0.0000000001
40
0
40
0
40
0
40
0
40
0.048421703731606952
40
0.096568974444371763
40
0.096568974444371763
40
0.096568974444371763
40
0.096568974444371763
10
12.029540581728341
20
37.692871125767347
30
0
10
11.883271116706061
20
37.763304584634753
30
0
10
11.591561177955835
20
37.90377231635884
30
0
10
11.351907668203641
20
38.121450641204021
30
0
10
11.232421441103339
20
38.229980500767347
30
0
0
SPLINE
5
333
100
AcDbEntity
8
0
100
AcDbSpline
70
0
71
3
72
9
73
5
74
0
42
0.000000001
43
0.0000000001
44
0.0000000001
40
0
40
0
40
0
40
0
40
0.048166697044126489
40
0.096632089370745966
40
0.096632089370745966
40
0.096632089370745966
40
0.096632089370745966
10
11.232421441103339
20
38.229980500767347
30
0
10
11.123832194840549
20
38.349485330331625
30
0
10
10.905980309751664
20
38.589236072636247
30
0
10
10.764866408933047
20
38.88084465890023
30
0
10
10.694091362978337
20
39.02709964139234
30
0
0
SPLINE
5
334
100
AcDbEntity
8
0
100
AcDbSpline
70
0
71
3
72
9
73
5
74
0
42
0.000000001
43
0.0000000001
44
0.0000000001
40
0
40
0
40
0
40
0
40
0.049170722689731876
40
0.099727601966699095
40
0.099727601966699095
40
0.099727601966699095
40
0.099727601966699095
10
10.694091362978337
20
39.02709964139234
30
0
10
10.637484337501508
20
39.182030071754497
30
0
10
10.522674495455993
20
39.496258528171154
30
0
10
10.507627590343823
20
39.830537435573618
30
0
10
10.499999566103334
20
40.00000003201734
30
0
0
SPLINE
5
335
100
AcDbEntity
8
0
100
AcDbSpline
70
0
71
3
72
9
73
5
74
0
42
0.000000001
43
0.0000000001
44
0.0000000001
40
0
40
0
40
0
40
0
40
0.050374622169620617
40
0.099487049042576908
40
0.099487049042576908
40
0.099487049042576908
40
0.099487049042576908
10
10.499999566103334
20
40.00000003201734
30
0
10
10.507668405538668
20
40.168847245466083
30
0
10
10.522813932634314
20
40.502311007209357
30
0
10
10.63748382637073
20
40.815735153975837
30
0
10
10.694091362978329
20
40.97045901639234
30
0
0
SPLINE
5
336
100
AcDbEntity
8
0
100
AcDbSpline
70
0
71
3
72
9
73
5
74
0
42
0.000000001
43
0.0000000001
44
0.0000000001
40
0
40
0
40
0
40
0
40
0.048465392326619477
40
0.096632089370745966
40
0.096632089370745966
40
0.096632089370745966
40
0.096632089370745966
10
10.694091362978329
20
40.97045901639234
30
0
10
10.764866408933038
20
41.11671399888445
30
0
10
10.905980309751655
20
41.40832258514844
30
0
10
11.123832194840535
20
41.648073327453062
30
0
10
11.232421441103329
20
41.76757815701734
30
0
0
SPLINE
5
337
100
AcDbEntity
8
0
100
AcDbSpline
70
0
71
3
72
9
73
5
74
0
42
0.000000001
43
0.0000000001
44
0.0000000001
40
0
40
0
40
0
40
0
40
0.048166697044126489
40
0.096632089370745966
40
0.096632089370745966
40
0.096632089370745966
40
0.096632089370745966
10
11.232421441103329
20
41.76757815701734
30
0
10
11.351926270667608
20
41.876167403280135
30
0
10
11.59167701297223
20
42.094019288369026
30
0
10
11.88328559923621
20
42.235133189187636
30
0
10
12.029540581728323
20
42.305908235142347
30
0
0
SPLINE
5
338
100
AcDbEntity
8
0
100
AcDbSpline
70
0
71
3
72
9
73
5
74
0
42
0.000000001
43
0.0000000001
44
0.0000000001
40
0
40
0
40
0
40
0
40
0.049112426872956284
40
0.099487049042576908
40
0.099487049042576908
40
0.099487049042576908
40
0.099487049042576908
10
12.029540581728323
20
42.305908235142347
30
0
10
12.184264444144826
20
42.362515771749941
30
0
10
12.497688590911302
20
42.47718566548636
30
0
10
12.831152352654577
20
42.492331192582007
30
0
10
12.999999566103323
20
42.500000032017347
30
0
0
LINE
5
339
100
AcDbEntity
8
0
100
AcDbLine
10
12.999999566103327
20
42.50000003201734
30
0
11
12.997558159853327
21
41.674804719517347
31
0
0
SPLINE
5
340
100
AcDbEntity
8
0
100
AcDbSpline
70
0
71
3
72
9
73
5
74
0
42
0.000000001
43
0.0000000001
44
0.0000000001
40
0
40
0
40
0
40
0
40
0.033721923828125
40
0.066533770441180251
40
0.066533770441180251
40
0.066533770441180251
40
0.066533770441180251
10
12.997558159853329
20
41.674804719517347
30
0
10
12.884539310616749
20
41.669762424489079
30
0
10
12.66155173111331
20
41.659813914385751
30
0
10
12.451656295588297
20
41.584012953125722
30
0
10
12.348144097353329
20
41.546630891392347
30
0
0
SPLINE
5
341
100
AcDbEntity
8
0
100
AcDbSpline
70
0
71
3
72
9
73
5
74
0
42
0.000000001
43
0.0000000001
44
0.0000000001
40
0
40
0
40
0
40
0
40
0.032376173279832901
40
0.064670779411246604
40
0.064670779411246604
40
0.064670779411246604
40
0.064670779411246604
10
12.348144097353329
20
41.546630891392347
30
0
10
12.250282164698316
20
41.499631822867201
30
0
10
12.054804848562476
20
41.405752093263175
30
0
10
11.894665511162312
20
41.259538205827432
30
0
10
11.814696831728329
20
41.186523469517347
30
0
0
SPLINE
5
342
100
AcDbEntity
8
0
100
AcDbSpline
70
0
71
3
72
9
73
5
74
0
42
0.000000001
43
0.0000000001
44
0.0000000001
40
0
40
0
40
0
40
0
40
0.032349928344119511
40
0.064862508770700711
40
0.064862508770700711
40
0.064862508770700711
40
0.064862508770700711
10
11.814696831728329
20
41.186523469517347
30
0
10
11.741960377428352
20
41.106084939107092
30
0
10
11.59612175748471
20
40.944803441703513
30
0
10
11.501845662692345
20
40.748854802141032
30
0
10
11.45458940985333
20
40.65063479764234
30
0
0
SPLINE
5
343
100
AcDbEntity
8
0
100
AcDbSpline
70
0
71
3
72
9
73
5
74
0
42
0.000000001
43
0.0000000001
44
0.0000000001
40
0
40
0
40
0
40
0
40
0.032926260632985024
40
0.066681474996396151
40
0.066681474996396151
40
0.066681474996396151
40
0.066681474996396151
10
11.45458940985333
20
40.65063479764234
30
0
10
11.416850984198428
20
40.54683504845211
30
0
10
11.340424027771135
20
40.336622280673453
30
0
10
11.330313159562294
20
40.113133551603738
30
0
10
11.325194878603334
20
40.00000003201734
30
0
0
SPLINE
5
344
100
AcDbEntity
8
0
100
AcDbSpline
70
0
71
3
72
9
73
5
74
0
42
0.000000001
43
0.0000000001
44
0.0000000001
40
0
40
0
40
0
40
0
40
0.033785591608727454
40
0.066799349083771137
40
0.066799349083771137
40
0.066799349083771137
40
0.066799349083771137
10
11.325194878603334
20
40.00000003201734
30
0
10
11.330332766298227
20
39.886771365601227
30
0
10
11.340491166294861
20
39.662900749339293
30
0
10
11.416850761382873
20
39.452251977103082
30
0
10
11.454589409853336
20
39.348144563267347
30
0
0
SPLINE
5
345
100
AcDbEntity
8
0
100
AcDbSpline
70
0
71
3
72
9
73
5
74
0
42
0.000000001
43
0.0000000001
44
0.0000000001
40
0
40
0
40
0
40
0
40
0.032566274092915029
40
0.064869069272365451
40
0.064869069272365451
40
0.064869069272365451
40
0.064869069272365451
10
11.454589409853336
20
39.348144563267347
30
0
10
11.501785203320063
20
39.249679481197802
30
0
10
11.595794950551888
20
39.05354595325862
30
0
10
11.741927386869682
20
38.892467828163078
30
0
10
11.814696831728337
20
38.812255891392347
30
0
0
SPLINE
5
346
100
AcDbEntity
8
0
100
AcDbSpline
70
0
71
3
72
9
73
5
74
0
42
0.000000001
43
0.0000000001
44
0.0000000001
40
0
40
0
40
0
40
0
40
0.032236285621316897
40
0.064597943362662266
40
0.064597943362662266
40
0.064597943362662266
40
0.064597943362662266
10
11.814696831728337
20
38.812255891392347
30
0
10
11.894699591795213
20
38.739582788095625
30
0
10
12.055016255581045
20
38.593953944068822
30
0
10
12.250308475281022
20
38.500291356776216
30
0
10
12.348144097353337
20
38.453369172642347
30
0
0
SPLINE
5
347
100
AcDbEntity
8
0
100
AcDbSpline
70
0
71
3
72
9
73
5
74
0
42
0.000000001
43
0.0000000001
44
0.0000000001
40
0
40
0
40
0
40
0
40
0.032811846613055244
40
0.066533770441180251
40
0.066533770441180251
40
0.066533770441180251
40
0.066533770441180251
10
12.348144097353337
20
38.453369172642347
30
0
10
12.451656295588304
20
38.415987110908972
30
0
10
12.661551731113324
20
38.340186149648943
30
0
10
12.884539310616759
20
38.330237639545615
30
0
10
12.997558159853339
20
38.325195344517347
30
0
0
SPLINE
5
348
100
AcDbEntity
8
0
100
AcDbSpline
70
0
71
3
72
9
73
5
74
0
42
0.000000001
43
0.0000000001
44
0.0000000001
40
0
40
0
40
0
40
0
40
0.033940404091535745
40
0.066952045738609439
40
0.066952045738609439
40
0.066952045738609439
40
0.066952045738609439
10
12.997558159853339
20
38.325195344517347
30
0
10
13.111326687703011
20
38.330329290241913
30
0
10
13.335750523661552
20
38.34045669379443
30
0
10
13.546648257342538
20
38.417716534774527
30
0
10
13.650634331728339
20
38.455810578892354
30
0
0
SPLINE
5
349
100
AcDbEntity
8
0
100
AcDbSpline
70
0
71
3
72
9
73
5
74
0
42
0.000000001
43
0.0000000001
44
0.0000000001
40
0
40
0
40
0
40
0
40
0.032514857623619928
40
0.064755303209259901
40
0.064755303209259901
40
0.064755303209259901
40
0.064755303209259901
10
13.650634331728339
20
38.455810578892354
30
0
10
13.748736488528252
20
38.503305546801762
30
0
10
13.944112860234895
20
38.59789464460713
30
0
10
14.105133271210445
20
38.743449153029033
30
0
10
14.185302300478337
20
38.815918000767354
30
0
0
SPLINE
5
350
100
AcDbEntity
8
0
100
AcDbSpline
70
0
71
3
72
9
73
5
74
0
42
0.000000001
43
0.0000000001
44
0.0000000001
40
0
40
0
40
0
40
0
40
0.032208668914114294
40
0.064667581623500461
40
0.064667581623500461
40
0.064667581623500461
40
0.064667581623500461
10
14.185302300478337
20
38.815918000767354
30
0
10
14.258067682603537
20
38.895712633815876
30
0
10
14.404163794196787
20
39.055921860702661
30
0
10
14.498206440858628
20
39.251298781486788
30
0
10
14.545409722353336
20
39.349365266392354
30
0
0
SPLINE
5
351
100
AcDbEntity
8
0
100
AcDbSpline
70
0
71
3
72
9
73
5
74
0
42
0.000000001
43
0.0000000001
44
0.0000000001
40
0
40
0
40
0
40
0
40
0.032926260632985024
40
0.066681474996396151
40
0.066681474996396151
40
0.066681474996396151
40
0.066681474996396151
10
14.545409722353336
20
39.349365266392354
30
0
10
14.583148148008238
20
39.453165015582591
30
0
10
14.659575104435529
20
39.663377783361241
30
0
10
14.66968597264437
20
39.886866512430956
30
0
10
14.674804253603334
20
40.000000032017354
30
0
0
LWPOLYLINE
5
352
100
AcDbEntity
8
0
100
AcDbPolyline
90
3
70
1
43
0.0
10
13.395507378603334
20
39.890136750767347
10
16.706054253603334
20
39.890136750767361
10
15.050780816103327
20
41.574707063267354
0
ENDSEC
0
SECTION
2
OBJECTS
0
DICTIONARY
5
C
100
AcDbDictionary
3
ACAD_GROUP
350
D
3
ACAD_MLINESTYLE
350
17
0
DICTIONARY
5
D
100
AcDbDictionary
0
DICTIONARY
5
1A
330
C
100
AcDbDictionary
0
DICTIONARY
5
17
100
AcDbDictionary
0
ENDSEC
0
EOF
