0
SECTION
2
HEADER
9
$INSUNITS
70
4
9
$ACADVER
1
AC1014
9
$HANDSEED
5
FFFF
0
ENDSEC
0
SECTION
2
TABLES
0
TABLE
2
VPORT
5
8
100
AcDbSymbolTable
0
ENDTAB
0
TABLE
2
LTYPE
5
5
100
AcDbSymbolTable
0
LTYPE
5
14
100
AcDbSymbolTableRecord
100
AcDbLinetypeTableRecord
2
BYBLOCK
70
0
0
LTYPE
5
15
100
AcDbSymbolTableRecord
100
AcDbLinetypeTableRecord
2
BYLAYER
70
0
0
ENDTAB
0
TABLE
2
LAYER
5
2
100
AcDbSymbolTable
70
2
0
LAYER
5
50
100
AcDbSymbolTableRecord
100
AcDbLayerTableRecord
2
0
70
0
6
CONTINUOUS
0
ENDTAB
0
TABLE
2
STYLE
5
3
100
AcDbSymbolTable
70
1
0
STYLE
5
11
100
AcDbSymbolTableRecord
100
AcDbTextStyleTableRecord
2
STANDARD
70
0
0
ENDTAB
0
TABLE
2
VIEW
5
6
100
AcDbSymbolTable
70
0
0
ENDTAB
0
TABLE
2
UCS
5
7
100
AcDbSymbolTable
70
0
0
ENDTAB
0
TABLE
2
APPID
5
9
100
AcDbSymbolTable
70
2
0
APPID
5
12
100
AcDbSymbolTableRecord
100
AcDbRegAppTableRecord
2
ACAD
70
0
0
ENDTAB
0
TABLE
2
DIMSTYLE
5
A
100
AcDbSymbolTable
70
1
0
ENDTAB
0
TABLE
2
BLOCK_RECORD
5
1
100
AcDbSymbolTable
70
1
0
BLOCK_RECORD
5
1F
100
AcDbSymbolTableRecord
100
AcDbBlockTableRecord
2
*MODEL_SPACE
0
BLOCK_RECORD
5
1B
100
AcDbSymbolTableRecord
100
AcDbBlockTableRecord
2
*PAPER_SPACE
0
ENDTAB
0
ENDSEC
0
SECTION
2
BLOCKS
0
BLOCK
5
20
100
AcDbEntity
100
AcDbBlockBegin
2
*MODEL_SPACE
0
ENDBLK
5
21
100
AcDbEntity
100
AcDbBlockEnd
0
BLOCK
5
1C
100
AcDbEntity
100
AcDbBlockBegin
2
*PAPER_SPACE
0
ENDBLK
5
1D
100
AcDbEntity
100
AcDbBlockEnd
0
ENDSEC
0
SECTION
2
ENTITIES
0
LWPOLYLINE
5
100
100
AcDbEntity
8
0
100
AcDbPolyline
90
8
70
1
43
0.0
10
44.666666666666686
20
31.000000000000007
10
33.666666666666679
20
30.999999999999996
42
-0.4142135623730937
10
31.666666666666679
20
33
10
31.666666666666693
20
44
42
-0.41421356237309503
10
33.666666666666693
20
46.000000000000007
10
44.666666666666686
20
46.000000000000007
42
-0.41421356237309243
10
46.666666666666686
20
44
10
46.666666666666686
20
33.000000000000007
42
-0.41421356237309243
0
LWPOLYLINE
5
101
100
AcDbEntity
8
0
100
AcDbPolyline
90
4
70
1
43
0.0
10
20.000000000000028
20
24.444444444444407
10
-19.999999999999972
20
24.444444444444407
10
-19.999999999999961
20
25.244444444444408
10
20.000000000000028
20
25.244444444444408
0
LWPOLYLINE
5
102
100
AcDbEntity
8
0
100
AcDbPolyline
90
4
70
1
43
0.0
10
20.000000000000028
20
13.3333333333333
10
-19.999999999999972
20
13.333333333333297
10
-19.999999999999961
20
14.133333333333296
10
20.000000000000028
20
14.133333333333301
0
LWPOLYLINE
5
103
100
AcDbEntity
8
0
100
AcDbPolyline
90
4
70
1
43
0.0
10
20.000000000000028
20
7.7777777777777422
10
-19.999999999999972
20
7.7777777777777422
10
-19.999999999999961
20
8.5777777777777384
10
20.000000000000028
20
8.5777777777777438
0
LWPOLYLINE
5
104
100
AcDbEntity
8
0
100
AcDbPolyline
90
4
70
1
43
0.0
10
20.000000000000028
20
16.111111111111075
10
-19.999999999999972
20
16.111111111111075
10
-19.999999999999961
20
16.911111111111076
10
20.000000000000028
20
16.911111111111076
0
LWPOLYLINE
5
105
100
AcDbEntity
8
0
100
AcDbPolyline
90
4
70
1
43
0.0
10
20.000000000000028
20
29.999999999999964
10
-19.999999999999972
20
29.999999999999964
10
-19.999999999999961
20
30.799999999999962
10
20.000000000000028
20
30.799999999999965
0
LWPOLYLINE
5
106
100
AcDbEntity
8
0
100
AcDbPolyline
90
4
70
1
43
0.0
10
20.000000000000028
20
21.666666666666629
10
-19.999999999999972
20
21.666666666666629
10
-19.999999999999961
20
22.466666666666626
10
20.000000000000028
20
22.466666666666629
0
LWPOLYLINE
5
107
100
AcDbEntity
8
0
100
AcDbPolyline
90
4
70
1
43
0.0
10
20.000000000000028
20
4.9999999999999654
10
-19.999999999999972
20
4.9999999999999654
10
-19.999999999999961
20
5.7999999999999616
10
20.000000000000028
20
5.7999999999999661
0
LWPOLYLINE
5
108
100
AcDbEntity
8
0
100
AcDbPolyline
90
4
70
1
43
0.0
10
20.000000000000028
20
10.555555555555518
10
-19.999999999999972
20
10.555555555555518
10
-19.999999999999961
20
11.355555555555517
10
20.000000000000028
20
11.355555555555519
0
LWPOLYLINE
5
109
100
AcDbEntity
8
0
100
AcDbPolyline
90
4
70
1
43
0.0
10
20.000000000000028
20
18.888888888888854
10
-19.999999999999972
20
18.888888888888854
10
-19.999999999999961
20
19.688888888888851
10
20.000000000000028
20
19.688888888888854
0
LWPOLYLINE
5
110
100
AcDbEntity
8
0
100
AcDbPolyline
90
4
70
1
43
0.0
10
20.000000000000028
20
27.222222222222186
10
-19.999999999999972
20
27.222222222222186
10
-19.999999999999961
20
28.022222222222183
10
20.000000000000028
20
28.02222222222219
0
LWPOLYLINE
5
111
100
AcDbEntity
8
0
100
AcDbPolyline
90
52
70
1
43
0.0
10
-46.66666666666665
20
52
10
-59.999999999999993
20
52
10
-60
20
46
10
-57
20
46
10
-57
20
37
10
-60
20
37
10
-60
20
28
10
-57
20
28
10
-57
20
19
10
-60
20
19
10
-60
20
0
10
-46.666666666666657
20
0
10
-46.666666666666671
20
-3.0000000000000004
10
-33.333333333333329
20
-3.0000000000000004
10
-33.333333333333321
20
0
10
-19.999999999999996
20
0
10
-20.000000000000007
20
-3.0000000000000004
10
-6.6666666666666696
20
-3.0000000000000004
10
-6.6666666666666599
20
0
10
6.6666666666666705
20
0
10
6.6666666666666616
20
-3.0000000000000004
10
19.999999999999993
20
-3.0000000000000004
10
20
20
0
10
33.333333333333336
20
0
10
33.333333333333329
20
-3.0000000000000004
10
46.666666666666657
20
-3.0000000000000004
10
46.666666666666671
20
0
10
60
20
0
10
60
20
19
10
57
20
19
10
57
20
28
10
60
20
28
10
60
20
37
10
57
20
37
10
57
20
46
10
60
20
46
10
60.000000000000007
20
52
10
46.666666666666686
20
52
10
46.666666666666686
20
55
10
33.33333333333335
20
55
10
33.33333333333335
20
52
10
20.000000000000007
20
52
10
20.000000000000007
20
55
10
6.6666666666666803
20
55
10
6.6666666666666785
20
52
10
-6.6666666666666519
20
52
10
-6.6666666666666501
20
55
10
-19.999999999999993
20
55
10
-19.999999999999993
20
52
10
-33.333333333333314
20
52
10
-33.333333333333314
20
55
10
-46.66666666666665
20
55
0
ENDSEC
0
SECTION
2
OBJECTS
0
DICTIONARY
5
C
100
AcDbDictionary
3
ACAD_GROUP
350
D
3
ACAD_MLINESTYLE
350
17
0
DICTIONARY
5
D
100
AcDbDictionary
0
DICTIONARY
5
1A
330
C
100
AcDbDictionary
0
DICTIONARY
5
17
100
AcDbDictionary
0
ENDSEC
0
EOF
