0
SECTION
2
HEADER
9
$INSUNITS
70
4
9
$ACADVER
1
AC1014
9
$HANDSEED
5
FFFF
0
ENDSEC
0
SECTION
2
TABLES
0
TABLE
2
VPORT
5
8
100
AcDbSymbolTable
0
ENDTAB
0
TABLE
2
LTYPE
5
5
100
AcDbSymbolTable
0
LTYPE
5
14
100
AcDbSymbolTableRecord
100
AcDbLinetypeTableRecord
2
BYBLOCK
70
0
0
LTYPE
5
15
100
AcDbSymbolTableRecord
100
AcDbLinetypeTableRecord
2
BYLAYER
70
0
0
ENDTAB
0
TABLE
2
LAYER
5
2
100
AcDbSymbolTable
70
2
0
LAYER
5
50
100
AcDbSymbolTableRecord
100
AcDbLayerTableRecord
2
0
70
0
6
CONTINUOUS
0
ENDTAB
0
TABLE
2
STYLE
5
3
100
AcDbSymbolTable
70
1
0
STYLE
5
11
100
AcDbSymbolTableRecord
100
AcDbTextStyleTableRecord
2
STANDARD
70
0
0
ENDTAB
0
TABLE
2
VIEW
5
6
100
AcDbSymbolTable
70
0
0
ENDTAB
0
TABLE
2
UCS
5
7
100
AcDbSymbolTable
70
0
0
ENDTAB
0
TABLE
2
APPID
5
9
100
AcDbSymbolTable
70
2
0
APPID
5
12
100
AcDbSymbolTableRecord
100
AcDbRegAppTableRecord
2
ACAD
70
0
0
ENDTAB
0
TABLE
2
DIMSTYLE
5
A
100
AcDbSymbolTable
70
1
0
ENDTAB
0
TABLE
2
BLOCK_RECORD
5
1
100
AcDbSymbolTable
70
1
0
BLOCK_RECORD
5
1F
100
AcDbSymbolTableRecord
100
AcDbBlockTableRecord
2
*MODEL_SPACE
0
BLOCK_RECORD
5
1B
100
AcDbSymbolTableRecord
100
AcDbBlockTableRecord
2
*PAPER_SPACE
0
ENDTAB
0
ENDSEC
0
SECTION
2
BLOCKS
0
BLOCK
5
20
100
AcDbEntity
100
AcDbBlockBegin
2
*MODEL_SPACE
0
ENDBLK
5
21
100
AcDbEntity
100
AcDbBlockEnd
0
BLOCK
5
1C
100
AcDbEntity
100
AcDbBlockBegin
2
*PAPER_SPACE
0
ENDBLK
5
1D
100
AcDbEntity
100
AcDbBlockEnd
0
ENDSEC
0
SECTION
2
ENTITIES
0
CIRCLE
5
100
100
AcDbEntity
8
0
100
AcDbCircle
10
-29.311131702344532
20
-40.00000075876752
30
0
40
1.4999999999999991
210
-0
220
0
230
1
0
CIRCLE
5
101
100
AcDbEntity
8
0
100
AcDbCircle
10
-20
20
-39.999999999999993
30
0
40
2.3999999999999977
210
0
220
-0
230
1
0
CIRCLE
5
102
100
AcDbEntity
8
0
100
AcDbCircle
10
-40.000000000000007
20
8.8817841970012523e-15
30
0
40
3.3499999999999996
210
0
220
-0
230
1
0
CIRCLE
5
103
100
AcDbEntity
8
0
100
AcDbCircle
10
-50.00000074505806
20
40.000000596046448
30
0
40
2.9000000000000004
210
0
220
-0
230
1
0
CIRCLE
5
104
100
AcDbEntity
8
0
100
AcDbCircle
10
0
20
8.8817841970012523e-15
30
0
40
3.3500000000000001
210
0
220
-0
230
1
0
CIRCLE
5
105
100
AcDbEntity
8
0
100
AcDbCircle
10
-60
20
-39.999999999999993
30
0
40
2.3999999999999932
210
0
220
-0
230
1
0
CIRCLE
5
106
100
AcDbEntity
8
0
100
AcDbCircle
10
-20.000000000000007
20
8.8817841970012523e-15
30
0
40
3.3499999999999996
210
0
220
-0
230
1
0
CIRCLE
5
107
100
AcDbEntity
8
0
100
AcDbCircle
10
-20.000000000000007
20
20
30
0
40
3.3499999999999996
210
0
220
-0
230
1
0
CIRCLE
5
108
100
AcDbEntity
8
0
100
AcDbCircle
10
-20
20
-19.999999999999993
30
0
40
3.3499999999999996
210
0
220
-0
230
1
0
CIRCLE
5
109
100
AcDbEntity
8
0
100
AcDbCircle
10
-39.99999999999995
20
-39.999999999999936
30
0
40
2.4999999999999956
210
0
220
-0
230
1
0
LWPOLYLINE
5
110
100
AcDbEntity
8
0
100
AcDbPolyline
90
68
70
1
43
0.0
10
58.333333333333321
20
60
10
58.333333333333321
20
57
10
41.666666666666657
20
57
10
41.666666666666657
20
60
10
24.999999999999986
20
60
10
24.999999999999986
20
57
10
8.3333333333333304
20
57
10
8.3333333333333286
20
60
10
-8.3333333333333375
20
60
10
-8.3333333333333393
20
57
10
-25.000000000000018
20
57
10
-25.000000000000007
20
60
10
-41.666666666666679
20
60
10
-41.666666666666679
20
57
10
-58.333333333333343
20
57
10
-58.33333333333335
20
60
10
-75
20
60.000000000000007
10
-75
20
46.666666666666657
10
-72
20
46.666666666666657
10
-72
20
33.333333333333329
10
-75
20
33.333333333333329
10
-75
20
19.999999999999993
10
-72
20
19.999999999999993
10
-72
20
6.6666666666666607
10
-75
20
6.6666666666666616
10
-75
20
-6.6666666666666687
10
-72
20
-6.6666666666666687
10
-72
20
-20.000000000000007
10
-75
20
-20.000000000000007
10
-75
20
-33.333333333333329
10
-72
20
-33.333333333333329
10
-72
20
-46.666666666666671
10
-75
20
-46.666666666666671
10
-75
20
-60
10
-58.333333333333329
20
-60
10
-58.333333333333329
20
-57
10
-41.666666666666657
20
-57
10
-41.666666666666657
20
-60
10
-24.999999999999996
20
-60
10
-24.999999999999996
20
-57
10
-8.333333333333325
20
-57
10
-8.3333333333333268
20
-60
10
8.3333333333333428
20
-60
10
8.3333333333333428
20
-57
10
25.000000000000004
20
-57
10
25.000000000000004
20
-60
10
41.666666666666679
20
-60
10
41.666666666666679
20
-57
10
58.333333333333343
20
-57
10
58.333333333333343
20
-60
10
75
20
-59.999999999999993
10
74.999999999999986
20
-46.666666666666657
10
72
20
-46.666666666666657
10
72
20
-33.333333333333329
10
74.999999999999986
20
-33.333333333333329
10
74.999999999999986
20
-19.999999999999996
10
72
20
-19.999999999999996
10
72
20
-6.6666666666666607
10
74.999999999999986
20
-6.6666666666666599
10
74.999999999999986
20
6.6666666666666705
10
72
20
6.6666666666666714
10
72
20
20
10
74.999999999999986
20
20
10
74.999999999999986
20
33.333333333333329
10
72
20
33.333333333333329
10
72
20
46.666666666666671
10
74.999999999999986
20
46.666666666666671
10
74.999999999999986
20
60.000000000000007
0
ENDSEC
0
SECTION
2
OBJECTS
0
DICTIONARY
5
C
100
AcDbDictionary
3
ACAD_GROUP
350
D
3
ACAD_MLINESTYLE
350
17
0
DICTIONARY
5
D
100
AcDbDictionary
0
DICTIONARY
5
1A
330
C
100
AcDbDictionary
0
DICTIONARY
5
17
100
AcDbDictionary
0
ENDSEC
0
EOF
